<?xml version="1.0" encoding="UTF-8"?>
<svg width="31px" height="31px" viewBox="0 0 31 31" version="1.1" xmlns="http://www.w3.org/2000/svg" xmlns:xlink="http://www.w3.org/1999/xlink">
    <defs>
        <polygon id="path-1" points="0 -0.0002 20.41 -0.0002 20.41 15.2865 0 15.2865"></polygon>
    </defs>
    <g id="Page-1" stroke="none" stroke-width="1" fill="none" fill-rule="evenodd">
        <g id="Artboard" transform="translate(-777.000000, -245.000000)">
            <g id="Group-16" transform="translate(777.000000, 245.000000)">
                <circle id="Oval-Copy-2" fill="#F11A1A" cx="15.5" cy="15.5" r="15.5"></circle>
                <g id="Group-3" transform="translate(6.000000, 8.000000)">
                    <mask id="mask-2" fill="white">
                        <use xlink:href="#path-1"></use>
                    </mask>
                    <g id="Clip-2"></g>
                    <path d="M19.0975,11.8968 L18.8095,11.8968 C18.5215,10.7228 17.4355,9.8368 16.1725,9.8368 C14.8665,9.8368 13.7805,10.7448 13.5145,11.9628 L13.4255,11.9628 L13.4255,7.6878 L19.0975,7.6878 L19.0975,11.8968 Z M16.1725,13.9578 C15.3975,13.9578 14.7775,13.3368 14.7775,12.5618 C14.7775,11.7858 15.3975,11.1658 16.1725,11.1658 C16.9485,11.1658 17.5685,11.7858 17.5685,12.5618 C17.5685,13.3368 16.9485,13.9578 16.1725,13.9578 L16.1725,13.9578 Z M13.4255,4.2308 L16.9705,4.2308 L18.4985,6.3578 L13.4255,6.3578 L13.4255,4.2308 Z M5.1615,13.9578 C4.3865,13.9578 3.7665,13.3368 3.7665,12.5618 C3.7665,11.7858 4.3865,11.1658 5.1615,11.1658 C5.9375,11.1658 6.5575,11.7858 6.5575,12.5618 C6.5575,13.3368 5.9375,13.9578 5.1615,13.9578 L5.1615,13.9578 Z M20.2935,6.6248 L17.8335,3.1898 C17.7015,3.0128 17.5015,2.9018 17.3025,2.9018 L13.4255,2.9018 L13.4255,0.6648 C13.4255,0.2878 13.1375,-0.0002 12.7605,-0.0002 L0.6645,-0.0002 C0.2875,-0.0002 -0.0005,0.2878 -0.0005,0.6648 L-0.0005,12.8278 C-0.0005,13.2038 0.2875,13.4918 0.6645,13.4918 L2.6145,13.4918 C2.9915,14.5328 3.9885,15.2868 5.1615,15.2868 C6.4025,15.2868 7.4655,14.4448 7.7765,13.2928 L13.5355,13.2928 C13.8465,14.4448 14.9095,15.2868 16.1505,15.2868 C17.4125,15.2868 18.4985,14.3998 18.7865,13.2258 L19.7405,13.2258 C20.1165,13.2258 20.4045,12.9388 20.4045,12.5618 L20.4045,7.0008 C20.4265,6.8678 20.3815,6.7348 20.2935,6.6248 L20.2935,6.6248 Z" id="Fill-1" fill="#FFFFFF" mask="url(#mask-2)"></path>
                </g>
				<path d="M4.92995 5.81289C4.2925 5.17606 3.64085 4.52504 3.00341 3.88821L1.07687 5.81289C0.498024 6.3894 -0.375576 5.50246 0.187293 4.92416L2.11383 2.99949L0.187293 1.07481C-0.389781 0.49829 0.498024 -0.376242 1.07687 0.187857L3.00341 2.11254C3.64085 1.47571 4.2925 0.822913 4.92995 0.187857C5.50702 -0.390433 6.3824 0.49829 5.81775 1.07481L3.89299 2.99949L5.81775 4.92416C6.3824 5.48649 5.49282 6.37521 4.92995 5.81289" transform="translate(10 11)" id="Fill-1#1" fill="#F11A1A" stroke="none" />
            </g>
        </g>
    </g>
</svg>