<?xml version="1.0" encoding="utf-8"?>
<!-- Generator: Adobe Illustrator 16.0.0, SVG Export Plug-In . SVG Version: 6.00 Build 0)  -->
<!DOCTYPE svg PUBLIC "-//W3C//DTD SVG 1.1//EN" "http://www.w3.org/Graphics/SVG/1.1/DTD/svg11.dtd">
<svg version="1.1" id="Layer_1" xmlns="http://www.w3.org/2000/svg" xmlns:xlink="http://www.w3.org/1999/xlink" x="0px" y="0px"
	 width="31px" height="31px" viewBox="0 0 31 31" enable-background="new 0 0 31 31" xml:space="preserve">
<title>Group 15</title>
<desc>Created with Sketch.</desc>
<g id="Clip-2">
</g>
<g>
	<polygon fill="#E5E5E5" points="22.971,12.231 19.426,12.231 19.426,14.358 24.498,14.358 	"/>
	<path fill="#E5E5E5" d="M22.172,19.166c-0.774,0-1.395,0.619-1.395,1.396c0,0.774,0.62,1.396,1.395,1.396
		c0.777,0,1.396-0.621,1.396-1.396C23.568,19.785,22.949,19.166,22.172,19.166z"/>
	<path fill="#E5E5E5" d="M11.162,19.166c-0.775,0-1.395,0.619-1.395,1.396c0,0.774,0.62,1.396,1.395,1.396
		c0.776,0,1.396-0.621,1.396-1.396C12.558,19.785,11.938,19.166,11.162,19.166z"/>
	<path fill="#E5E5E5" d="M15.5,0C6.939,0,0,6.939,0,15.5S6.939,31,15.5,31S31,24.061,31,15.5S24.061,0,15.5,0z M26.404,20.563
		c0,0.377-0.287,0.664-0.664,0.664h-0.953c-0.289,1.174-1.375,2.061-2.637,2.061c-1.24,0-2.304-0.842-2.615-1.994h-5.759
		c-0.311,1.152-1.374,1.994-2.615,1.994c-1.173,0-2.17-0.754-2.547-1.795h-1.95C6.288,21.492,6,21.203,6,20.828V8.665
		C6,8.288,6.288,8,6.665,8h12.096c0.377,0,0.665,0.288,0.665,0.665v2.237h3.877c0.199,0,0.398,0.111,0.531,0.288l2.459,3.435
		c0.088,0.11,0.133,0.243,0.111,0.376V20.563z"/>
	<path fill="#E5E5E5" d="M19.426,19.963h0.089c0.266-1.219,1.353-2.126,2.657-2.126c1.264,0,2.35,0.886,2.638,2.06h0.288v-4.208
		h-5.672V19.963z"/>
	<path fill="#A1A1A1" d="M23.834,11.19c-0.133-0.177-0.332-0.288-0.531-0.288h-3.877V8.665C19.426,8.288,19.138,8,18.761,8H6.665
		C6.288,8,6,8.288,6,8.665v12.164c0,0.375,0.288,0.664,0.665,0.664h1.95c0.377,1.041,1.374,1.795,2.547,1.795
		c1.241,0,2.304-0.842,2.615-1.994h5.759c0.312,1.152,1.375,1.994,2.615,1.994c1.262,0,2.348-0.887,2.637-2.061h0.953
		c0.377,0,0.664-0.287,0.664-0.664v-5.562c0.021-0.133-0.023-0.266-0.111-0.376L23.834,11.19z M11.162,21.958
		c-0.775,0-1.395-0.621-1.395-1.396c0-0.777,0.62-1.396,1.395-1.396c0.776,0,1.396,0.619,1.396,1.396
		C12.558,21.337,11.938,21.958,11.162,21.958z M19.426,12.231h3.545l1.527,2.127h-5.072V12.231z M22.172,21.958
		c-0.774,0-1.395-0.621-1.395-1.396c0-0.777,0.62-1.396,1.395-1.396c0.777,0,1.396,0.619,1.396,1.396
		C23.568,21.337,22.949,21.958,22.172,21.958z M25.098,19.896H24.81c-0.288-1.174-1.374-2.06-2.638-2.06
		c-1.305,0-2.392,0.907-2.657,2.126h-0.089v-4.275h5.672V19.896z"/>
</g>
</svg>
