<?xml version="1.0" encoding="utf-8"?>
<svg width="32px" height="32px" viewBox="0 0 32 32" version="1.1" xmlns:xlink="http://www.w3.org/1999/xlink" xmlns="http://www.w3.org/2000/svg">
  <desc>Created with Lunacy</desc>
  <defs>
    <path d="M0 0L32 0L32 32L0 32L0 0Z" id="path_1" />
    <path d="M0 0L20.41 0L20.41 15.2867L0 15.2867L0 0L0 0Z" id="path_2" />
    <clipPath id="mask_1">
      <use xlink:href="#path_1" />
    </clipPath>
    <clipPath id="mask_2">
      <use xlink:href="#path_2" />
    </clipPath>
  </defs>
  <g id="svg">
    <path d="M0 0L32 0L32 32L0 32L0 0Z" id="Background" fill="none" stroke="none" />
    <g clip-path="url(#mask_1)">
      <g id="Group-33" transform="translate(0.5 0.5)">
        <path d="M15.5 31C24.0604 31 31 24.0604 31 15.5C31 6.93959 24.0604 0 15.5 0C6.93959 0 0 6.93959 0 15.5C0 24.0604 6.93959 31 15.5 31L15.5 31Z" id="Oval-Copy-6" fill="#F11A1A" stroke="none" />
        <g id="Group-3-Copy-22" transform="translate(6 7.999756)">
          <path d="M0 0L20.41 0L20.41 15.2867L0 15.2867L0 0L0 0Z" id="Clip-2" fill="none" stroke="none" />
          <g id="Mask-group">
            <path d="M0 0L20.41 0L20.41 15.2867L0 15.2867L0 0L0 0Z" id="path_1" fill="none" stroke="none" />
            <g clip-path="url(#mask_2)">
              <g id="Group" transform="translate(-0.0004882813 0)">
                <path d="M20.294 6.625L17.834 3.19C17.702 3.013 17.502 2.902 17.303 2.902L13.426 2.902L13.426 0.665C13.426 0.288 13.138 0 12.761 0L0.665 0C0.288 0 0 0.288 0 0.665L0 12.828C0 13.204 0.288 13.492 0.665 13.492L2.615 13.492C2.992 14.533 3.989 15.287 5.162 15.287C6.403 15.287 7.466 14.445 7.777 13.293L13.536 13.293C13.847 14.445 14.91 15.287 16.151 15.287C17.413 15.287 18.499 14.4 18.787 13.226L19.741 13.226C20.117 13.226 20.405 12.939 20.405 12.562L20.405 7.001C20.427 6.868 20.382 6.735 20.294 6.625ZM16.971 4.231L13.426 4.231L13.426 6.358L18.499 6.358L16.971 4.231ZM19.098 11.897L18.81 11.897C18.522 10.723 17.436 9.837 16.173 9.837C14.867 9.837 13.781 10.745 13.515 11.963L13.426 11.963L13.426 7.688L19.098 7.688L19.098 11.897ZM5.162 13.958C4.387 13.958 3.767 13.337 3.767 12.562C3.767 11.786 4.387 11.166 5.162 11.166C5.938 11.166 6.558 11.786 6.558 12.562C6.558 13.337 5.938 13.958 5.162 13.958ZM14.778 12.562C14.778 13.337 15.398 13.958 16.173 13.958C16.949 13.958 17.569 13.337 17.569 12.562C17.569 11.786 16.949 11.166 16.173 11.166C15.398 11.166 14.778 11.786 14.778 12.562Z" id="Fill-1" fill="#FFFFFF" fill-rule="evenodd" stroke="none" />
              </g>
            </g>
          </g>
        </g>
        <path d="M4.92995 5.81289C4.2925 5.17606 3.64085 4.52504 3.00341 3.88821L1.07687 5.81289C0.498024 6.3894 -0.375576 5.50246 0.187293 4.92416L2.11383 2.99949L0.187293 1.07481C-0.389781 0.49829 0.498024 -0.376242 1.07687 0.187857L3.00341 2.11254C3.64085 1.47571 4.2925 0.822913 4.92995 0.187857C5.50702 -0.390433 6.3824 0.49829 5.81775 1.07481L3.89299 2.99949L5.81775 4.92416C6.3824 5.48649 5.49282 6.37521 4.92995 5.81289" transform="translate(10 11)" id="Fill-1#1" fill="#F11A1A" stroke="none" />
      </g>
    </g>
  </g>
</svg>