<?xml version="1.0" encoding="utf-8"?>
<svg width="32px" height="32px" viewBox="0 0 32 32" version="1.1" xmlns:xlink="http://www.w3.org/1999/xlink" xmlns="http://www.w3.org/2000/svg">
  <desc>Created with Lunacy</desc>
  <defs>
    <path d="M0 0L16.0919 0L16.0919 11.4528L0 11.4528L0 0Z" transform="translate(0.0001 0.5471)" id="path_1" />
    <clipPath id="mask_1">
      <use xlink:href="#path_1" />
    </clipPath>
  </defs>
  <g id="Group-8" transform="translate(0.5 0.5)">
    <path d="M4.92995 5.81289C4.2925 5.17606 3.64085 4.52504 3.00341 3.88821L1.07687 5.81289C0.498024 6.3894 -0.375576 5.50246 0.187293 4.92416L2.11383 2.99949L0.187293 1.07481C-0.389781 0.49829 0.498024 -0.376242 1.07687 0.187857L3.00341 2.11254C3.64085 1.47571 4.2925 0.822913 4.92995 0.187857C5.50702 -0.390433 6.3824 0.49829 5.81775 1.07481L3.89299 2.99949L5.81775 4.92416C6.3824 5.48649 5.49282 6.37521 4.92995 5.81289" transform="translate(12 16)" id="Fill-1" fill="#F11A1A" stroke="none" />
    <g id="Group-6" transform="translate(8 8.000488)">
      <path d="M3.147 0L0 3.227L7.498 3.227L7.498 0L3.147 0Z" transform="translate(0.0003051758 0)" id="Fill-1" fill="#FFFFFF" stroke="none" />
      <path d="M0 0L0 3.227L7.497 3.227L4.351 0L0 0Z" transform="translate(8.594086 0)" id="Fill-2" fill="#FFFFFF" stroke="none" />
      <g id="Group-5" transform="translate(0 3.261292)">
        <path d="M0 0L16.0919 0L16.0919 11.4528L0 11.4528L0 0Z" transform="translate(0.0001 0.5471)" id="Clip-4" fill="none" stroke="none" />
        <g clip-path="url(#mask_1)">
          <path d="M1.072 0L15.033 0.013L16.092 0L16.092 10.388C16.092 10.975 15.62 11.447 15.033 11.447L1.774 11.447C1.774 11.447 0 11.595 0 10.39L0 0L1.072 0ZM4.482 2.866L11.524 2.866C11.976 2.866 12.343 2.499 12.343 2.047C12.343 1.594 11.976 1.227 11.524 1.227L4.482 1.227C4.03 1.227 3.663 1.594 3.663 2.047C3.663 2.499 4.03 2.866 4.482 2.866Z" transform="translate(0.0001 0.5471)" id="Fill-3" fill="#FFFFFF" fill-rule="evenodd" stroke="none" />
        </g>
      </g>
    </g>
    <path d="M4.92995 5.81289C4.2925 5.17606 3.64085 4.52504 3.00341 3.88821L1.07687 5.81289C0.498024 6.3894 -0.375576 5.50246 0.187293 4.92416L2.11383 2.99949L0.187293 1.07481C-0.389781 0.49829 0.498024 -0.376242 1.07687 0.187857L3.00341 2.11254C3.64085 1.47571 4.2925 0.822913 4.92995 0.187857C5.50702 -0.390433 6.3824 0.49829 5.81775 1.07481L3.89299 2.99949L5.81775 4.92416C6.3824 5.48649 5.49282 6.37521 4.92995 5.81289" transform="translate(12 16)" id="Fill-2" fill="#F11A1A" stroke="none" />
    <path d="M15.5 31C24.0604 31 31 24.0604 31 15.5C31 6.93959 24.0604 0 15.5 0C6.93959 0 0 6.93959 0 15.5C0 24.0604 6.93959 31 15.5 31Z" id="Oval-Copy" fill="#F11A1A" stroke="none" />
    <g id="Group-7" transform="translate(7 9)">
      <g id="Group-6">
        <path d="M3.147 0L0 3.227L7.498 3.227L7.498 0L3.147 0Z" transform="translate(0.0003 0.0005)" id="Fill-1" fill="#FFFFFF" stroke="none" />
        <path d="M0 0L0 3.227L7.497 3.227L4.351 0L0 0Z" transform="translate(8.5941 0.0005)" id="Fill-2" fill="#FFFFFF" stroke="none" />
        <g id="Group-5" transform="translate(0 3.2618)">
          <path d="M0 0L16.0919 0L16.0919 11.4528L0 11.4528L0 0Z" transform="translate(0.0001 0.5471)" id="Clip-4" fill="none" stroke="none" />
          <g clip-path="url(#mask_1)">
            <path d="M1.072 0L15.033 0.013L16.092 0L16.092 10.388C16.092 10.975 15.62 11.447 15.033 11.447L1.774 11.447C1.774 11.447 0 11.595 0 10.39L0 0L1.072 0ZM4.482 2.866L11.524 2.866C11.976 2.866 12.343 2.499 12.343 2.047C12.343 1.594 11.976 1.227 11.524 1.227L4.482 1.227C4.03 1.227 3.663 1.594 3.663 2.047C3.663 2.499 4.03 2.866 4.482 2.866Z" transform="translate(0.0001 0.5471)" id="Fill-3" fill="#FFFFFF" fill-rule="evenodd" stroke="none" />
          </g>
        </g>
      </g>
      <path d="M5.09283 6.01073C4.43432 5.35223 3.76114 4.67905 3.10264 4.02055L1.11245 6.01073C0.514479 6.60687 -0.387984 5.68974 0.193481 5.09176L2.18367 3.10158L0.193481 1.11139C-0.402658 0.515249 0.514479 -0.389048 1.11245 0.194251L3.10264 2.18444C3.76114 1.52593 4.43432 0.850921 5.09283 0.194251C5.68897 -0.403722 6.59326 0.515249 6.00996 1.11139L4.02161 3.10158L6.00996 5.09176C6.59326 5.67323 5.67429 6.5922 5.09283 6.01073" transform="translate(5 8)" id="Fill-1" fill="#F11A1A" stroke="none" />
    </g>
  </g>
</svg>