<?xml version="1.0" encoding="utf-8"?>
<!-- Generator: Adobe Illustrator 16.0.0, SVG Export Plug-In . SVG Version: 6.00 Build 0)  -->
<!DOCTYPE svg PUBLIC "-//W3C//DTD SVG 1.1//EN" "http://www.w3.org/Graphics/SVG/1.1/DTD/svg11.dtd">
<svg version="1.1" id="Layer_1" xmlns="http://www.w3.org/2000/svg" xmlns:xlink="http://www.w3.org/1999/xlink" x="0px" y="0px"
	 width="31px" height="31px" viewBox="0 0 31 31" enable-background="new 0 0 31 31" xml:space="preserve">
<title>Group 11</title>
<desc>Created with Sketch.</desc>
<g id="Clip-4">
</g>
<g>
	<path fill="none" d="M18.523,14.64h-7.042c-0.452,0-0.818-0.367-0.819-0.819v0c0,0.452,0.367,0.819,0.819,0.819L18.523,14.64
		c0.453,0.001,0.82-0.367,0.819-0.818v0C19.343,14.273,18.977,14.64,18.523,14.64z"/>
	<polygon fill="none" points="8.072,11.773 7,11.773 7,11.774 8.072,11.774 22.033,11.788 23.092,11.775 23.092,11.773 
		22.033,11.786 	"/>
	<polygon fill="none" points="7,11.227 7.001,11.227 10.147,8 	"/>
	<path fill="#E5E5E5" d="M18.523,13.002h-7.042c-0.452,0-0.818,0.367-0.819,0.819c0,0.452,0.367,0.819,0.819,0.819h7.042
		c0.453,0,0.819-0.367,0.819-0.819C19.343,13.369,18.977,13.002,18.523,13.002z"/>
	<path fill="#E5E5E5" d="M15.5,0C6.939,0,0,6.939,0,15.5C0,24.061,6.939,31,15.5,31C24.061,31,31,24.061,31,15.5
		C31,6.939,24.061,0,15.5,0z M7,11.227L10.147,8h4.351h0.001v3.228L7,11.227L7,11.227L7,11.227z M23.092,11.775v2.977v0.001v5.504
		v0.001v1.903v0.001c0,0.588-0.472,1.061-1.059,1.061H11.122H8.774c0,0-1.774,0.146-1.774-1.059v-0.001V11.774v-0.001h1.072
		l13.961,0.013l1.059-0.013V11.775z M15.594,11.228L15.594,11.228V8h4.351l3.146,3.228H15.594z"/>
	<polygon fill="#A1A1A1" points="14.499,11.228 14.499,8 14.498,8 10.147,8 7.001,11.227 7,11.228 	"/>
	<polygon fill="#A1A1A1" points="15.594,8 15.594,11.227 15.594,11.228 23.092,11.228 19.945,8 	"/>
	<path fill="#A1A1A1" d="M8.072,11.774H7v10.389v0.001c0,1.205,1.774,1.059,1.774,1.059h2.348h10.911
		c0.587,0,1.059-0.473,1.059-1.061v-0.001v-1.903v-0.001v-5.504v-0.001v-2.977l-1.059,0.013L8.072,11.774z M19.343,13.822
		c0.001,0.451-0.366,0.819-0.819,0.819h-7.042c-0.452,0-0.819-0.367-0.819-0.819v0c0-0.452,0.367-0.819,0.819-0.819h7.042
		C18.977,13.002,19.343,13.369,19.343,13.822L19.343,13.822z"/>
</g>
</svg>
