<?xml version="1.0" encoding="utf-8"?>
<!-- Generator: Adobe Illustrator 16.0.0, SVG Export Plug-In . SVG Version: 6.00 Build 0)  -->
<!DOCTYPE svg PUBLIC "-//W3C//DTD SVG 1.1//EN" "http://www.w3.org/Graphics/SVG/1.1/DTD/svg11.dtd">
<svg version="1.1" id="Layer_1" xmlns="http://www.w3.org/2000/svg" xmlns:xlink="http://www.w3.org/1999/xlink" x="0px" y="0px"
	 width="31px" height="31px" viewBox="0 0 31 31" enable-background="new 0 0 31 31" xml:space="preserve">
<title>Group 19</title>
<desc>Created with Sketch.</desc>
<g id="Clip-2">
</g>
<g>
	<path fill="#E5E5E5" d="M15.5,0C6.939,0,0,6.939,0,15.5S6.939,31,15.5,31S31,24.061,31,15.5S24.061,0,15.5,0z M15.499,25
		C10.252,25,6,20.746,6,15.501C6,10.254,10.252,6,15.499,6S25,10.325,25,15.501C25,20.746,20.746,25,15.499,25z"/>
	<path fill="#E5E5E5" d="M20.596,11.176c-0.357-0.005-0.668,0.119-0.932,0.368l-6.341,6.146l-1.924-2.153
		c-0.246-0.264-0.55-0.405-0.907-0.422c-0.363-0.023-0.678,0.089-0.947,0.335c-0.272,0.241-0.417,0.542-0.436,0.898
		c-0.019,0.361,0.094,0.68,0.337,0.953l2.836,3.158c0.157,0.179,0.353,0.303,0.584,0.369c0.229,0.07,0.46,0.08,0.698,0.027
		c0.231-0.055,0.434-0.166,0.603-0.335l7.327-7.09c0.26-0.26,0.392-0.568,0.396-0.925c0.005-0.358-0.117-0.67-0.367-0.933
		C21.271,11.308,20.963,11.176,20.596,11.176z"/>
	<path fill="#A1A1A1" d="M15.499,6C10.252,6,6,10.254,6,15.501C6,20.746,10.252,25,15.499,25S25,20.746,25,15.501
		C25,10.325,20.746,6,15.499,6z M21.495,13.43l-7.327,7.09c-0.169,0.169-0.371,0.28-0.603,0.335
		c-0.238,0.053-0.47,0.043-0.698-0.027c-0.231-0.066-0.427-0.19-0.584-0.369l-2.836-3.158c-0.243-0.273-0.355-0.592-0.337-0.953
		c0.019-0.357,0.163-0.658,0.436-0.898c0.269-0.246,0.584-0.358,0.947-0.335c0.357,0.017,0.661,0.158,0.907,0.422l1.924,2.153
		l6.341-6.146c0.264-0.249,0.574-0.373,0.932-0.368c0.367,0,0.676,0.131,0.928,0.396c0.25,0.263,0.372,0.574,0.367,0.933
		C21.887,12.862,21.755,13.17,21.495,13.43z"/>
</g>
</svg>
