<?xml version="1.0" encoding="UTF-8"?>
<svg width="31px" height="31px" viewBox="0 0 31 31" version="1.1" xmlns="http://www.w3.org/2000/svg" xmlns:xlink="http://www.w3.org/1999/xlink">
    <!-- Generator: Sketch 59.1 (86144) - https://sketch.com -->
    <title>Group 20</title>
    <desc>Created with Sketch.</desc>
    <g id="Page-1" stroke="none" stroke-width="1" fill="none" fill-rule="evenodd">
        <g id="Artboard" transform="translate(-777.000000, -308.000000)">
            <g id="Group-20" transform="translate(777.000000, 308.000000)">
                <circle id="Oval-Copy-3" fill="#3EBE26" cx="15.5" cy="15.5" r="15.5"></circle>
                <g id="Group-3-Copy-3" transform="translate(6.000000, 6.000000)" fill="#FFFFFF">
                    <path d="M15.4949328,7.43001895 L8.16857543,14.5203888 C7.99950564,14.6894308 7.79756118,14.8005602 7.56587295,14.8553423 C7.32792288,14.9085592 7.09623465,14.899168 6.86767735,14.8287338 C6.63598912,14.7614301 6.4403065,14.6377791 6.2837604,14.4593459 L3.44714509,11.3007661 C3.20449864,11.0268556 3.09178545,10.7091194 3.11057098,10.3475575 C3.12935651,9.99069116 3.27337892,9.69017217 3.54576914,9.4491309 C3.81502843,9.20339402 4.12968608,9.0906994 4.49287303,9.11417744 C4.84979814,9.13139468 5.15349757,9.27226295 5.39927494,9.53678227 L7.3232265,11.6889365 L13.6633435,5.54394925 C13.9279064,5.29508197 14.2378677,5.17143093 14.5963582,5.17612653 C14.9626761,5.17612653 15.2710719,5.30760359 15.5231111,5.57212291 C15.7735849,5.83507702 15.8956909,6.14655243 15.8909945,6.50498394 C15.8862981,6.86185023 15.7547994,7.17019524 15.4949328,7.43001895 M9.49921727,0 C4.25179204,0 0,4.25422193 0,9.5007826 C0,14.7457781 4.25179204,19 9.49921727,19 C14.7466425,19 19,14.7457781 19,9.5007826 C19,4.32465607 14.7466425,0 9.49921727,0" id="Fill-1"></path>
                </g>
            </g>
        </g>
    </g>
</svg>