<?xml version="1.0" encoding="utf-8"?>
<svg width="32px" height="32px" viewBox="0 0 32 32" version="1.1" xmlns:xlink="http://www.w3.org/1999/xlink" xmlns="http://www.w3.org/2000/svg">
  <desc>Created with Lunacy</desc>
  <g id="Group-28" transform="translate(0.5 0.5)">
    <path d="M15.5 31C24.0604 31 31 24.0604 31 15.5C31 6.93959 24.0604 0 15.5 0C6.93959 0 0 6.93959 0 15.5C0 24.0604 6.93959 31 15.5 31Z" id="Oval-Copy-23" fill="#F11A1A" stroke="none" />
    <g id="Group-3-Copy-27" transform="translate(6 6)">
      <path d="M9.49922 0C4.25179 0 0 4.25422 0 9.50078C0 14.7458 4.25179 19 9.49922 19C14.7466 19 19 14.7458 19 9.50078C19 4.32466 14.7466 0 9.49922 0" id="Fill-1" fill="#FFFFFF" stroke="none" />
      <path d="M8.21658 9.68815C7.15417 8.62676 6.06809 7.54173 5.00568 6.48035L1.79479 9.68815C0.830041 10.649 -0.62596 9.17076 0.312155 8.20694L3.52305 4.99914L0.312155 1.79134C-0.649634 0.830483 0.830041 -0.62707 1.79479 0.313096L5.00568 3.52089C6.06809 2.45951 7.15417 1.37152 8.21658 0.313096C9.17837 -0.650722 10.6373 0.830483 9.69625 1.79134L6.48832 4.99914L9.69625 8.20694C10.6373 9.14415 9.15469 10.6254 8.21658 9.68815" transform="translate(5 5)" id="Fill-1" fill="#F11A1A" stroke="none" />
    </g>
  </g>
</svg>