<?xml version="1.0" encoding="UTF-8"?>
<svg width="31px" height="31px" viewBox="0 0 31 31" version="1.1" xmlns="http://www.w3.org/2000/svg" xmlns:xlink="http://www.w3.org/1999/xlink">
    <!-- Generator: Sketch 59.1 (86144) - https://sketch.com -->
    <title>Group 20</title>
    <desc>Created with Sketch.</desc>
	<g id="Group-28" transform="translate(0.5 0.5)">
     <circle id="Oval-Copy-3" fill="#F11A1A" cx="15.5" cy="15.5" r="15.5"></circle>
		<g id="Group-3-Copy-27" transform="translate(6 6)">
			<circle id="Oval-Copy-3" fill="#FFFFFF" cx="6" cy="6" r="10"  transform="translate(3 3)"></circle>
		  <path d="M8.21658 9.68815C7.15417 8.62676 6.06809 7.54173 5.00568 6.48035L1.79479 9.68815C0.830041 10.649 -0.62596 9.17076 0.312155 8.20694L3.52305 4.99914L0.312155 1.79134C-0.649634 0.830483 0.830041 -0.62707 1.79479 0.313096L5.00568 3.52089C6.06809 2.45951 7.15417 1.37152 8.21658 0.313096C9.17837 -0.650722 10.6373 0.830483 9.69625 1.79134L6.48832 4.99914L9.69625 8.20694C10.6373 9.14415 9.15469 10.6254 8.21658 9.68815" transform="translate(4 4)" id="Fill-1" fill="#F11A1A" stroke="none" />
		</g>
  </g>
  
</svg>