<?xml version="1.0" encoding="utf-8"?>
<svg width="32px" height="32px" viewBox="0 0 32 32" version="1.1" xmlns:xlink="http://www.w3.org/1999/xlink" xmlns="http://www.w3.org/2000/svg">
  <desc>Created with Lunacy</desc>
  <g id="Group" transform="translate(0.5 0.5)">
    <path d="M15.5 31C24.0604 31 31 24.0604 31 15.5C31 6.93959 24.0604 0 15.5 0C6.93959 0 0 6.93959 0 15.5C0 24.0604 6.93959 31 15.5 31Z" id="Oval-Copy-14" fill="#F11A1A" stroke="none" />
    <g id="noun_package-received_2509691" transform="translate(8 5.646973)">
      <path d="M0 0L2 0L2 4L0 4L0 0Z" transform="translate(0 15)" id="Rectangle" fill="#FFFFFF" stroke="none" />
      <path d="M0 6C0.873872 5.40833 4.51254 5.70172 6.28991 5.88753C6.92186 5.9511 7.54394 5.7115 7.96359 5.24696L10.8173 2.08322C10.8864 2.00987 10.9308 1.91208 10.9407 1.81428C11.3554 -1.56461 9.45954 0.811859 9.45954 0.811859L7.50938 3.03186C7.25758 3.32036 6.85768 3.43282 6.48739 3.33014L3.76209 2.54287C8.32894 1.76538 5.92456 0.645604 5.92456 0.645604L2.62655 0.645604C2.33526 0.645604 2.05878 0.77274 1.87117 0.992784L0 3.18833L0 6Z" transform="translate(3 12)" id="Path" fill="#FFFFFF" stroke="none" />
      <g id="Group" transform="translate(3 0)">
        <path d="M7.35455 1.14L3.67727 0L0 1.14L3.67273 2.14L7.35455 1.14Z" transform="translate(1.322727 0.035)" id="Path" fill="#FFFFFF" stroke="none" />
        <path d="M5.15 1.315C5.15 1.315 5.14545 1.315 5.14545 1.315L5.10909 1.325C5.09091 1.33 5.06818 1.33 5.05 1.335C5.03182 1.335 5.01818 1.345 5 1.345C4.96364 1.345 4.92727 1.34 4.89091 1.33L0 0L0 8.465L5 10.075L10 8.465L10 0L5.15 1.315Z" transform="translate(0 1.845)" id="Shape" fill="#FFFFFF" stroke="none" />
      </g>
	  <path d="M4.92995 5.81289C4.2925 5.17606 3.64085 4.52504 3.00341 3.88821L1.07687 5.81289C0.498024 6.3894 -0.375576 5.50246 0.187293 4.92416L2.11383 2.99949L0.187293 1.07481C-0.389781 0.49829 0.498024 -0.376242 1.07687 0.187857L3.00341 2.11254C3.64085 1.47571 4.2925 0.822913 4.92995 0.187857C5.50702 -0.390433 6.3824 0.49829 5.81775 1.07481L3.89299 2.99949L5.81775 4.92416C6.3824 5.48649 5.49282 6.37521 4.92995 5.81289" transform="translate(5 4)" id="Fill-1#1" fill="#F11A1A" stroke="none" />
    </g>
  </g>
</svg>