<?xml version="1.0" encoding="utf-8"?>
<!-- Generator: Adobe Illustrator 16.0.0, SVG Export Plug-In . SVG Version: 6.00 Build 0)  -->
<!DOCTYPE svg PUBLIC "-//W3C//DTD SVG 1.1//EN" "http://www.w3.org/Graphics/SVG/1.1/DTD/svg11.dtd">
<svg version="1.1" id="Layer_1" xmlns="http://www.w3.org/2000/svg" xmlns:xlink="http://www.w3.org/1999/xlink" x="0px" y="0px"
	 width="31px" height="31px" viewBox="0 0 31 31" enable-background="new 0 0 31 31" xml:space="preserve">
<title>Group 22</title>
<desc>Created with Sketch.</desc>
<g id="Page-1">
	<g id="Artboard" transform="translate(-777.000000, -365.000000)">
		<g id="Group-22" transform="translate(777.000000, 365.000000)">
			<circle id="Oval-Copy-4" fill="#F11A1A" cx="15.5" cy="15.5" r="15.5"/>
			<g id="noun_Store_840490" transform="translate(7.000000, 7.000000)">
				<path id="Shape" fill="#FFFFFF" d="M17,15.121C17,15.606,16.615,16,16.139,16H0.861C0.385,16,0,15.606,0,15.121
					c0-0.486,0.385-0.88,0.861-0.88h0.993V8.577l0.087,0.011c0.853,0.093,1.708-0.146,2.396-0.669
					c0.977,0.744,2.268,0.897,3.386,0.404v5.919h5.702V8.398c0.345,0.108,0.702,0.162,1.063,0.161c0.092,0,0.177,0,0.276-0.011
					c0.131-0.011,0.261-0.029,0.389-0.054v5.747h0.994C16.619,14.245,17,14.638,17,15.121z M11.547,11.212
					c-0.102-0.001-0.203,0.027-0.291,0.079l-1.948,1.151c-0.189,0.103-0.309,0.302-0.312,0.521
					c-0.002,0.219,0.112,0.422,0.299,0.529c0.187,0.106,0.416,0.1,0.598-0.017l1.947-1.151c0.229-0.135,0.342-0.41,0.273-0.672
					c-0.068-0.261-0.301-0.442-0.566-0.442V11.212z M12.055,9.061c-0.078-0.137-0.205-0.238-0.355-0.279s-0.31-0.02-0.443,0.06
					L9.306,9.99c-0.189,0.103-0.309,0.303-0.312,0.521c-0.003,0.219,0.111,0.422,0.299,0.528s0.416,0.101,0.598-0.017l1.947-1.15
					C12.117,9.709,12.215,9.346,12.055,9.061L12.055,9.061z M12.445,6.272c0.052,0,0.1,0.027,0.126,0.072
					c0.409,0.676,1.133,1.086,1.911,1.086c0.059,0,0.117,0,0.177,0c1.457-0.114,2.325-1.729,1.727-3.089l-2.183-3.895
					C14.051,0.173,13.767,0.003,13.459,0H3.333C3.021,0,2.733,0.17,2.578,0.447L0.4,4.335C-0.186,5.671,0.634,7.276,2.06,7.419
					C2.14,7.428,2.221,7.432,2.302,7.432c0.778,0.001,1.5-0.41,1.911-1.085c0.026-0.045,0.074-0.073,0.125-0.073
					c0.051,0,0.099,0.028,0.125,0.073C4.869,7.019,5.585,7.43,6.358,7.435c0.773,0.005,1.495-0.396,1.91-1.063
					C8.294,6.327,8.341,6.3,8.392,6.3c0.05,0,0.098,0.027,0.124,0.071c0.415,0.667,1.136,1.069,1.91,1.064
					c0.772-0.005,1.489-0.416,1.896-1.088C12.347,6.302,12.395,6.273,12.445,6.272z"/>
			</g>
		</g>
	</g>
</g>
<path id="Fill-1-Copy-3" fill="#F11A1A" d="M17.445,13.488c-0.637-0.637-1.289-1.287-1.926-1.924l-1.928,1.924
	c-0.578,0.576-1.451-0.311-0.889-0.889l1.926-1.924L12.703,8.75c-0.577-0.576,0.311-1.451,0.889-0.887l1.928,1.925
	c0.637-0.637,1.29-1.29,1.926-1.925c0.577-0.579,1.453,0.311,0.889,0.887l-1.926,1.925l1.926,1.924
	C18.898,13.162,18.008,14.05,17.445,13.488"/>
</svg>
