<?xml version="1.0" encoding="utf-8"?>
<svg width="32px" height="32px" viewBox="0 0 32 32" version="1.1" xmlns:xlink="http://www.w3.org/1999/xlink" xmlns="http://www.w3.org/2000/svg">
  <desc>Created with Lunacy</desc>
  <defs>
    <path d="M0 0L18.0969 0L18.0969 15.7159L0 15.7159L0 0Z" id="path_1" />
    <clipPath id="mask_1">
      <use xlink:href="#path_1" />
    </clipPath>
  </defs>
  <g id="Group-22" transform="translate(0.5 0.5)">
    <path d="M15.5 31C24.0604 31 31 24.0604 31 15.5C31 6.93959 24.0604 0 15.5 0C6.93959 0 0 6.93959 0 15.5C0 24.0604 6.93959 31 15.5 31Z" id="Oval" fill="#F11A1A" stroke="none" />
    <g id="Group-3-Copy-21" transform="translate(7.000122 7.999634)">
      <path d="M0 0L18.0969 0L18.0969 15.7159L0 15.7159L0 0Z" id="Clip-2" fill="none" stroke="none" />
      <g clip-path="url(#mask_1)">
        <path d="M0.476366 0.953C0.476366 0.417 0.893366 0 1.42937 0L15.2394 0L15.2394 1.906L1.42937 1.906C0.893366 1.906 0.476366 1.489 0.476366 0.953ZM1.88137 15.716L16.9064 15.716C17.5654 15.716 18.0974 15.185 18.0974 14.526L18.0974 12.383L11.1914 12.383C10.5404 12.383 10.0004 11.843 10.0004 11.192L10.0004 7.382C10.0004 6.731 10.5404 6.192 11.1914 6.192L18.0974 6.192L18.0974 4.049C18.0974 3.389 17.5654 2.858 16.9064 2.858L1.20537 2.843C0.728367 2.786 0.303367 2.555 0.000366502 2.211L0.000366502 14.448C0.000366502 14.448 -0.0736335 15.716 1.88137 15.716ZM10.9534 7.382C10.9534 7.242 11.0514 7.144 11.1914 7.144L18.0974 7.144L18.0974 11.43L11.1914 11.43C11.0514 11.43 10.9534 11.332 10.9534 11.192L10.9534 7.382ZM13.0964 8.573C13.4914 8.573 13.8114 8.892 13.8114 9.287C13.8114 9.681 13.4914 10.001 13.0964 10.001C12.7024 10.001 12.3824 9.681 12.3824 9.287C12.3824 8.892 12.7024 8.573 13.0964 8.573Z" transform="translate(0 -6.103516E-05)" id="Fill-1" fill="#FFFFFF" fill-rule="evenodd" stroke="none" />
      </g>
    </g>
    <path d="M4.92995 5.81289C4.2925 5.17606 3.64085 4.52504 3.00341 3.88821L1.07687 5.81289C0.498024 6.3894 -0.375576 5.50246 0.187293 4.92416L2.11383 2.99949L0.187293 1.07481C-0.389781 0.49829 0.498024 -0.376242 1.07687 0.187857L3.00341 2.11254C3.64085 1.47571 4.2925 0.822913 4.92995 0.187857C5.50702 -0.390433 6.3824 0.49829 5.81775 1.07481L3.89299 2.99949L5.81775 4.92416C6.3824 5.48649 5.49282 6.37521 4.92995 5.81289" transform="translate(9 14)" id="Fill-1" fill="#F11A1A" stroke="none" />
  </g>
</svg>