<?xml version="1.0" encoding="utf-8"?>
<!-- Generator: Adobe Illustrator 16.0.0, SVG Export Plug-In . SVG Version: 6.00 Build 0)  -->
<!DOCTYPE svg PUBLIC "-//W3C//DTD SVG 1.1//EN" "http://www.w3.org/Graphics/SVG/1.1/DTD/svg11.dtd">
<svg version="1.1" id="Layer_1" xmlns="http://www.w3.org/2000/svg" xmlns:xlink="http://www.w3.org/1999/xlink" x="0px" y="0px"
	 width="31px" height="31px" viewBox="0 0 31 31" enable-background="new 0 0 31 31" xml:space="preserve">
<title>Group 14</title>
<desc>Created with Sketch.</desc>
<g id="Page-1">
	<g id="Artboard" transform="translate(-776.000000, -113.000000)">
		<g id="Group-14" transform="translate(776.000000, 113.000000)">
			<circle id="Oval" fill="#E5E5E5" cx="15.5" cy="15.5" r="15.5"/>
			<g id="Group-3" transform="translate(7.000000, 7.000000)">
				<g id="Clip-2">
				</g>
				<defs>
					<filter id="Adobe_OpacityMaskFilter" filterUnits="userSpaceOnUse" x="0" y="0" width="18.098" height="15.715">
						<feColorMatrix  type="matrix" values="1 0 0 0 0  0 1 0 0 0  0 0 1 0 0  0 0 0 1 0"/>
					</filter>
				</defs>
				<mask maskUnits="userSpaceOnUse" x="0" y="0" width="18.098" height="15.715" id="mask-2">
					<g filter="url(#Adobe_OpacityMaskFilter)">
						<polygon id="path-1" fill="#FFFFFF" points="0,0 18.098,0 18.098,15.715 0,15.715 						"/>
					</g>
				</mask>
				<path id="Fill-1" mask="url(#mask-2)" fill="#A1A1A1" d="M0,14.447c0,0-0.074,1.268,1.881,1.268L0,14.447z M13.097,8.573
					c0.396,0,0.715,0.319,0.715,0.714c0,0.394-0.319,0.713-0.715,0.713c-0.394,0-0.714-0.319-0.714-0.713
					C12.383,8.892,12.703,8.573,13.097,8.573L13.097,8.573z M11.191,7.144c-0.141,0-0.238,0.098-0.238,0.238v3.81
					c0,0.141,0.098,0.238,0.238,0.238h6.906V7.144H11.191z M1.881,15.715h15.025c0.659,0,1.191-0.53,1.191-1.189v-2.143h-6.906
					c-0.65,0-1.191-0.541-1.191-1.191v-3.81c0-0.651,0.541-1.19,1.191-1.19h6.906V4.048c0-0.66-0.532-1.191-1.191-1.191L1.206,2.842
					C0.729,2.786,0.304,2.555,0,2.21V2.209v12.238L1.881,15.715z M1.43,0C0.894,0,0.477,0.417,0.477,0.953S0.894,1.906,1.43,1.906
					h13.81V0H1.43z"/>
			</g>
		</g>
	</g>
</g>
</svg>
