<?xml version="1.0" encoding="UTF-8"?>
<svg viewBox="0 0 31 31" version="1.1" xmlns="http://www.w3.org/2000/svg" xmlns:xlink="http://www.w3.org/1999/xlink">
    <!-- Generator: Sketch 59.1 (86144) - https://sketch.com -->
    <title>Group 14</title>
    <desc>Created with Sketch.</desc>
    <defs>
        <polygon id="path-1" points="0.000133497784 -0.0004 18.097 -0.0004 18.097 15.7155 0.000133497784 15.7155"></polygon>
    </defs>
    <g id="Page-1" stroke="none" stroke-width="1" fill="none" fill-rule="evenodd">
        <g id="Artboard" transform="translate(-776.000000, -113.000000)">
            <g id="Group-14" transform="translate(776.000000, 113.000000)">
                <circle id="Oval" fill="#3EBE26" cx="15.5" cy="15.5" r="15.5"></circle>
                <g id="Group-3" transform="translate(7.000000, 7.000000)">
                    <mask id="mask-2" fill="white">
                        <use xlink:href="#path-1"></use>
                    </mask>
                    <g id="Clip-2"></g>
                    <path d="M0.0005,14.4475 C0.0005,14.4475 -0.0735,15.7155 1.8815,15.7155 L0.0005,14.4475 Z M13.0965,8.5725 C13.4915,8.5725 13.8115,8.8915 13.8115,9.2865 C13.8115,9.6805 13.4915,10.0005 13.0965,10.0005 C12.7025,10.0005 12.3825,9.6805 12.3825,9.2865 C12.3825,8.8915 12.7025,8.5725 13.0965,8.5725 L13.0965,8.5725 Z M11.1915,7.1435 C11.0515,7.1435 10.9535,7.2415 10.9535,7.3815 L10.9535,11.1915 C10.9535,11.3315 11.0515,11.4295 11.1915,11.4295 L18.0975,11.4295 L18.0975,7.1435 L11.1915,7.1435 Z M1.8815,15.7155 L16.9065,15.7155 C17.5655,15.7155 18.0975,15.1845 18.0975,14.5255 L18.0975,12.3825 L11.1915,12.3825 C10.5405,12.3825 10.0005,11.8425 10.0005,11.1915 L10.0005,7.3815 C10.0005,6.7305 10.5405,6.1915 11.1915,6.1915 L18.0975,6.1915 L18.0975,4.0485 C18.0975,3.3885 17.5655,2.8575 16.9065,2.8575 L1.2055,2.8425 C0.7285,2.7855 0.3035,2.5545 0.0005,2.2105 L0.0005,2.2095 L0.0005,14.4475 L1.8815,15.7155 Z M1.4295,-0.0005 C0.8935,-0.0005 0.4765,0.4165 0.4765,0.9525 C0.4765,1.4885 0.8935,1.9055 1.4295,1.9055 L15.2395,1.9055 L15.2395,-0.0005 L1.4295,-0.0005 Z" id="Fill-1" fill="#FFFFFF" mask="url(#mask-2)"></path>
                </g>
            </g>
        </g>
    </g>
</svg>