<?xml version="1.0" encoding="UTF-8"?>
<svg viewBox="0 0 20 20" version="1.1" xmlns="http://www.w3.org/2000/svg" xmlns:xlink="http://www.w3.org/1999/xlink">
    <!-- Generator: Sketch 59.1 (86144) - https://sketch.com -->
    <title>Group 2</title>
    <desc>Created with Sketch.</desc>
    <g id="Page-1" stroke="none" stroke-width="1" fill="currentColor" fill-rule="evenodd">
        <g id="Artboard-Copy" transform="translate(-223.000000, -497.000000)" fill="#E52020" fill-rule="nonzero">
            <g id="Group-2" transform="translate(223.000000, 497.000000)">
                <g id="noun_Warning_707379">
                    <path d="M10,0 C4.47711111,0 0,4.47711111 0,10 C0,15.5231111 4.47711111,20 10,20 C15.5231111,20 20,15.5231111 20,10 C20,4.47711111 15.5231111,0 10,0 Z M9.99988002,16 C9.26368517,16 8.66666667,15.4034077 8.66666667,14.6669066 C8.66666667,13.9301656 9.26344521,13.3333333 9.99988002,13.3333333 C10.7360749,13.3333333 11.3333333,13.9299256 11.3333333,14.6669066 C11.3333333,15.4034077 10.7360749,16 9.99988002,16 Z M11.3320086,5.41413305 L11.0655186,11.6315195 L11.0641939,11.6315195 C11.0392449,12.2071743 10.5729425,12.6666667 10,12.6666667 C9.42705746,12.6666667 8.96075509,12.2071743 8.93580615,11.6315195 L8.93448143,11.6315195 L8.66799139,5.41413305 L8.66975769,5.41413305 C8.66887454,5.39395037 8.66666667,5.3742162 8.66666667,5.35403352 C8.66666667,4.60637738 9.26345421,4 10,4 C10.7365458,4 11.3333333,4.60637738 11.3333333,5.35403352 C11.3333333,5.3742162 11.3311255,5.39395037 11.3302423,5.41413305 L11.3320086,5.41413305 Z" id="Shape"></path>
                </g>
            </g>
        </g>
    </g>
</svg>