<?xml version="1.0" encoding="UTF-8"?>
<svg width="41px" height="42px" viewBox="0 0 41 42" version="1.1" xmlns="http://www.w3.org/2000/svg" xmlns:xlink="http://www.w3.org/1999/xlink">
    <!-- Generator: Sketch 59.1 (86144) - https://sketch.com -->
    <title>Group 35</title>
    <desc>Created with Sketch.</desc>
    <defs>
        <linearGradient x1="50%" y1="0%" x2="50%" y2="100%" id="linearGradient-1">
            <stop stop-color="#F9B215" offset="0%"></stop>
            <stop stop-color="#F79C0C" offset="100%"></stop>
        </linearGradient>
    </defs>
    <g id="Top-Up-&amp;-Billing" stroke="none" stroke-width="1" fill="none" fill-rule="evenodd">
        <g id="Top-Up-&amp;-Billing---Top-Up-Info" transform="translate(-863.000000, -565.000000)" fill="url(#linearGradient-1)">
            <g id="Group-35" transform="translate(863.000000, 565.000000)">
                <path d="M30.9542501,34.3619362 C30.6326572,35.2887884 30.476091,36.1809746 30.6687355,37.1006303 C30.8623525,38.0244986 31.2900409,38.844808 32.0312508,39.6371213 C27.1128343,42.0662797 22.0064412,42.5778431 16.656252,41.3769986 C19.7695862,41.1557512 22.1475453,39.5877992 24.479507,37.9329631 C25.6237047,37.1209033 26.7509816,36.2876052 27.9246448,35.511791 C28.8023882,34.9316857 29.7962434,34.546587 30.9542501,34.3619362 Z M35.263072,31.8159149 C37.7171432,31.8275668 39.7311378,33.8477994 39.7187501,36.2854832 C39.7060562,38.754445 37.6835416,40.7368398 35.1874443,40.7269894 C32.7255231,40.7170653 30.7444601,38.7218361 30.7500009,36.2577229 C30.7556606,33.776402 32.7596034,31.8040846 35.263072,31.8159149 Z M5.81158683,31.8159149 C8.2685686,31.8250063 10.2586144,33.8409503 10.2500026,36.3121721 C10.2413347,38.7578358 8.21596151,40.7364916 5.73094822,40.7269894 C3.28289429,40.7175138 1.25982507,38.6738182 1.28142469,36.2319692 C1.30302432,33.7897387 3.33722936,31.8067913 5.81158683,31.8159149 Z M10.9743829,34.3619362 C11.8258806,34.4610723 12.561956,34.7268339 13.1965535,35.1940148 C13.8990728,35.711201 14.5746933,36.266328 15.2312416,36.8383275 C16.3776373,37.8371191 17.5745921,38.7379112 19.2187518,39.0245665 C16.7051018,41.0430436 13.3530887,41.3318845 10.2500026,39.539742 C11.4305841,37.9624817 11.701552,36.2452594 10.9743829,34.3619362 Z M21.3553913,24.1778511 C21.673122,24.5053252 21.9229307,24.7617651 22.1715966,25.0193408 C22.7968532,25.6670372 23.4359065,26.3007538 24.0368354,26.9733515 C24.1952925,27.1506314 24.2742353,27.4410594 24.3191356,27.6938296 C24.3665666,27.9606669 24.3311362,28.2446292 24.3295851,28.5211649 C24.3232991,29.6705573 23.63159,30.4427602 22.5538203,30.4573515 C21.2079552,30.4754377 19.8614369,30.4779715 18.5156535,30.4542061 C18.1157962,30.4472162 17.9767686,30.5842172 18.0225669,31.0007244 C18.0490988,31.2421361 18.0273834,31.4895766 18.0273834,31.8159149 C17.0842329,30.7858741 16.2019018,29.8221495 15.3750021,28.9190617 C16.2031264,28.0016448 17.090274,27.0187855 18.0259956,25.9821917 C18.0259956,26.345751 18.0335878,26.6609055 18.0235465,26.9755358 C18.0161176,27.2082976 18.0866518,27.3245038 18.3229088,27.3226689 C19.2338128,27.3157665 20.1449617,27.3134074 21.0558657,27.3242416 C21.3293492,27.3274744 21.3602079,27.175358 21.3582486,26.9394508 C21.3510646,26.0566336 21.3553913,25.173729 21.3553913,24.1778511 Z M38.0238708,21.6318298 C40.1392504,24.6671893 40.2343362,28.5618868 38.5334135,31.8159149 C36.3616388,30.370346 35.8978686,30.2934616 33.3125006,31.0072576 C33.5217586,30.3204778 33.6306626,29.6561438 33.9109974,29.1144998 C34.3411724,28.2834983 34.8749832,27.523592 35.3920395,26.7588106 C35.81211,26.1378446 36.2897847,25.5708095 36.7103733,24.9503514 C37.4112968,23.9163222 37.7063134,23.1364077 38.0238708,21.6318298 Z M0.64236911,16.5986584 C0.745929446,18.4989893 1.36517077,20.1517116 2.30366423,21.6300154 C3.32557147,23.2397131 4.46712095,24.7589144 5.56316396,26.3117618 C6.44819837,27.5656611 7.27358838,28.8522398 7.59610991,30.4366063 C7.61113146,30.5101831 7.6154612,30.5863703 7.63260344,30.7253057 C5.70595705,30.0214437 3.9818365,30.3726012 2.43399827,31.7236684 C0.287153622,29.1954692 -0.769214824,20.3460472 0.64236911,16.5986584 Z M26.8113482,16.5489874 C27.1613916,16.5887273 27.525157,16.5238837 27.8691805,16.5868746 C28.7695199,16.7518552 29.3881601,17.5471155 29.3941801,18.5200472 C29.4038297,20.0929673 29.40622,21.6660727 29.3919669,23.2389928 C29.3886913,23.5974852 29.4866928,23.7463475 29.8424021,23.7117025 C30.1288818,23.6839124 30.4197879,23.7061445 30.7500009,23.7061445 C29.7124416,24.7557769 28.7230422,25.7567766 27.7671066,26.7238724 C26.8762399,25.8119863 25.8924177,24.8049654 24.8221913,23.709572 L26.1670345,23.709572 L26.1670345,19.9423449 L23.0625015,19.9423449 C23.2133548,19.7581891 23.2987853,19.6429528 23.3947506,19.538462 C24.1608801,18.7046661 24.9417054,17.8852284 25.6904832,17.0348511 C26.0059118,16.676544 26.3414365,16.4956304 26.8113482,16.5489874 Z M13.2539584,16.5397873 C14.1212258,17.4250613 15.1086903,18.4332926 16.1673923,19.5142185 L14.7643898,19.5142185 L14.7643898,20.3415043 L14.7643898,20.3415043 C14.7646539,21.1947592 14.7743401,22.0481071 14.7604272,22.9010827 C14.7551438,23.225649 14.8671516,23.3315729 15.1716506,23.3257089 C16.0478117,23.3089547 16.9245012,23.3198449 17.9375019,23.3198449 C16.9007259,24.450382 15.9631895,25.4739713 15.0229233,26.4948613 C14.9626047,26.560482 14.8841464,26.6503963 14.8111477,26.6534679 C13.9159664,26.6922818 12.9834492,26.9372656 12.2097857,26.2055719 C11.7805108,25.7994684 11.5944476,25.282694 11.5976176,24.6726545 C11.6055427,23.1679401 11.6006996,21.6632256 11.5976176,20.1585111 C11.5972654,19.9616491 11.5776288,19.7649732 11.5651248,19.5360921 L10.2500026,19.5360921 C11.2974334,18.4913738 12.2997793,17.4915196 13.2539584,16.5397873 Z M38.617779,10.1747341 C41.0367258,15.0454953 41.5833735,20.121846 40.3947845,25.4508617 C40.1639421,22.8022248 38.9546913,20.6470025 37.5358834,18.6048789 C36.5472331,17.1817701 35.4635563,15.8331813 34.5400086,14.3625085 C34.0213257,13.5364393 33.7399866,12.5306624 33.3574757,11.6030193 C33.3237221,11.5212718 33.3328953,11.4184283 33.3125006,11.241846 C35.273147,11.9527656 36.9991214,11.5829975 38.617779,10.1747341 Z M2.46363838,10.1747341 C4.0313548,11.519678 5.73991327,11.8200926 7.68750279,10.9678569 C7.55362451,11.5086638 7.51871866,12.0149124 7.31485459,12.4010154 C6.81120067,13.3548039 6.24905116,14.2698913 5.67306117,15.1683057 C5.33688567,15.6924398 4.91940827,16.1452342 4.55520363,16.6464304 C3.78144287,17.7111692 3.20214511,18.8947401 2.98200325,20.3588192 C0.922384246,17.630028 0.713732593,13.2735617 2.46363838,10.1747341 Z M22.5674848,10.1747341 C23.6507468,11.2297335 24.6548117,12.2074551 25.6250013,13.1523685 C24.6754718,14.0637773 23.6645203,15.0341888 22.5820958,16.0731758 L22.5820958,14.7406548 L18.7742062,14.7406548 L18.7742062,17.8127979 C18.3730084,17.4563451 18.0625477,17.1836969 17.7557165,16.9073938 C17.0750482,16.2945664 16.3793036,15.6949668 15.7275781,15.0562061 C15.5470345,14.879372 15.4503412,14.5917557 15.4039024,14.3406896 C15.349274,14.0453281 15.3881746,13.7343021 15.3918972,13.430151 C15.404833,12.3419952 16.2098345,11.577745 17.3836476,11.5686944 C18.9480493,11.556511 20.5128232,11.5546835 22.0772249,11.5713052 C22.4610198,11.5753953 22.611597,11.4692253 22.5731616,11.1045051 C22.544498,10.8335975 22.5674848,10.5580775 22.5674848,10.1747341 Z M5.77951759,1.26365962 C8.26219467,1.26794353 10.2602042,3.27687558 10.2500026,5.75878827 C10.239914,8.21304073 8.24314869,10.1772031 5.76085444,10.1747341 C3.27310481,10.1722604 1.2683,8.16627496 1.28125332,5.69263182 C1.29423699,3.2578651 3.32383029,1.25948387 5.77951759,1.26365962 Z M35.2122867,1.26365962 C37.6680414,1.25747609 39.6914848,3.25672885 39.7184923,5.71596136 C39.7451153,8.14572999 37.7064861,10.1727303 35.2342002,10.1747341 C32.7411541,10.1766397 30.7529837,8.20980677 30.7500009,5.73855987 C30.7470247,3.27312945 32.7446141,1.26987189 35.2122867,1.26365962 Z M30.7500009,2.45008811 C29.5667258,4.02643851 29.2989296,5.74591057 30.022446,7.6287128 C28.9444407,7.49923844 28.0806544,7.06374966 27.3099327,6.45032111 C26.6733782,5.9437964 26.0657214,5.40245357 25.4515133,4.86968406 C24.4020466,3.95925181 23.2609512,3.21486169 21.7812516,2.95617541 C24.4566109,0.87260043 27.7948197,0.723267496 30.7500009,2.45008811 Z M24.3317125,0.629191116 C21.7262787,0.796174994 19.6042388,1.95865319 17.5963994,3.33130983 C16.1172085,4.34243145 14.7231119,5.46057376 13.2052417,6.41893129 C12.4037111,6.92506276 11.4200013,7.19458984 10.5143268,7.56244601 C10.4071853,7.60590396 10.2733552,7.59528091 10.1057773,7.61521011 C10.8046146,5.68971568 10.4693622,3.97176587 9.04267838,2.36443631 C13.9131685,-0.0619219689 18.9990054,-0.584207505 24.3317125,0.629191116 Z" id="Combined-Shape"></path>
            </g>
        </g>
    </g>
</svg>