<?xml version="1.0" encoding="UTF-8"?>
<svg width="40px" height="50px" viewBox="0 0 40 50" version="1.1" xmlns="http://www.w3.org/2000/svg" xmlns:xlink="http://www.w3.org/1999/xlink">
    <!-- Generator: Sketch 59.1 (86144) - https://sketch.com -->
    <title>Group 3</title>
    <desc>Created with Sketch.</desc>
    <defs>
        <linearGradient x1="50%" y1="0%" x2="50%" y2="100%" id="linearGradient-1">
            <stop stop-color="#F9B114" offset="0%"></stop>
            <stop stop-color="#F79C0C" offset="100%"></stop>
        </linearGradient>
    </defs>
    <g id="Top-Up-&amp;-Billing" stroke="none" stroke-width="1" fill="none" fill-rule="evenodd">
        <g id="Top-Up-&amp;-Billing---Top-Up-Info" transform="translate(-536.000000, -564.000000)" fill="url(#linearGradient-1)">
            <g id="Group-3" transform="translate(536.000000, 564.000000)">
                <path d="M26.4391666,22.5572878 L28.53064,21.8142334 L28.3785661,22.3910267 M40,22.5792752 C36.6015467,20.9452784 34.3854828,20.8754006 32.4601302,21.2564155 L34.33357,16.5227946 L18.840666,21.0446736 C18.3264244,21.1392497 17.8292834,21.299788 17.3403874,21.4826149 L13.4096756,22.6298764 C13.2887494,22.6295752 13.1675179,22.6268644 13.0450649,22.6154189 C13.0184977,22.6130093 12.989793,22.607889 12.9632259,22.6051782 L16.033102,16.3712923 C17.5019276,15.9625672 18.6730183,15.7487169 19.7775386,15.7309462 C21.3123239,15.7059468 22.8791731,16.0541312 25.1187504,16.7700778 L25.2537236,16.8071251 C27.3384788,17.3095227 28.9722038,16.822185 30.7683851,16.2869569 C32.8916169,15.6538397 36.2109795,14.9915062 39.9673255,17.2357293 L40,13.5770825 C34.8890365,11.1193104 32.4509692,12.1985012 29.656536,13.0319149 C28.4017742,13.4060023 27.2578613,13.7469579 26.2211331,13.5225657 C23.6236631,12.6957784 21.7300689,11.9195923 19.7173808,11.9524228 C19.147562,11.9614588 18.6024781,12.0729019 18.0714411,12.2322354 L24.0414081,0.108129925 L16.4871859,0 L11.5612761,13.3728705 C10.5611922,13.1626346 9.54034308,12.8777017 8.75859805,12.6924652 C5.58642329,11.9394713 3.64030567,11.582251 0,14.030686 L0.00580201391,17.1574179 C2.24812771,15.6490205 5.72750384,15.3749307 8.06235638,15.9291342 C8.84471215,16.1146719 9.59836322,16.3806294 10.3694203,16.6089371 L8.51705105,21.6380328 C5.48748368,20.926303 3.54564124,20.6479964 0,23.0328787 L0.00580201391,26.1596106 C2.03162098,24.7969928 5.06424204,24.4439893 7.35328921,24.7969928 L5.4288528,30.0215657 L20.2939178,24.7406689 C21.6708273,24.7921737 23.1292704,25.1364425 25.1187504,25.7722705 L25.2537236,25.8093178 C26.0287505,25.9960603 26.7411767,26.0457579 27.4230661,26.0075058 L25.9853881,31.4510494 C23.5088443,30.6534782 21.668079,29.9251825 19.7173808,29.9568083 C17.3080182,29.9956628 15.3298369,31.8311607 13.0450649,31.6176116 C11.6681553,31.4880967 9.94037667,30.9769644 8.75859805,30.6965495 C5.58642329,29.9435556 3.64030567,29.5866365 0,32.0353726 L0.00580201391,35.1621045 C2.24812771,33.6537071 5.72750384,33.3793162 8.06235638,33.9338209 C9.9025109,34.3702561 11.582652,35.2521626 13.7083267,35.0410231 L14.1138569,34.9596998 C16.5580316,34.1669478 18.2314545,33.7603311 19.7775386,33.7353317 C21.3095756,33.7106335 22.8742872,34.0576131 25.1083679,34.7711501 L21.0854347,50 L27.0132607,35.0205417 C28.326348,35.0178309 29.5075159,34.6672369 30.7683851,34.2913424 C32.8916169,33.6579239 36.2109795,32.9958917 39.9673255,35.2401147 L40,31.5814679 C34.8890365,29.123997 32.4509692,30.2031879 29.656536,31.0363003 C29.2442877,31.1594901 28.8451702,31.2763548 28.4564353,31.3736416 L30.8764858,25.2578251 C33.0036873,24.6349486 36.2729695,24.0307462 39.9673255,26.237922 L40,22.5792752 Z" id="Fill-1"></path>
            </g>
        </g>
    </g>
</svg>