<?xml version="1.0" encoding="UTF-8"?>
<svg width="41px" height="54px" viewBox="0 0 41 54" version="1.1" xmlns="http://www.w3.org/2000/svg" xmlns:xlink="http://www.w3.org/1999/xlink">
    <!-- Generator: Sketch 59.1 (86144) - https://sketch.com -->
    <title>Group 6</title>
    <desc>Created with Sketch.</desc>
    <defs>
        <linearGradient x1="50%" y1="0%" x2="50%" y2="100%" id="linearGradient-1">
            <stop stop-color="#F8B114" offset="0%"></stop>
            <stop stop-color="#F79B0B" offset="100%"></stop>
        </linearGradient>
        <linearGradient x1="50%" y1="0%" x2="50%" y2="100%" id="linearGradient-2">
            <stop stop-color="#F8B114" offset="0%"></stop>
            <stop stop-color="#F79B0B" offset="100%"></stop>
        </linearGradient>
    </defs>
    <g id="Top-Up-&amp;-Billing" stroke="none" stroke-width="1" fill="none" fill-rule="evenodd">
        <g id="Top-Up-&amp;-Billing---Top-Up-Info" transform="translate(-1025.000000, -558.000000)" fill-rule="nonzero">
            <g id="Group-6" transform="translate(1025.000000, 558.000000)">
                <g id="Group-2-Copy-2">
                    <g id="noun_Smartphone_221005">
                        <path d="M29.9609262,41.6053264 C29.2041733,41.6744093 28.4400732,41.6816179 27.680259,41.6299559 L27.680259,44.7308771 L2.28005495,44.7308771 L2.28005495,8.94893873 L27.680259,8.94893873 L27.680259,14.8588306 C28.439461,14.80837 29.203561,14.8155787 29.9609262,14.8834602 L29.9609262,3.83139768 C29.9609262,1.71625951 28.2117004,0 26.0516483,0 L3.9092779,0 C1.74983809,0 0,1.71625951 0,3.83139768 L0,50.160793 C0,52.2831398 1.74922583,54 3.9092779,54 L26.0522606,54 C28.2117004,54 29.9615385,52.2837405 29.9615385,50.160793 L29.9615385,41.6053264 L29.9609262,41.6053264 Z M12.2451931,49.1335603 C12.2451931,47.5470565 13.5584901,46.2555066 15.1760801,46.2555066 C16.7955068,46.2555066 18.104518,47.5470565 18.104518,49.1335603 C18.104518,50.7242691 16.7948946,52.0092111 15.1760801,52.0092111 C13.5584901,52.0092111 12.2451931,50.7242691 12.2451931,49.1335603 L12.2451931,49.1335603 Z M11.0206738,4.56547857 C11.0206738,4.03504205 11.4559904,3.60432519 11.9978402,3.60432519 L17.8571651,3.60432519 C18.3990149,3.60432519 18.835556,4.03504205 18.835556,4.56547857 C18.835556,5.0959151 18.3990149,5.52663196 17.8571651,5.52663196 L11.9978402,5.52663196 C11.4559904,5.52663196 11.0206738,5.0959151 11.0206738,4.56547857 Z" id="Shape" fill="url(#linearGradient-1)"></path>
                        <path d="M17.3461538,27.7944123 C17.3461538,21.2141146 22.6405947,15.8823529 29.1701515,15.8823529 C35.7020487,15.8823529 41,21.2141146 41,27.7944123 C41,34.3741207 35.7020487,39.7058824 29.1701515,39.7058824 C22.6400096,39.7058824 17.3461538,34.3741207 17.3461538,27.7944123 L17.3461538,27.7944123 Z M17.9698552,27.7944123 C17.9698552,21.5629269 22.9828698,16.5133969 29.1701515,16.5133969 C35.3591884,16.5133969 40.3757135,21.5629269 40.3757135,27.7944123 C40.3757135,34.0264868 35.3591884,39.0754276 29.1701515,39.0754276 C22.9828698,39.0754276 17.9698552,34.0264868 17.9698552,27.7944123 L17.9698552,27.7944123 Z" id="Shape" fill="url(#linearGradient-2)"></path>
                    </g>
                </g>
                <g id="noun_Loop_4994" transform="translate(22.000000, 20.000000)" fill="#FFFFFF">
                    <path d="M12.8581925,7.5 C12.8526819,10.4583673 10.4592212,12.8522449 7.50061229,12.8571429 C5.96069067,12.8571429 4.5811903,12.2069388 3.60335538,11.1661224 L4.86958119,10.2826531 L0.0318393338,8.0155102 L0.487386725,13.3389796 L1.8301494,12.4028571 C3.20413911,13.9910204 5.23573353,15 7.5,15 C11.6440118,15 15,11.6436735 15,7.5 L12.8581925,7.5 Z M7.50061229,2.14346939 C9.04175851,2.14346939 10.4206466,2.7955102 11.3990938,3.83571429 L10.132868,4.71918367 L14.9706098,6.98510204 L14.5138379,1.66285714 L13.1722998,2.59897959 C11.7970855,1.01081633 9.76671565,0 7.50061229,0 C3.35843742,0.000612244898 0.000612294881,3.35816327 0,7.5 L2.14364438,7.5 C2.14854274,4.5422449 4.54261572,2.14836735 7.50061229,2.14346939 Z" id="Shape"></path>
                </g>
            </g>
        </g>
    </g>
</svg>