<?xml version="1.0" encoding="UTF-8"?>
<svg width="37px" height="49px" viewBox="0 0 37 49" version="1.1" xmlns="http://www.w3.org/2000/svg" xmlns:xlink="http://www.w3.org/1999/xlink">
    <!-- Generator: Sketch 59.1 (86144) - https://sketch.com -->
    <title>Group 2</title>
    <desc>Created with Sketch.</desc>
    <defs>
        <linearGradient x1="50%" y1="0%" x2="50%" y2="100%" id="linearGradient-1">
            <stop stop-color="#F8B114" offset="0%"></stop>
            <stop stop-color="#F79B0B" offset="100%"></stop>
        </linearGradient>
        <linearGradient x1="50%" y1="0%" x2="50%" y2="100%" id="linearGradient-2">
            <stop stop-color="#F8B114" offset="0%"></stop>
            <stop stop-color="#F79B0B" offset="100%"></stop>
        </linearGradient>
    </defs>
    <g id="Top-Up-&amp;-Billing" stroke="none" stroke-width="1" fill="none" fill-rule="evenodd">
        <g id="Top-Up-&amp;-Billing---Top-Up-Info" transform="translate(-367.000000, -558.000000)">
            <g id="Group-2" transform="translate(367.000000, 558.000000)">
                <g id="noun_Smartphone_221005" fill-rule="nonzero">
                    <path d="M27.037909,37.7529814 C26.3549856,37.8156677 25.6654319,37.8222089 24.9797459,37.7753304 L24.9797459,40.5891292 L2.05761057,40.5891292 L2.05761057,8.12033329 L24.9797459,8.12033329 L24.9797459,13.4830129 C25.6648794,13.4372247 26.3544331,13.4437659 27.037909,13.505362 L27.037909,3.47663863 C27.037909,1.55734659 25.4593394,0 23.5100241,0 L3.52788493,0 C1.57912218,0 0,1.55734659 0,3.47663863 L0,45.5162751 C0,47.4421083 1.57856965,49 3.52788493,49 L23.5105766,49 C25.4593394,49 27.0384615,47.4426534 27.0384615,45.5162751 L27.0384615,37.7529814 L27.037909,37.7529814 Z M11.0505401,44.5841565 C11.0505401,43.1445512 12.2357105,41.9725893 13.6954869,41.9725893 C15.1569208,41.9725893 16.3382236,43.1445512 16.3382236,44.5841565 C16.3382236,46.0275775 15.1563683,47.1935434 13.6954869,47.1935434 C12.2357105,47.1935434 11.0505401,46.0275775 11.0505401,44.5841565 L11.0505401,44.5841565 Z M9.9454861,4.14274908 C9.9454861,3.66142705 10.3383328,3.27059138 10.8273192,3.27059138 L16.1150026,3.27059138 C16.603989,3.27059138 16.9979408,3.66142705 16.9979408,4.14274908 C16.9979408,4.62407111 16.603989,5.01490678 16.1150026,5.01490678 L10.8273192,5.01490678 C10.3383328,5.01490678 9.9454861,4.62407111 9.9454861,4.14274908 Z" id="Shape" fill="url(#linearGradient-1)"></path>
                    <path d="M15.6538462,25.2208556 C15.6538462,19.2498447 20.4317562,14.4117647 26.3242831,14.4117647 C32.218922,14.4117647 37,19.2498447 37,25.2208556 C37,31.1913318 32.218922,36.0294118 26.3242831,36.0294118 C20.4312282,36.0294118 15.6538462,31.1913318 15.6538462,25.2208556 L15.6538462,25.2208556 Z M16.2166986,25.2208556 C16.2166986,19.5663596 20.7406386,14.9843787 26.3242831,14.9843787 C31.9095115,14.9843787 36.4366195,19.5663596 36.4366195,25.2208556 C36.4366195,30.8758862 31.9095115,35.4573325 26.3242831,35.4573325 C20.7406386,35.4573325 16.2166986,30.8758862 16.2166986,25.2208556 L16.2166986,25.2208556 Z" id="Shape" fill="url(#linearGradient-2)"></path>
                </g>
                <g id="noun_Smartphone_1981548" transform="translate(17.000000, 19.000000)" fill="#FFFFFF">
                    <path d="M5.54199616,8.06278714 C4.7087322,9.25727412 3.04220426,8.2618683 3.66715224,7.06738132 C6.16694414,2.88667688 12.6247399,2.68759571 15.3328478,7.06738132 C15.9577957,8.2618683 14.2912678,9.25727412 13.4580038,8.06278714 C11.7914759,5.07656968 7.20852409,5.07656968 5.54199616,8.06278714 Z M2.00062431,6.0719755 C1.37567633,7.26646248 -0.499167591,6.27105666 0.125780383,5.07656968 C4.29210021,-1.69218989 14.7078998,-1.69218989 18.8742196,5.07656968 C19.4991676,6.27105666 17.6243237,7.26646248 16.9993757,6.0719755 C13.6663198,0.696784074 5.33368017,0.696784074 2.00062431,6.0719755 Z M9.45189211,7.86370597 C10.8841998,7.86370597 11.9072767,8.87481708 11.9072767,10.2903726 C11.9072767,11.7059282 10.8841998,12.9192615 9.45189211,12.9192615 C8.01958442,12.9192615 6.79189211,11.7059282 6.79189211,10.2903726 C6.79189211,8.87481708 8.01958442,7.86370597 9.45189211,7.86370597 Z" id="Shape"></path>
                </g>
            </g>
        </g>
    </g>
</svg>