<?xml version="1.0" encoding="UTF-8"?>
<svg width="58px" height="54px" viewBox="0 0 58 54" version="1.1" xmlns="http://www.w3.org/2000/svg" xmlns:xlink="http://www.w3.org/1999/xlink">
    <!-- Generator: Sketch 59.1 (86144) - https://sketch.com -->
    <title>Group 9</title>
    <desc>Created with Sketch.</desc>
    <defs>
        <linearGradient x1="50%" y1="0%" x2="50%" y2="100%" id="linearGradient-1">
            <stop stop-color="#F9B114" offset="0%"></stop>
            <stop stop-color="#F79B0B" offset="100%"></stop>
        </linearGradient>
        <linearGradient x1="50%" y1="0%" x2="50%" y2="100%" id="linearGradient-2">
            <stop stop-color="#F9B114" offset="0%"></stop>
            <stop stop-color="#F79B0B" offset="100%"></stop>
        </linearGradient>
        <linearGradient x1="50%" y1="0%" x2="50%" y2="100%" id="linearGradient-3">
            <stop stop-color="#F9B114" offset="0%"></stop>
            <stop stop-color="#F79B0B" offset="100%"></stop>
        </linearGradient>
    </defs>
    <g id="Top-Up-&amp;-Billing" stroke="none" stroke-width="1" fill="none" fill-rule="evenodd">
        <g id="Top-Up-&amp;-Billing---Top-Up-Info" transform="translate(-1166.000000, -558.000000)">
            <g id="Group-9" transform="translate(1166.000000, 558.000000)">
                <g id="Group-3">
                    <path d="M11.7048425,20.6053959 C11.6143146,16.182622 11.6793703,11.8025477 13.9553621,7.81444683 C14.3282363,7.16123789 14.7314858,6.50083237 15.240092,5.9558119 C16.1299435,5.00238591 17.0516054,5.15123503 17.7157951,6.26214603 C18.2196177,7.10474479 18.4181332,8.03478191 18.4712301,9.00140162 C18.5574528,10.5751722 18.6160507,12.1508619 18.7264301,13.7229533 C18.7594363,14.1916901 18.8669456,14.6756596 19.0453703,15.1091332 C19.3714858,15.901116 20.2235476,16.1499975 20.8516219,15.5853064 C21.4036384,15.0889828 21.953861,14.5076196 22.2749538,13.8508124 C23.7267476,10.8806667 25.0973414,7.8705801 26.4962775,4.87428691 C26.858628,4.09825645 27.2109332,3.31742827 27.5792631,2.5441565 C28.0104961,1.63906749 28.6316342,0.904897097 29.5280631,0.426085102 C30.9077456,-0.310963922 32.3241414,0.304942789 32.4358363,1.84668862 C32.5368878,3.24270386 32.4273456,4.67074384 32.2584878,6.0662793 C31.9207724,8.85579096 31.4682528,11.6310294 31.0908342,14.4159832 C31.0334322,14.8404611 31.069428,15.2972036 31.1609126,15.7173635 C31.2929373,16.3234349 31.8877662,16.6685106 32.4510239,16.3819671 C33.0558981,16.0743136 33.6361373,15.6486363 34.1074322,15.1587895 C36.0839765,13.1050075 38.0039559,10.9966515 39.968661,8.93111509 C41.0250981,7.82056392 42.0822528,6.70209653 43.2273043,5.68713984 C44.2293291,4.79908272 45.4006899,4.1378376 46.7477249,3.88044017 C47.7156672,3.6953683 48.4483806,4.13927692 48.7041786,5.08622599 C49.018694,6.25111128 48.7694734,7.35602513 48.1836136,8.36762342 C47.3652755,9.78067054 46.5063971,11.1715282 45.628026,12.5483526 C44.5668054,14.2118405 43.4255806,15.8251922 42.3989208,17.5091903 C41.6957456,18.6624411 41.1169414,19.8931751 40.5080012,21.1021993 C40.2898734,21.5350732 40.1464878,22.0202422 40.5058487,22.455395 C40.840694,22.860682 41.3048136,22.8454492 41.7728796,22.7488952 C43.1484961,22.4649904 44.4301167,21.9636291 45.6324507,21.2201032 C48.1097085,19.6877129 50.7106198,18.3864525 53.473094,17.4661308 C54.3539765,17.1725106 55.3475105,17.1122993 56.2867518,17.1266924 C57.6018569,17.1468428 58.2143847,18.1548428 57.8015682,19.4170018 C57.4772466,20.4085696 56.8705786,21.2073892 56.1329621,21.930285 C52.647461,25.3460185 48.7776054,28.274304 44.792826,31.071612 C43.4312012,32.0274368 42.2377167,33.2239871 40.9680548,34.3113892 C40.9228507,34.3500109 40.8839847,34.3963088 40.8430858,34.439968 C39.4244177,35.9572455 39.7586652,37.3142793 41.7706074,37.8195987 C42.8781085,38.0975063 44.0473167,38.1398462 45.1921291,38.2529523 C46.7141208,38.4031208 48.2450816,38.4734073 49.7612136,38.6644763 C50.8029414,38.7956939 51.6514157,39.3867724 52.3414363,40.1674806 C53.0325332,40.9492683 53.0187806,41.7664392 52.2924054,42.5162022 C51.2658652,43.5760175 49.9557827,44.2015197 48.5772961,44.5912141 C44.1468136,45.8438976 39.6497208,46.0895406 35.1077827,45.2628942 C34.9913043,45.2416644 34.8769786,45.2078405 34.7676755,45.1813331 C38.0385167,37.8097634 37.3550734,30.9239623 31.7013291,25.0678709 C26.1341662,19.3012569 19.2535724,18.2491179 11.7048425,20.6053959" id="Fill-1" fill="url(#linearGradient-1)"></path>
                    <path d="M11.4589852,19.6982546 C11.8414215,21.4807924 12.2080946,23.1898672 12.5893183,24.9666979 C12.2062758,25.1689941 11.736779,25.3916899 11.2918967,25.6556706 C7.99596084,27.6109979 5.96846676,30.4572299 5.53946885,34.2873789 C4.99467303,39.1508656 7.79116223,43.7819424 12.3442633,45.7848688 C17.5339497,48.0679257 23.2497587,46.7669645 26.9411051,42.4547532 C27.1423873,42.2195505 27.2864375,42.1113597 27.6421978,42.2269575 C29.8603037,42.9481081 32.0924751,43.6256668 34.3196751,44.3185251 C34.4477197,44.3583529 34.5735817,44.4052235 34.753402,44.4670294 C33.8317476,46.1788971 32.6894103,47.6561692 31.302503,48.9356378 C27.2413309,52.6828527 22.4128612,54.3468784 16.9368932,53.9401004 C9.22475247,53.3670898 2.62027024,48.1545026 0.606962927,40.7290429 C-1.55063707,32.7716147 2.18436084,24.4295081 9.58366537,20.5778666 C10.2029114,20.2554798 10.8481058,19.9833635 11.4589852,19.6982546" id="Fill-4" fill="url(#linearGradient-2)"></path>
                    <path d="M27.6824882,42.5454545 C20.3393695,38.9584069 15.6918936,33.1670617 13.2571429,25.4421674 C14.5679196,24.8907564 15.9648101,24.6491393 17.398381,24.5649282 C22.2483277,24.2803487 26.9726866,27.1380162 28.8794586,31.614543 C30.5172008,35.4593646 29.9827848,39.102349 27.6824882,42.5454545" id="Fill-7" fill="url(#linearGradient-3)"></path>
                </g>
            </g>
        </g>
    </g>
</svg>