<?xml version="1.0" encoding="UTF-8"?>
<svg viewBox="0 0 25 25" version="1.1" xmlns="http://www.w3.org/2000/svg" xmlns:xlink="http://www.w3.org/1999/xlink">
    <!-- Generator: Sketch 59.1 (86144) - https://sketch.com -->
    <title>Group 26</title>
    <desc>Created with Sketch.</desc>
    <defs>
        <linearGradient x1="50%" y1="-93.1760217%" x2="50%" y2="91.7467272%" id="linearGradient-1">
            <stop stop-color="#FBCC20" offset="0%"></stop>
            <stop stop-color="#F69A0A" offset="100%"></stop>
        </linearGradient>
    </defs>
    <g id="Page-1" stroke="none" stroke-width="1" fill="none" fill-rule="evenodd">
        <g id="Artboard" transform="translate(-1138.000000, -396.000000)">
            <g id="Group-26" transform="translate(1138.000000, 396.000000)">
                <g id="Group-12">
                    <g id="Group-24-Copy-2" fill="url(#linearGradient-1)">
                        <path d="M12.5,0 C19.4035594,-1.26816328e-15 25,5.59644063 25,12.5 C25,19.4035594 19.4035594,25 12.5,25 C5.59644063,25 8.45442189e-16,19.4035594 0,12.5 C-8.45442189e-16,5.59644063 5.59644063,1.26816328e-15 12.5,0 Z" id="Rectangle-2-Copy-2"></path>
                    </g>
                    <g id="noun_payment_417165" transform="translate(5.000000, 8.000000)" fill="#FFFFFF" fill-rule="nonzero">
                        <path d="M12.4247788,4.13259869 C11.9646018,4.13259869 11.5752212,4.50825548 11.5752212,4.99124278 C11.5752212,5.45634167 11.9469027,5.84988688 12.4247788,5.84988688 C12.8849558,5.84988688 13.2743363,5.47423008 13.2743363,4.99124278 C13.2566372,4.5261439 12.8849558,4.13259869 12.4247788,4.13259869 Z M3.57522124,4.13259869 C3.11504425,4.13259869 2.72566372,4.50825548 2.72566372,4.99124278 C2.72566372,5.45634167 3.09734513,5.84988688 3.57522124,5.84988688 C4.03539823,5.84988688 4.42477876,5.47423008 4.42477876,4.99124278 C4.42477876,4.5261439 4.05309735,4.13259869 3.57522124,4.13259869 Z M16,1.39567063 L16,8.60470335 C16,9.37390535 15.380531,10 14.619469,10 L1.38053097,10 C0.619469027,10 0,9.37390535 0,8.60470335 L0,1.39567063 C0,0.626468632 0.619469027,0.000373979616 1.38053097,0.000373979616 L14.6017699,0.000373979616 C15.380531,-0.017514439 16,0.608580213 16,1.39567063 Z M14.8141593,2.8982978 C14.7079646,2.93407464 14.5840708,2.93407464 14.460177,2.93407464 C13.6814159,2.93407464 13.0619469,2.30797998 13.0619469,1.52088956 C13.0619469,1.39567063 13.079646,1.28834012 13.0973451,1.18100961 L2.81415929,1.18100961 C2.83185841,1.2704517 2.83185841,1.3598938 2.83185841,1.44933589 C2.83185841,2.23642631 2.19469027,2.86252096 1.43362832,2.86252096 C1.34513274,2.86252096 1.27433628,2.86252096 1.18584071,2.84463254 L1.18584071,7.13785302 C1.27433628,7.1199646 1.34513274,7.1199646 1.43362832,7.1199646 C2.21238938,7.1199646 2.83185841,7.74605925 2.83185841,8.53314967 C2.83185841,8.62259176 2.83185841,8.71203386 2.81415929,8.80147595 L13.079646,8.80147595 C13.079646,8.7478107 13.0619469,8.69414544 13.0619469,8.62259176 C13.0619469,7.83550134 13.699115,7.20940669 14.460177,7.20940669 C14.5840708,7.20940669 14.6902655,7.22729511 14.8141593,7.24518353 L14.8141593,2.8982978 L14.8141593,2.8982978 Z M11.0442478,4.99124278 C11.0442478,6.69064255 9.68141593,8.06805079 8,8.06805079 C6.31858407,8.06805079 4.95575221,6.69064255 4.95575221,4.99124278 C4.95575221,3.29184301 6.31858407,1.91443477 8,1.91443477 C9.68141593,1.91443477 11.0442478,3.29184301 11.0442478,4.99124278 Z M9.7699115,4.99124278 C9.7699115,4.00737976 8.97345133,3.22028934 8.01769912,3.22028934 C7.04424779,3.22028934 6.26548673,4.02526817 6.26548673,4.99124278 C6.26548673,5.95721739 7.0619469,6.76219623 8.01769912,6.76219623 C8.97345133,6.76219623 9.7699115,5.97510581 9.7699115,4.99124278 Z" id="Shape"></path>
                    </g>
                </g>
            </g>
        </g>
    </g>
</svg>