<?xml version="1.0" encoding="UTF-8"?>
<svg width="14px" height="12px" viewBox="0 0 14 12" version="1.1" xmlns="http://www.w3.org/2000/svg" xmlns:xlink="http://www.w3.org/1999/xlink">
    <!-- Generator: Sketch 59.1 (86144) - https://sketch.com -->
    <title>noun_Calendar_2080651</title>
    <desc>Created with Sketch.</desc>
    <g id="Page-1" stroke="none" stroke-width="1" fill="none" fill-rule="evenodd">
        <g id="Artboard" transform="translate(-311.000000, -575.000000)" fill="#A1A1A1" fill-rule="nonzero">
            <g id="noun_Calendar_2080651" transform="translate(311.000000, 575.000000)">
                <g id="Group">
                    <path d="M12.3229167,0.733333333 L10.3979167,0.733333333 L10.3979167,0.506666667 C10.3979167,0.24 10.1645833,0.0133333333 9.85833333,0.0133333333 C9.55208333,0.0133333333 9.33333333,0.24 9.33333333,0.506666667 L9.33333333,0.733333333 L4.66666667,0.733333333 L4.66666667,0.506666667 C4.66666667,0.24 4.43333333,0.0133333333 4.12708333,0.0133333333 C3.82083333,0.0133333333 3.5875,0.226666667 3.5875,0.506666667 L3.5875,0.733333333 L1.67708333,0.733333333 C0.802083333,0.733333333 0.0729166667,1.38666667 0.0729166667,2.2 L0.0729166667,10.52 C0.0729166667,11.32 0.7875,11.9866667 1.67708333,11.9866667 L12.3375,11.9866667 C13.2125,11.9866667 13.9416667,11.3333333 13.9416667,10.52 L13.9416667,2.2 C13.9270833,1.4 13.2125,0.733333333 12.3229167,0.733333333 Z M1.67708333,1.72 L3.60208333,1.72 L3.60208333,1.94666667 C3.60208333,2.21333333 3.83541667,2.44 4.14166667,2.44 C4.44791667,2.44 4.68125,2.22666667 4.68125,1.94666667 L4.68125,1.72 L9.34791667,1.72 L9.34791667,1.94666667 C9.34791667,2.21333333 9.58125,2.44 9.8875,2.44 C10.19375,2.44 10.4270833,2.22666667 10.4270833,1.94666667 L10.4270833,1.72 L12.3520833,1.72 C12.64375,1.72 12.8916667,1.93333333 12.8916667,2.21333333 L12.8916667,3.2 L1.1375,3.2 L1.1375,2.21333333 C1.1375,1.93333333 1.37083333,1.72 1.67708333,1.72 Z M12.3229167,11 L1.67708333,11 C1.38541667,11 1.1375,10.7866667 1.1375,10.5066667 L1.1375,4.16 L12.8625,4.16 L12.8625,10.52 C12.8625,10.7866667 12.6291667,11 12.3229167,11 Z" id="Shape"></path>
                    <path d="M4.17083333,5.14666667 L2.77083333,5.14666667 C2.47916667,5.14666667 2.23125,5.36 2.23125,5.64 C2.23125,5.90666667 2.46458333,6.13333333 2.77083333,6.13333333 L4.18541667,6.13333333 C4.47708333,6.13333333 4.725,5.92 4.725,5.64 C4.71041667,5.36 4.47708333,5.14666667 4.17083333,5.14666667 Z" id="Path"></path>
                    <path d="M7.7,5.14666667 L6.28541667,5.14666667 C5.99375,5.14666667 5.74583333,5.36 5.74583333,5.64 C5.74583333,5.90666667 5.97916667,6.13333333 6.28541667,6.13333333 L7.7,6.13333333 C7.99166667,6.13333333 8.23958333,5.92 8.23958333,5.64 C8.23958333,5.36 8.00625,5.14666667 7.7,5.14666667 Z" id="Path"></path>
                    <path d="M11.2291667,5.14666667 L9.81458333,5.14666667 C9.52291667,5.14666667 9.275,5.36 9.275,5.64 C9.275,5.90666667 9.50833333,6.13333333 9.81458333,6.13333333 L11.2291667,6.13333333 C11.5208333,6.13333333 11.76875,5.92 11.76875,5.64 C11.76875,5.36 11.5354167,5.14666667 11.2291667,5.14666667 Z" id="Path"></path>
                    <path d="M4.17083333,7.09333333 L2.77083333,7.09333333 C2.47916667,7.09333333 2.23125,7.30666667 2.23125,7.58666667 C2.23125,7.85333333 2.46458333,8.08 2.77083333,8.08 L4.18541667,8.08 C4.47708333,8.08 4.725,7.86666667 4.725,7.58666667 C4.71041667,7.32 4.47708333,7.09333333 4.17083333,7.09333333 Z" id="Path"></path>
                    <path d="M7.7,7.09333333 L6.28541667,7.09333333 C5.99375,7.09333333 5.74583333,7.30666667 5.74583333,7.58666667 C5.74583333,7.85333333 5.97916667,8.08 6.28541667,8.08 L7.7,8.08 C7.99166667,8.08 8.23958333,7.86666667 8.23958333,7.58666667 C8.23958333,7.32 8.00625,7.09333333 7.7,7.09333333 Z" id="Path"></path>
                    <path d="M11.2291667,7.09333333 L9.81458333,7.09333333 C9.52291667,7.09333333 9.275,7.30666667 9.275,7.58666667 C9.275,7.85333333 9.50833333,8.08 9.81458333,8.08 L11.2291667,8.08 C11.5208333,8.08 11.76875,7.86666667 11.76875,7.58666667 C11.76875,7.32 11.5354167,7.09333333 11.2291667,7.09333333 Z" id="Path"></path>
                    <path d="M4.17083333,9.05333333 L2.77083333,9.05333333 C2.47916667,9.05333333 2.23125,9.26666667 2.23125,9.54666667 C2.23125,9.82666667 2.46458333,10.04 2.77083333,10.04 L4.18541667,10.04 C4.47708333,10.04 4.725,9.82666667 4.725,9.54666667 C4.725,9.26666667 4.47708333,9.05333333 4.17083333,9.05333333 Z" id="Path"></path>
                    <path d="M7.7,9.05333333 L6.28541667,9.05333333 C5.99375,9.05333333 5.74583333,9.26666667 5.74583333,9.54666667 C5.74583333,9.82666667 5.97916667,10.04 6.28541667,10.04 L7.7,10.04 C7.99166667,10.04 8.23958333,9.82666667 8.23958333,9.54666667 C8.23958333,9.26666667 8.00625,9.05333333 7.7,9.05333333 Z" id="Path"></path>
                    <path d="M11.2291667,9.05333333 L9.81458333,9.05333333 C9.52291667,9.05333333 9.275,9.26666667 9.275,9.54666667 C9.275,9.82666667 9.50833333,10.04 9.81458333,10.04 L11.2291667,10.04 C11.5208333,10.04 11.76875,9.82666667 11.76875,9.54666667 C11.76875,9.26666667 11.5354167,9.05333333 11.2291667,9.05333333 Z" id="Path"></path>
                </g>
            </g>
        </g>
    </g>
</svg>