<?xml version="1.0" encoding="UTF-8"?>
<svg viewBox="0 0 29 15" version="1.1" xmlns="http://www.w3.org/2000/svg" xmlns:xlink="http://www.w3.org/1999/xlink">
    <!-- Generator: Sketch 59.1 (86144) - https://sketch.com -->
    <title>Group</title>
    <desc>Created with Sketch.</desc>
    <defs>
        <linearGradient x1="50%" y1="0%" x2="50%" y2="100%" id="linearGradient-1">
            <stop stop-color="#FBCC20" offset="0%"></stop>
            <stop stop-color="#F69A0A" offset="100%"></stop>
        </linearGradient>
        <linearGradient x1="50%" y1="0%" x2="50%" y2="100%" id="linearGradient-2">
            <stop stop-color="#FBCA1F" offset="0%"></stop>
            <stop stop-color="#F69D0B" offset="100%"></stop>
        </linearGradient>
        <linearGradient x1="50%" y1="0%" x2="50%" y2="100%" id="linearGradient-3">
            <stop stop-color="#FBCA1F" offset="0%"></stop>
            <stop stop-color="#F69D0B" offset="100%"></stop>
        </linearGradient>
        <linearGradient x1="50%" y1="0%" x2="50%" y2="100%" id="linearGradient-4">
            <stop stop-color="#FBCA1F" offset="0%"></stop>
            <stop stop-color="#F69D0B" offset="100%"></stop>
        </linearGradient>
    </defs>
    <g id="Page-1" stroke="none" stroke-width="1" fill="none" fill-rule="evenodd">
        <g id="Artboard" transform="translate(-380.000000, -121.000000)" fill-rule="nonzero">
            <g id="Group" transform="translate(380.000000, 121.000000)">
                <path d="M28.2750502,7.40546218 L26.2638194,6.99579832 L25.321055,4.12815126 C24.9753748,3.1197479 24.0326103,2.42647059 22.964144,2.42647059 L21.3614445,2.42647059 L21.3614445,0.945378151 C21.3614445,0.409663866 20.9214878,0 20.4186801,0 L7.94276441,0 C7.40853124,0 7,0.441176471 7,0.945378151 L7,11.3445378 C7,11.8802521 7.43995672,12.289916 7.94276441,12.289916 L8.97980526,12.289916 C8.97980526,13.802521 10.205399,15 11.6823966,15 C13.1593941,15 14.3849879,13.7710084 14.3849879,12.289916 L21.6128484,12.289916 C21.6128484,13.802521 22.8384421,15 24.3154397,15 C25.8238627,15 27.018031,13.7710084 27.018031,12.289916 L28.0550718,12.289916 C28.589305,12.289916 28.9978362,11.8487395 28.9978362,11.3445378 L28.9978362,8.31932773 C29.0292617,7.87815126 28.7150069,7.5 28.2750502,7.40546218 Z M11.6823966,13.5819328 C10.991036,13.5819328 10.3939519,13.0147059 10.3939519,12.289916 C10.3939519,11.5966387 10.9596105,10.9978992 11.6823966,10.9978992 C12.4051826,10.9978992 12.9708413,11.5651261 12.9708413,12.289916 C12.9708413,13.0147059 12.4051826,13.5819328 11.6823966,13.5819328 Z M21.3614445,6.74369748 L21.3614445,3.84453782 L22.964144,3.84453782 C23.4041007,3.84453782 23.812632,4.12815126 23.9697594,4.56932773 L24.6925454,6.74369748 L21.3614445,6.74369748 Z M24.3468651,13.5819328 C23.6555046,13.5819328 23.0584205,13.0147059 23.0584205,12.289916 C23.0584205,11.5966387 23.6240791,10.9978992 24.3468651,10.9978992 C25.0382257,10.9978992 25.6353098,11.5651261 25.6353098,12.289916 C25.6038844,13.0147059 25.0382257,13.5819328 24.3468651,13.5819328 Z" id="Shape" fill="url(#linearGradient-1)"></path>
                <path d="M5.28,2 L0.72,2 C0.33,2 0,2.45833333 0,3 C0,3.54166667 0.33,4 0.72,4 L5.28,4 C5.67,4 6,3.54166667 6,3 C6,2.45833333 5.7,2 5.28,2 Z" id="Path" fill="url(#linearGradient-2)"></path>
                <path d="M5.4,5 L1.6,5 C1.275,5 1,5.45833333 1,6 C1,6.54166667 1.275,7 1.6,7 L5.4,7 C5.725,7 6,6.54166667 6,6 C6,5.45833333 5.75,5 5.4,5 Z" id="Path-Copy" fill="url(#linearGradient-3)"></path>
                <path d="M5.52,8 L2.48,8 C2.22,8 2,8.45833333 2,9 C2,9.54166667 2.22,10 2.48,10 L5.52,10 C5.78,10 6,9.54166667 6,9 C6,8.45833333 5.8,8 5.52,8 Z" id="Path-Copy-2" fill="url(#linearGradient-4)"></path>
            </g>
        </g>
    </g>
</svg>