<?xml version="1.0" encoding="UTF-8"?>
<svg viewBox="0 0 25 25" version="1.1" xmlns="http://www.w3.org/2000/svg" xmlns:xlink="http://www.w3.org/1999/xlink">
    <!-- Generator: Sketch 59.1 (86144) - https://sketch.com -->
    <title>Group 30</title>
    <desc>Created with Sketch.</desc>
    <defs>
        <linearGradient x1="50%" y1="-93.1760217%" x2="50%" y2="91.7467272%" id="linearGradient-1">
            <stop stop-color="#FBCC20" offset="0%"></stop>
            <stop stop-color="#F69A0A" offset="100%"></stop>
        </linearGradient>
    </defs>
    <g id="Page-1" stroke="none" stroke-width="1" fill="none" fill-rule="evenodd">
        <g id="Artboard" transform="translate(-1138.000000, -723.000000)">
            <g id="Group-30" transform="translate(1138.000000, 723.000000)">
                <g id="Group-6">
                    <g id="Group-18" fill="url(#linearGradient-1)">
                        <g id="Group-24-Copy-5">
                            <path d="M12.5,0 C19.4035594,-1.26816328e-15 25,5.59644063 25,12.5 C25,19.4035594 19.4035594,25 12.5,25 C5.59644063,25 8.45442189e-16,19.4035594 0,12.5 C-8.45442189e-16,5.59644063 5.59644063,1.26816328e-15 12.5,0 Z" id="Rectangle-2-Copy-2"></path>
                        </g>
                    </g>
                    <g id="noun_help_2094880" transform="translate(7.000000, 6.000000)" fill="#FFFFFF" fill-rule="nonzero">
                        <path d="M6.45692533,10.8444763 L3.9769642,10.8444763 C3.62421342,10.8460142 3.33888495,11.1161115 3.33807403,11.4492616 L3.33807403,13.3952146 C3.33888495,13.7283648 3.62421342,13.9984621 3.9769642,14 L6.45692533,14 C6.81025514,13.9992302 7.09648277,13.728909 7.09729784,13.3952146 L7.09729784,11.4492616 C7.09648277,11.1155673 6.81025514,10.845246 6.45692533,10.8444763 L6.45692533,10.8444763 Z M10.9943796,4.26463528 C10.9395329,3.17266167 10.3806893,2.27948326 9.5579885,1.54030112 C8.04155082,0.192133702 6.24050314,-0.24885564 4.19783342,0.130535191 C2.40271511,0.466527071 1.10418197,1.44650339 0.162893671,2.8898685 C-0.0861400825,3.2706593 -0.0594578946,3.40785599 0.311128049,3.66824969 L2.12996386,4.94361887 C2.40271511,5.13401427 2.5954198,5.10601495 2.81777137,4.86102087 C3.1305459,4.51802916 3.43590872,4.16103778 3.7738831,3.84744536 C4.57142248,3.11877126 5.81086647,3.04405435 6.70002971,3.67104963 C7.37449613,4.15403795 7.40117831,4.99681758 6.73857065,5.49940544 C6.4932859,5.66352196 6.23622115,5.81134116 5.96923423,5.94179475 C5.64015391,6.12519031 5.29476781,6.28338649 4.98792265,6.49338142 C3.95028201,7.1933645 3.25209809,8.07534318 3.38995606,9.37031189 C3.428497,9.72030343 3.56190794,9.87429971 3.93545857,9.87709964 C4.38905577,9.87709964 4.84265296,9.87709964 5.29625016,9.87709964 L6.68520627,9.87709964 C6.93720471,9.87709964 7.1299094,9.78190194 7.16993269,9.53690786 C7.28259081,8.82572505 7.76287019,8.38053581 8.3558077,8.01654461 C8.70712318,7.80514971 9.07770912,7.62035418 9.41716585,7.3921597 C10.5585706,6.63197807 11.0596027,5.56660381 10.9943796,4.27023514 L10.9943796,4.26463528 Z" id="Shape"></path>
                    </g>
                </g>
            </g>
        </g>
    </g>
</svg>