<?xml version="1.0" encoding="utf-8"?>
<svg width="27px" height="27px" viewBox="0 0 27 27" version="1.1" xmlns:xlink="http://www.w3.org/1999/xlink" xmlns="http://www.w3.org/2000/svg">
  <desc>Created with Lunacy</desc>
  <defs>
    <linearGradient x1="0.5" y1="-0.9317602" x2="0.5" y2="0.9174673" id="gradient_1">
      <stop offset="0" stop-color="#FBCC20" />
      <stop offset="1" stop-color="#F69A0A" />
    </linearGradient>
    <path d="M0 0L25.9615 0L25.9615 25.9615L0 25.9615L0 0L0 0Z" id="path_1" />
    <clipPath id="mask_1">
      <use xlink:href="#path_1" />
    </clipPath>
  </defs>
  <g id="svg-29" transform="translate(0.25 0.25)">
    <g id="Icon-CT-Cash">
      <g id="Group">
        <path d="M0 0L25.9615 0L25.9615 25.9615L0 25.9615L0 0L0 0Z" fill-opacity="0" />
        <g clip-path="url(#mask_1)">
          <g id="Group-6">
            <g id="Group-18">
              <g id="Group-24-Copy-5">
                <path d="M12.9797 0L12.9818 0C13.1942 0 13.4065 0.00521155 13.6187 0.0156347C13.8309 0.0260578 14.0427 0.0416799 14.254 0.0625009C14.4655 0.083322 14.6763 0.109317 14.8863 0.140486C15.0964 0.171656 15.3057 0.20796 15.514 0.249402C15.7224 0.290844 15.9296 0.337371 16.1356 0.388986C16.3416 0.440601 16.5463 0.49724 16.7497 0.558903C16.9529 0.620566 17.1546 0.687179 17.3546 0.758743C17.5546 0.830306 17.7527 0.906733 17.949 0.988023C18.1451 1.06931 18.3393 1.15537 18.5313 1.2462C18.7234 1.33702 18.9131 1.4325 19.1004 1.53263C19.2878 1.63277 19.4725 1.73744 19.6548 1.84664C19.8369 1.95585 20.0163 2.06946 20.193 2.18748C20.3696 2.3055 20.5432 2.42778 20.7138 2.55431C20.8844 2.68085 21.0519 2.8115 21.2161 2.94626C21.3803 3.08102 21.5411 3.21973 21.6984 3.36238C21.8559 3.50504 22.0097 3.65147 22.1598 3.80167C22.3101 3.95189 22.4565 4.10568 22.5991 4.26307C22.7418 4.42047 22.8805 4.58127 23.0153 4.74548C23.15 4.90968 23.2806 5.07709 23.4072 5.24771C23.5338 5.41833 23.656 5.59195 23.774 5.76858C23.8921 5.9452 24.0057 6.12462 24.1148 6.30682C24.2241 6.48901 24.3288 6.67379 24.4289 6.86112C24.5291 7.04846 24.6245 7.23815 24.7154 7.43018C24.8061 7.6222 24.8922 7.81634 24.9735 8.0126C25.0549 8.20886 25.1313 8.40699 25.2028 8.60699C25.2744 8.80699 25.341 9.00863 25.4026 9.21191C25.4643 9.41519 25.5209 9.61985 25.5725 9.82591C25.6241 10.032 25.6707 10.2392 25.7121 10.4475C25.7535 10.6559 25.7899 10.8651 25.821 11.0752C25.8522 11.2853 25.8782 11.4961 25.899 11.7075C25.9199 11.9188 25.9355 12.1307 25.9459 12.3428C25.9563 12.555 25.9615 12.7674 25.9615 12.9797C25.9615 12.9797 25.9615 12.9818 25.9615 12.9818C25.9615 13.1942 25.9563 13.4065 25.9459 13.6187C25.9355 13.8309 25.9199 14.0427 25.899 14.254C25.8782 14.4655 25.8522 14.6763 25.821 14.8863C25.7899 15.0964 25.7535 15.3057 25.7121 15.514C25.6707 15.7224 25.6241 15.9296 25.5725 16.1356C25.5209 16.3416 25.4643 16.5463 25.4026 16.7497C25.341 16.9529 25.2744 17.1546 25.2028 17.3546C25.1313 17.5546 25.0549 17.7527 24.9735 17.949C24.8922 18.1451 24.8061 18.3393 24.7154 18.5313C24.6245 18.7234 24.5291 18.9131 24.4289 19.1004C24.3288 19.2878 24.2241 19.4725 24.1148 19.6548C24.0057 19.8369 23.8921 20.0163 23.774 20.193C23.656 20.3696 23.5338 20.5432 23.4072 20.7138C23.2806 20.8844 23.15 21.0519 23.0153 21.2161C22.8805 21.3803 22.7418 21.5411 22.5991 21.6984C22.4565 21.8559 22.3101 22.0097 22.1598 22.1598C22.0097 22.3101 21.8559 22.4565 21.6984 22.5991C21.5411 22.7418 21.3803 22.8805 21.2161 23.0153C21.0519 23.15 20.8844 23.2806 20.7138 23.4072C20.5432 23.5338 20.3696 23.656 20.193 23.774C20.0163 23.8921 19.8369 24.0057 19.6548 24.1148C19.4725 24.2241 19.2878 24.3288 19.1004 24.4289C18.9131 24.5291 18.7234 24.6245 18.5313 24.7154C18.3393 24.8061 18.1451 24.8922 17.949 24.9735C17.7527 25.0549 17.5546 25.1313 17.3546 25.2028C17.1546 25.2744 16.9529 25.341 16.7497 25.4026C16.5463 25.4643 16.3416 25.5209 16.1356 25.5725C15.9296 25.6241 15.7224 25.6707 15.514 25.7121C15.3057 25.7535 15.0964 25.7899 14.8863 25.821C14.6763 25.8522 14.4655 25.8782 14.254 25.899C14.0427 25.9199 13.8309 25.9355 13.6187 25.9459C13.4065 25.9563 13.1942 25.9615 12.9818 25.9615C12.9818 25.9615 12.9797 25.9615 12.9797 25.9615C12.7674 25.9615 12.555 25.9563 12.3428 25.9459C12.1307 25.9355 11.9188 25.9199 11.7075 25.899C11.4961 25.8782 11.2853 25.8522 11.0752 25.821C10.8651 25.7899 10.6559 25.7535 10.4475 25.7121C10.2392 25.6707 10.032 25.6241 9.82591 25.5725C9.61985 25.5209 9.41519 25.4643 9.21191 25.4026C9.00863 25.341 8.80699 25.2744 8.60699 25.2028C8.40699 25.1313 8.20886 25.0549 8.0126 24.9735C7.81634 24.8922 7.6222 24.8061 7.43018 24.7154C7.23815 24.6245 7.04846 24.5291 6.86112 24.4289C6.67379 24.3288 6.48901 24.2241 6.30682 24.1148C6.12462 24.0057 5.9452 23.8921 5.76858 23.774C5.59195 23.656 5.41833 23.5338 5.24771 23.4072C5.07709 23.2806 4.90968 23.15 4.74548 23.0153C4.58127 22.8805 4.42047 22.7418 4.26307 22.5991C4.10568 22.4565 3.95189 22.3101 3.80167 22.1598C3.65147 22.0097 3.50504 21.8559 3.36238 21.6984C3.21973 21.5411 3.08102 21.3803 2.94626 21.2161C2.8115 21.0519 2.68085 20.8844 2.55431 20.7138C2.42778 20.5432 2.3055 20.3696 2.18748 20.193C2.06946 20.0163 1.95585 19.8369 1.84664 19.6548C1.73744 19.4725 1.63277 19.2878 1.53263 19.1004C1.4325 18.9131 1.33702 18.7234 1.2462 18.5313C1.15537 18.3393 1.06931 18.1451 0.988023 17.949C0.906733 17.7527 0.830306 17.5546 0.758743 17.3546C0.687179 17.1546 0.620566 16.9529 0.558903 16.7497C0.49724 16.5463 0.440601 16.3416 0.388986 16.1356C0.337371 15.9296 0.290844 15.7224 0.249402 15.514C0.20796 15.3057 0.171656 15.0964 0.140486 14.8863C0.109317 14.6763 0.083322 14.4655 0.0625009 14.254C0.0416799 14.0427 0.0260578 13.8309 0.0156347 13.6187C0.00521155 13.4065 0 13.1942 0 12.9818C0 12.9818 0 12.9797 0 12.9797C0 12.7674 0.00521155 12.555 0.0156347 12.3428C0.0260578 12.1307 0.0416799 11.9188 0.0625009 11.7075C0.083322 11.4961 0.109317 11.2853 0.140486 11.0752C0.171656 10.8651 0.20796 10.6559 0.249402 10.4475C0.290844 10.2392 0.337371 10.032 0.388986 9.82591C0.440601 9.61985 0.49724 9.41519 0.558903 9.21191C0.620566 9.00863 0.687179 8.80699 0.758743 8.60699C0.830306 8.40699 0.906733 8.20886 0.988023 8.0126C1.06931 7.81634 1.15537 7.6222 1.2462 7.43018C1.33702 7.23815 1.4325 7.04846 1.53263 6.86112C1.63277 6.67379 1.73744 6.48901 1.84664 6.30682C1.95585 6.12462 2.06946 5.9452 2.18748 5.76858C2.3055 5.59195 2.42778 5.41833 2.55431 5.24771C2.68085 5.07709 2.8115 4.90968 2.94626 4.74548C3.08102 4.58127 3.21973 4.42047 3.36238 4.26307C3.50504 4.10568 3.65147 3.95189 3.80167 3.80167C3.95189 3.65147 4.10568 3.50504 4.26307 3.36238C4.42047 3.21973 4.58127 3.08102 4.74548 2.94626C4.90968 2.8115 5.07709 2.68085 5.24771 2.55431C5.41833 2.42778 5.59195 2.3055 5.76858 2.18748C5.9452 2.06946 6.12462 1.95585 6.30682 1.84664C6.48901 1.73744 6.67379 1.63277 6.86112 1.53263C7.04846 1.4325 7.23815 1.33702 7.43018 1.2462C7.6222 1.15537 7.81634 1.06931 8.0126 0.988023C8.20886 0.906733 8.40699 0.830306 8.60699 0.758743C8.80699 0.687179 9.00863 0.620566 9.21191 0.558903C9.41519 0.49724 9.61985 0.440601 9.82591 0.388986C10.032 0.337371 10.2392 0.290844 10.4475 0.249402C10.6559 0.20796 10.8651 0.171656 11.0752 0.140486C11.2853 0.109317 11.4961 0.083322 11.7075 0.0625009C11.9188 0.0416799 12.1307 0.0260578 12.3428 0.0156347C12.555 0.00521155 12.7674 0 12.9797 0C12.9797 0 12.9797 0 12.9797 0L12.9797 0Z" id="Rectangle-2-Copy-2" fill="url(#gradient_1)" stroke="none" />
              </g>
            </g>
          </g>
          <path d="M8.82726 0L11.5548 5.12755L17.6538 5.95036L13.2406 9.94143L14.283 15.5769L8.82726 12.9166L3.37151 15.5769L4.4133 9.94143L0 5.95036L6.09972 5.12755L8.82726 0L8.82726 0L8.82726 0Z" transform="translate(4.153846 4.153846)" id="Stroke-5" fill="#FFFFFF" stroke="#FB9E0D" stroke-width="0.5" stroke-linecap="round" stroke-linejoin="round" />
        </g>
      </g>
    </g>
  </g>
</svg>