<?xml version="1.0" encoding="utf-8"?>
<svg width="25px" height="25px" viewBox="0 0 25 25" version="1.1" xmlns:xlink="http://www.w3.org/1999/xlink" xmlns="http://www.w3.org/2000/svg">
  <desc>Created with Lunacy</desc>
  <defs>
    <linearGradient x1="0.5" y1="-0.9317602" x2="0.5" y2="0.9174673" id="gradient_1">
      <stop offset="0" stop-color="#FBCC20" />
      <stop offset="1" stop-color="#F69A0A" />
    </linearGradient>
    <path d="M0 0L25 0L25 25L0 25L0 0L0 0Z" id="path_1" />
    <clipPath id="mask_1">
      <use xlink:href="#path_1" />
    </clipPath>
  </defs>
  <g id="ic-myorder">
    <g id="svg-28">
      <g id="Icon-My-Orders">
        <g id="Group">
          <path d="M0 0L25 0L25 25L0 25L0 0L0 0Z" fill-opacity="0" />
          <g clip-path="url(#mask_1)">
            <g id="Group-6">
              <g id="Group-18">
                <g id="Group-24-Copy-5">
                  <path d="M12.499 0L12.501 0C12.7055 0 12.91 0.00501853 13.1143 0.0150556C13.3186 0.0250927 13.5226 0.0401362 13.7261 0.0601861C13.9297 0.080236 14.1327 0.105268 14.335 0.135283C14.5373 0.165298 14.7388 0.200258 14.9394 0.240165C15.1401 0.280072 15.3396 0.324876 15.538 0.374579C15.7364 0.424282 15.9335 0.478824 16.1293 0.538203C16.325 0.597582 16.5192 0.661728 16.7118 0.730641C16.9044 0.799554 17.0952 0.87315 17.2842 0.95143C17.4731 1.02971 17.6601 1.11258 17.845 1.20004C18.0299 1.2875 18.2126 1.37944 18.393 1.47587C18.5734 1.5723 18.7513 1.67309 18.9268 1.77825C19.1022 1.88341 19.275 1.99281 19.4451 2.10646C19.6152 2.22011 19.7823 2.33786 19.9466 2.45971C20.1109 2.58156 20.2722 2.70737 20.4303 2.83714C20.5884 2.96691 20.7433 3.10048 20.8948 3.23785C21.0464 3.37522 21.1945 3.51623 21.3391 3.66087C21.4838 3.80552 21.6248 3.95362 21.7621 4.10518C21.8995 4.25675 22.0331 4.41159 22.1629 4.56972C22.2926 4.72784 22.4184 4.88905 22.5403 5.05335C22.6622 5.21765 22.7799 5.38484 22.8935 5.55493C23.0072 5.72501 23.1166 5.89778 23.2217 6.07323C23.3269 6.24868 23.4277 6.42661 23.5241 6.60701C23.6206 6.78741 23.7125 6.97007 23.8 7.15499C23.8874 7.3399 23.9703 7.52685 24.0486 7.71584C24.1269 7.90483 24.2005 8.09562 24.2694 8.28821C24.3383 8.48081 24.4024 8.67498 24.4618 8.87073C24.5212 9.06648 24.5757 9.26356 24.6254 9.46199C24.6751 9.66042 24.7199 9.85995 24.7598 10.0606C24.7997 10.2612 24.8347 10.4627 24.8647 10.665C24.8947 10.8673 24.9197 11.0703 24.9398 11.2739C24.9599 11.4774 24.9749 11.6814 24.9849 11.8857C24.995 12.09 25 12.2945 25 12.499C25 12.499 25 12.501 25 12.501C25 12.7055 24.995 12.91 24.9849 13.1143C24.9749 13.3186 24.9599 13.5226 24.9398 13.7261C24.9197 13.9297 24.8947 14.1327 24.8647 14.335C24.8347 14.5373 24.7997 14.7388 24.7598 14.9394C24.7199 15.1401 24.6751 15.3396 24.6254 15.538C24.5757 15.7364 24.5212 15.9335 24.4618 16.1293C24.4024 16.325 24.3383 16.5192 24.2694 16.7118C24.2005 16.9044 24.1269 17.0952 24.0486 17.2842C23.9703 17.4731 23.8874 17.6601 23.8 17.845C23.7125 18.0299 23.6206 18.2126 23.5241 18.393C23.4277 18.5734 23.3269 18.7513 23.2217 18.9268C23.1166 19.1022 23.0072 19.275 22.8935 19.4451C22.7799 19.6152 22.6622 19.7823 22.5403 19.9466C22.4184 20.1109 22.2926 20.2722 22.1629 20.4303C22.0331 20.5884 21.8995 20.7433 21.7621 20.8948C21.6248 21.0464 21.4838 21.1945 21.3391 21.3391C21.1945 21.4838 21.0464 21.6248 20.8948 21.7621C20.7433 21.8995 20.5884 22.0331 20.4303 22.1629C20.2722 22.2926 20.1109 22.4184 19.9466 22.5403C19.7823 22.6622 19.6152 22.7799 19.4451 22.8935C19.275 23.0072 19.1022 23.1166 18.9268 23.2217C18.7513 23.3269 18.5734 23.4277 18.393 23.5241C18.2126 23.6206 18.0299 23.7125 17.845 23.8C17.6601 23.8874 17.4731 23.9703 17.2842 24.0486C17.0952 24.1269 16.9044 24.2005 16.7118 24.2694C16.5192 24.3383 16.325 24.4024 16.1293 24.4618C15.9335 24.5212 15.7364 24.5757 15.538 24.6254C15.3396 24.6751 15.1401 24.7199 14.9394 24.7598C14.7388 24.7997 14.5373 24.8347 14.335 24.8647C14.1327 24.8947 13.9297 24.9197 13.7261 24.9398C13.5226 24.9599 13.3186 24.9749 13.1143 24.9849C12.91 24.995 12.7055 25 12.501 25C12.501 25 12.499 25 12.499 25C12.2945 25 12.09 24.995 11.8857 24.9849C11.6814 24.9749 11.4774 24.9599 11.2739 24.9398C11.0703 24.9197 10.8673 24.8947 10.665 24.8647C10.4627 24.8347 10.2612 24.7997 10.0606 24.7598C9.85995 24.7199 9.66042 24.6751 9.46199 24.6254C9.26356 24.5757 9.06648 24.5212 8.87073 24.4618C8.67498 24.4024 8.48081 24.3383 8.28821 24.2694C8.09562 24.2005 7.90483 24.1269 7.71584 24.0486C7.52685 23.9703 7.3399 23.8874 7.15499 23.8C6.97007 23.7125 6.78741 23.6206 6.60701 23.5241C6.42661 23.4277 6.24868 23.3269 6.07323 23.2217C5.89778 23.1166 5.72501 23.0072 5.55493 22.8935C5.38484 22.7799 5.21765 22.6622 5.05335 22.5403C4.88905 22.4184 4.72784 22.2926 4.56972 22.1629C4.41159 22.0331 4.25675 21.8995 4.10518 21.7621C3.95362 21.6248 3.80552 21.4838 3.66087 21.3391C3.51623 21.1945 3.37522 21.0464 3.23785 20.8948C3.10048 20.7433 2.96691 20.5884 2.83714 20.4303C2.70737 20.2722 2.58156 20.1109 2.45971 19.9466C2.33786 19.7823 2.22011 19.6152 2.10646 19.4451C1.99281 19.275 1.88341 19.1022 1.77825 18.9268C1.67309 18.7513 1.5723 18.5734 1.47587 18.393C1.37944 18.2126 1.2875 18.0299 1.20004 17.845C1.11258 17.6601 1.02971 17.4731 0.95143 17.2842C0.87315 17.0952 0.799554 16.9044 0.730641 16.7118C0.661728 16.5192 0.597582 16.325 0.538203 16.1293C0.478824 15.9335 0.424282 15.7364 0.374579 15.538C0.324876 15.3396 0.280072 15.1401 0.240165 14.9394C0.200258 14.7388 0.165298 14.5373 0.135283 14.335C0.105268 14.1327 0.080236 13.9297 0.0601861 13.7261C0.0401362 13.5226 0.0250927 13.3186 0.0150556 13.1143C0.00501853 12.91 0 12.7055 0 12.501C0 12.501 0 12.499 0 12.499C0 12.2945 0.00501853 12.09 0.0150556 11.8857C0.0250927 11.6814 0.0401362 11.4774 0.0601861 11.2739C0.080236 11.0703 0.105268 10.8673 0.135283 10.665C0.165298 10.4627 0.200258 10.2612 0.240165 10.0606C0.280072 9.85995 0.324876 9.66042 0.374579 9.46199C0.424282 9.26356 0.478824 9.06648 0.538203 8.87073C0.597582 8.67498 0.661728 8.48081 0.730641 8.28821C0.799554 8.09562 0.87315 7.90483 0.95143 7.71584C1.02971 7.52685 1.11258 7.3399 1.20004 7.15499C1.2875 6.97007 1.37944 6.78741 1.47587 6.60701C1.5723 6.42661 1.67309 6.24868 1.77825 6.07323C1.88341 5.89778 1.99281 5.72501 2.10646 5.55493C2.22011 5.38484 2.33786 5.21765 2.45971 5.05335C2.58156 4.88905 2.70737 4.72784 2.83714 4.56972C2.96691 4.41159 3.10048 4.25675 3.23785 4.10518C3.37522 3.95362 3.51623 3.80552 3.66087 3.66087C3.80552 3.51623 3.95362 3.37522 4.10518 3.23785C4.25675 3.10048 4.41159 2.96691 4.56972 2.83714C4.72784 2.70737 4.88905 2.58156 5.05335 2.45971C5.21765 2.33786 5.38484 2.22011 5.55493 2.10646C5.72501 1.99281 5.89778 1.88341 6.07323 1.77825C6.24868 1.67309 6.42661 1.5723 6.60701 1.47587C6.78741 1.37944 6.97007 1.2875 7.15499 1.20004C7.3399 1.11258 7.52685 1.02971 7.71584 0.95143C7.90483 0.87315 8.09562 0.799554 8.28821 0.730641C8.48081 0.661728 8.67498 0.597582 8.87073 0.538203C9.06648 0.478824 9.26356 0.424282 9.46199 0.374579C9.66042 0.324876 9.85995 0.280072 10.0606 0.240165C10.2612 0.200258 10.4627 0.165298 10.665 0.135283C10.8673 0.105268 11.0703 0.080236 11.2739 0.0601861C11.4774 0.0401362 11.6814 0.0250927 11.8857 0.0150556C12.09 0.00501853 12.2945 0 12.499 0C12.499 0 12.499 0 12.499 0L12.499 0Z" id="Rectangle-2-Copy-2" fill="url(#gradient_1)" stroke="none" />
                </g>
              </g>
            </g>
            <g id="noun_List_101161" transform="translate(6 5)">
              <path d="M0 0.717281C0 0.319807 0.331351 0 0.742941 0L12.2571 0C12.6686 0 13 0.319807 13 0.717281L13 14.2827C13 14.6802 12.6686 15 12.2571 15L0.742941 15C0.331351 15 0 14.6802 0 14.2827L0 0.717281ZM3.1572 3.01708C3.66999 3.01708 4.08574 3.41842 4.08574 3.91377C4.08574 4.40912 3.66999 4.81046 3.1572 4.81046C2.6444 4.81046 2.22865 4.40894 2.22865 3.91377C2.22865 3.4186 2.6444 3.01708 3.1572 3.01708ZM10.7722 3.125L5.57143 3.125L5.57143 4.375L10.7722 4.375L10.7722 3.125ZM4.08574 7.5007C4.08574 7.00535 3.66999 6.60401 3.1572 6.60401C2.6444 6.60401 2.22865 7.00553 2.22865 7.5007C2.22865 7.99605 2.6444 8.39739 3.1572 8.39739C3.66999 8.39739 4.08574 7.99605 4.08574 7.5007ZM5.57143 6.875L10.7722 6.875L10.7722 8.125L5.57143 8.125L5.57143 6.875ZM3.1572 10.1909C3.66999 10.1909 4.08574 10.5923 4.08574 11.0876C4.08574 11.583 3.66999 11.9843 3.1572 11.9843C2.6444 11.9843 2.22865 11.5828 2.22865 11.0876C2.22865 10.5925 2.6444 10.1909 3.1572 10.1909ZM10.7722 10.625L5.57143 10.625L5.57143 11.875L10.7722 11.875L10.7722 10.625Z" id="Shape" fill="#FFFFFF" fill-rule="evenodd" stroke="none" />
            </g>
          </g>
        </g>
      </g>
    </g>
  </g>
</svg>