<?xml version="1.0" encoding="UTF-8"?>
<svg viewBox="0 0 14 14" version="1.1" xmlns="http://www.w3.org/2000/svg" xmlns:xlink="http://www.w3.org/1999/xlink">
    <!-- Generator: Sketch 59.1 (86144) - https://sketch.com -->
    <title>noun_Information_2119887 Copy</title>
    <desc>Created with Sketch.</desc>
    <g id="Page-1" stroke="none" stroke-width="1" fill="none" fill-rule="evenodd">
        <g id="Artboard" transform="translate(-387.000000, -317.000000)" fill="#FB9E0D">
            <g id="noun_Information_2119887-Copy" transform="translate(387.000000, 317.000000)">
                <path d="M6.98102981,0 C10.8509485,0 14,3.14905149 14,6.98102981 C14,10.8509485 10.8509485,14 6.98102981,14 C3.14905149,14 0,10.8509485 0,6.98102981 C0,3.14905149 3.14905149,0 6.98102981,0 Z M7,3 C7.56666667,3 8,3.46666667 8,4 C7.96666667,4.56666667 7.53333333,5 7,5 C6.43333333,5 6,4.53333333 6,4 C6,3.43333333 6.46666667,3 7,3 Z M8.99385573,11.0368158 C8.63805038,12.3188135 5.15906472,12.4353587 5.39626828,10.6871801 C5.554404,9.52172766 5.79160756,8.39512365 5.9892772,7.26851964 C6.10787899,6.53039978 5.63347185,6.76349026 5.19859864,6.6080966 C4.92186115,6.49155136 4.92186115,6.14191563 5.2776665,6.06421881 C5.71253971,5.94767356 7.2543629,6.02537039 7.76830397,6.02537039 C8.04504146,6.02537039 8.20317717,6.18076405 8.2427111,6.45270295 C8.2427111,6.68579343 8.20317717,6.8800355 8.16364325,7.11312599 C7.96597361,8.20088158 7.68923611,9.366334 7.5311004,10.4540896 C7.5311004,10.6871801 7.57063433,11.1145126 7.92643968,11.0756642 C8.28224503,11.0756642 8.44038074,10.9202706 8.71711824,10.8037253 C8.87525395,10.7260285 9.03338966,10.8425737 8.99385573,11.0368158 Z" id="Shape"></path>
            </g>
        </g>
    </g>
</svg>