<?xml version="1.0" encoding="UTF-8"?>
<svg  viewBox="0 0 25 25" version="1.1" xmlns="http://www.w3.org/2000/svg" xmlns:xlink="http://www.w3.org/1999/xlink">
    <!-- Generator: Sketch 59.1 (86144) - https://sketch.com -->
    <title>Group 25</title>
    <desc>Created with Sketch.</desc>
    <defs>
        <linearGradient x1="50%" y1="-93.1760217%" x2="50%" y2="91.7467272%" id="linearGradient-1">
            <stop stop-color="#FBCC20" offset="0%"></stop>
            <stop stop-color="#F69A0A" offset="100%"></stop>
        </linearGradient>
    </defs>
    <g id="Page-1" stroke="none" stroke-width="1" fill="none" fill-rule="evenodd">
        <g id="Artboard" transform="translate(-1138.000000, -316.000000)">
            <g id="Group-25" transform="translate(1138.000000, 316.000000)">
                <g id="Group-9">
                    <g id="Group-24-Copy" fill="url(#linearGradient-1)">
                        <path d="M12.5,0 C19.4035594,-1.26816328e-15 25,5.59644063 25,12.5 C25,19.4035594 19.4035594,25 12.5,25 C5.59644063,25 8.45442189e-16,19.4035594 0,12.5 C-8.45442189e-16,5.59644063 5.59644063,1.26816328e-15 12.5,0 Z" id="Rectangle-2-Copy-2"></path>
                    </g>
                    <g id="noun_Address_2340040" transform="translate(7.000000, 5.000000)" fill="#FFFFFF" fill-rule="nonzero">
                        <g id="Group">
                            <path d="M9.15517241,11 C8.94827586,11.3511706 8.72413793,11.6856187 8.5,12.0033445 C9.94827586,12.3210702 10.8103448,12.8729097 10.8103448,13.2909699 C10.8103448,13.909699 8.89655172,14.8461538 6,14.8461538 C3.10344828,14.8461538 1.18965517,13.909699 1.18965517,13.2909699 C1.18965517,12.8729097 2.05172414,12.3377926 3.5,12.0033445 C3.27586207,11.6856187 3.05172414,11.3511706 2.84482759,11 C1.18965517,11.4180602 0,12.1705686 0,13.2909699 C0,15.0635452 3.01724138,16 6,16 C8.98275862,16 12,15.0635452 12,13.2909699 C12,12.1705686 10.8103448,11.4180602 9.15517241,11 Z" id="Path"></path>
                            <path d="M6.57798165,12.7360619 C7.88073394,10.9764744 11,6.56912665 11,4.57492749 C11,2.04447309 8.76146789,0 6.00917431,0 C3.25688073,0 1,2.04447309 1,4.57492749 C1,6.56912665 4.13761468,10.9764744 5.44036697,12.7360619 C5.71559633,13.0879794 6.30275229,13.0879794 6.57798165,12.7360619 Z M3.67889908,4.57492749 C3.67889908,3.40186916 4.72477064,2.44666452 6.00917431,2.44666452 C7.29357798,2.44666452 8.33944954,3.40186916 8.33944954,4.57492749 C8.33944954,5.74798582 7.29357798,6.68643248 6.00917431,6.68643248 C4.72477064,6.68643248 3.67889908,5.73122784 3.67889908,4.57492749 Z" id="Shape"></path>
                        </g>
                    </g>
                </g>
            </g>
        </g>
    </g>
</svg>