<?xml version="1.0" encoding="UTF-8"?>
<svg viewBox="0 0 25 25" version="1.1" xmlns="http://www.w3.org/2000/svg" xmlns:xlink="http://www.w3.org/1999/xlink">
    <!-- Generator: Sketch 59.1 (86144) - https://sketch.com -->
    <title>Group 23</title>
    <desc>Created with Sketch.</desc>
    <defs>
        <linearGradient x1="50%" y1="-93.1760217%" x2="50%" y2="91.7467272%" id="linearGradient-1">
            <stop stop-color="#FBCC20" offset="0%"></stop>
            <stop stop-color="#F69A0A" offset="100%"></stop>
        </linearGradient>
    </defs>
    <g id="Page-1" stroke="none" stroke-width="1" fill="none" fill-rule="evenodd">
        <g id="Artboard" transform="translate(-1138.000000, -236.000000)">
            <g id="Group-23" transform="translate(1138.000000, 236.000000)">
                <g id="Group-8">
                    <g id="Group-24" fill="url(#linearGradient-1)">
                        <path d="M12.5,0 C19.4035594,-1.26816328e-15 25,5.59644063 25,12.5 C25,19.4035594 19.4035594,25 12.5,25 C5.59644063,25 8.45442189e-16,19.4035594 0,12.5 C-8.45442189e-16,5.59644063 5.59644063,1.26816328e-15 12.5,0 Z" id="Rectangle-2-Copy-2"></path>
                    </g>
                    <g id="noun_account_275225-(1)" transform="translate(6.000000, 5.000000)" fill="#FFFFFF" fill-rule="nonzero">
                        <g id="Group">
                            <g id="Shape">
                                <path d="M7,7.82608696 C9.10872359,7.82608696 10.8181818,6.07415739 10.8181818,3.91304348 C10.8181818,1.75192957 9.10872359,0 7,0 C4.89127641,0 3.18181818,1.75192957 3.18181818,3.91304348 C3.18181818,6.07415739 4.89127641,7.82608696 7,7.82608696 Z M0,14.673913 C0,14.8540057 0.142454836,15 0.318181818,15 L13.6818182,15 C13.8575452,15 14,14.8540057 14,14.673913 L14,14.0217391 C14,11.3839089 12.2791651,9.13043478 8.90909091,9.13043478 L5.09090909,9.13043478 C1.72083495,9.13043478 0,11.3839089 0,14.0217391 L0,14.673913 Z"></path>
                            </g>
                        </g>
                    </g>
                </g>
            </g>
        </g>
    </g>
</svg>