<?xml version="1.0" encoding="UTF-8"?>
<svg viewBox="0 0 25 25" version="1.1" xmlns="http://www.w3.org/2000/svg" xmlns:xlink="http://www.w3.org/1999/xlink">
    <!-- Generator: Sketch 59.1 (86144) - https://sketch.com -->
    <title>Group 27</title>
    <desc>Created with Sketch.</desc>
    <defs>
        <linearGradient x1="50%" y1="-93.1760217%" x2="50%" y2="91.7467272%" id="linearGradient-1">
            <stop stop-color="#FBCC20" offset="0%"></stop>
            <stop stop-color="#F69A0A" offset="100%"></stop>
        </linearGradient>
    </defs>
    <g id="Page-1" stroke="none" stroke-width="1" fill="none" fill-rule="evenodd">
        <g id="Artboard" transform="translate(-1138.000000, -479.000000)">
            <g id="Group-27" transform="translate(1138.000000, 479.000000)">
                <g id="Group-17">
                    <g id="Group-24-Copy-4" fill="url(#linearGradient-1)">
                        <path d="M12.5,0 C19.4035594,-1.26816328e-15 25,5.59644063 25,12.5 C25,19.4035594 19.4035594,25 12.5,25 C5.59644063,25 8.45442189e-16,19.4035594 0,12.5 C-8.45442189e-16,5.59644063 5.59644063,1.26816328e-15 12.5,0 Z" id="Rectangle-2-Copy-2"></path>
                    </g>
                    <g id="noun_review_1966406" transform="translate(5.000000, 8.000000)" fill="#FFFFFF" fill-rule="nonzero">
                        <path d="M14.0694006,0 L0.914826498,0 C0.410094637,0 0,0.399615754 0,0.891450528 L0,8.36119116 C0,8.85302594 0.410094637,9.25264169 0.914826498,9.25264169 L5.42586751,9.25264169 L6.89274448,11.6657061 C7.16088328,12.1114313 7.82334385,12.1114313 8.10725552,11.6657061 L9.57413249,9.25264169 L14.0851735,9.25264169 C14.5899054,9.25264169 15,8.85302594 15,8.36119116 L15,0.891450528 C14.9842271,0.399615754 14.5741325,0 14.0694006,0 Z M4.96293066,4.26606434 L4.33578547,4.9195169 C4.31836477,4.93766836 4.31836477,4.95581982 4.31836477,4.97397128 L4.45773037,5.86339283 C4.47515107,5.95415013 4.37062687,6.02675597 4.30094407,5.99045305 L3.51701259,5.55481801 C3.49959189,5.53666655 3.48217119,5.53666655 3.44732979,5.55481801 L2.680819,5.97230159 C2.5937155,6.02675597 2.50661201,5.93599867 2.52403271,5.84524137 L2.680819,4.93766836 C2.680819,4.9195169 2.680819,4.88321398 2.6633983,4.88321398 L2.03625312,4.24791288 C1.96657032,4.17530704 2.00141172,4.06639828 2.10593591,4.04824682 L2.9769709,3.9211866 C2.9943916,3.9211866 3.0118123,3.90303514 3.029233,3.88488368 L3.41248839,3.06806798 C3.44732979,2.97731067 3.56927468,2.97731067 3.62153678,3.06806798 L4.00479218,3.88488368 C4.02221288,3.90303514 4.03963358,3.9211866 4.05705428,3.9211866 L4.91066856,4.04824682 C4.99777206,4.08454974 5.03261346,4.21160996 4.96293066,4.26606434 Z M8.96293066,4.27083367 L8.33578547,4.90852798 C8.31836477,4.92674782 8.31836477,4.94496766 8.31836477,4.9631875 L8.45773037,5.85595954 C8.47515107,5.94705872 8.37062687,6.01993807 8.30094407,5.9834984 L7.51701259,5.5462223 C7.49959189,5.52800246 7.48217119,5.52800246 7.44732979,5.5462223 L6.680819,5.9834984 C6.5937155,6.03815791 6.50661201,5.94705872 6.52403271,5.85595954 L6.680819,4.94496766 C6.680819,4.92674782 6.680819,4.89030815 6.6633983,4.89030815 L6.03625312,4.25261383 C5.96657032,4.17973448 6.00141172,4.07041546 6.10593591,4.05219562 L6.9769709,3.92465676 C6.9943916,3.92465676 7.0118123,3.90643692 7.029233,3.88821708 L7.41248839,3.06832439 C7.44732979,2.9772252 7.56927468,2.9772252 7.62153678,3.06832439 L8.00479218,3.88821708 C8.02221288,3.90643692 8.03963358,3.92465676 8.05705428,3.92465676 L8.91066856,4.05219562 C8.99777206,4.08863529 9.03261346,4.21617416 8.96293066,4.27083367 Z M12.9618068,4.27083367 L12.3311918,4.90852798 C12.3136747,4.92674782 12.3136747,4.94496766 12.3136747,4.9631875 L12.4538114,5.85595954 C12.4713284,5.94705872 12.3662259,6.01993807 12.2961576,5.9834984 L11.5078888,5.5462223 C11.4903717,5.52800246 11.4728546,5.52800246 11.4378205,5.5462223 L10.6845858,5.9834984 C10.5970004,6.03815791 10.509415,5.94705872 10.5269321,5.85595954 L10.6845858,4.94496766 C10.6845858,4.92674782 10.6845858,4.89030815 10.6670687,4.89030815 L10.0364537,4.25261383 C9.96638536,4.17973448 10.0014195,4.07041546 10.106522,4.05219562 L10.9823763,3.92465676 C10.9998933,3.92465676 11.0174104,3.90643692 11.0349275,3.88821708 L11.4203034,3.06832439 C11.4553375,2.9772252 11.5779571,2.9772252 11.6305084,3.06832439 L12.0158842,3.88821708 C12.0334013,3.90643692 12.0509184,3.92465676 12.0684355,3.92465676 L12.9267726,4.05219562 C12.996841,4.08863529 13.0318751,4.21617416 12.9618068,4.27083367 Z" id="Shape"></path>
                    </g>
                </g>
            </g>
        </g>
    </g>
</svg>