<?xml version="1.0" encoding="UTF-8"?>
<svg viewBox="0 0 25 25" version="1.1" xmlns="http://www.w3.org/2000/svg" xmlns:xlink="http://www.w3.org/1999/xlink">
    <!-- Generator: Sketch 59.1 (86144) - https://sketch.com -->
    <title>Group 29</title>
    <desc>Created with Sketch.</desc>
    <defs>
        <linearGradient x1="50%" y1="-93.1760217%" x2="50%" y2="91.7467272%" id="linearGradient-1">
            <stop stop-color="#FBCC20" offset="0%"></stop>
            <stop stop-color="#F69A0A" offset="100%"></stop>
        </linearGradient>
    </defs>
    <g id="Page-1" stroke="none" stroke-width="1" fill="none" fill-rule="evenodd">
        <g id="Artboard" transform="translate(-1138.000000, -643.000000)">
            <g id="Group-29" transform="translate(1138.000000, 643.000000)">
                <g id="Group-18">
                    <g id="Group-24-Copy-5" fill="url(#linearGradient-1)">
                        <path d="M12.5,0 C19.4035594,-1.26816328e-15 25,5.59644063 25,12.5 C25,19.4035594 19.4035594,25 12.5,25 C5.59644063,25 8.45442189e-16,19.4035594 0,12.5 C-8.45442189e-16,5.59644063 5.59644063,1.26816328e-15 12.5,0 Z" id="Rectangle-2-Copy-2"></path>
                    </g>
                    <g id="noun_setting_2236786" transform="translate(12.500000, 12.500000) scale(-1, 1) translate(-12.500000, -12.500000) translate(5.000000, 5.000000)" fill="#FFFFFF">
                        <path d="M8.48314607,0 L9.3258427,1.79775281 L10.2808989,2.07865169 L12.0786517,1.51685393 L13.4831461,2.92134831 L12.8651685,4.71910112 L13.258427,5.61797753 L15,6.51685393 L15,8.48314607 L13.258427,9.3258427 L12.9213483,10.2808989 L13.4831461,12.0786517 L12.0786517,13.4831461 L10.2808989,12.8651685 L9.38202247,13.258427 L8.48314607,15 L6.51685393,15 L5.6741573,13.258427 L4.7752809,12.9213483 L2.92134831,13.4831461 L1.51685393,12.0786517 L2.19101124,10.2808989 L1.74157303,9.38202247 L0.0561797753,8.48314607 L0,6.51685393 L1.79775281,5.6741573 L2.07865169,4.7752809 L1.51685393,2.92134831 L2.92134831,1.51685393 L4.71910112,2.19101124 L5.61797753,1.74157303 L6.51685393,0.0561797753 L8.48314607,0 Z M7.52808989,4.7752809 C8.98876404,4.7752809 10.2247191,6.01123596 10.2247191,7.52808989 C10.2247191,8.98876404 8.98876404,10.2247191 7.52808989,10.2247191 C6.01123596,10.2247191 4.7752809,8.98876404 4.7752809,7.52808989 C4.7752809,6.01123596 6.01123596,4.7752809 7.52808989,4.7752809 Z" id="Shape"></path>
                    </g>
                </g>
            </g>
        </g>
    </g>
</svg>