<?xml version="1.0" encoding="UTF-8"?>
<svg width="25px" height="25px" viewBox="0 0 25 25" version="1.1" xmlns="http://www.w3.org/2000/svg" xmlns:xlink="http://www.w3.org/1999/xlink">
    <!-- Generator: Sketch 59.1 (86144) - https://sketch.com -->
    <title>Icon Shopping List</title>
    <desc>Created with Sketch.</desc>
    <defs>
        <linearGradient x1="50%" y1="-93.1760217%" x2="50%" y2="91.7467272%" id="linearGradient-1">
            <stop stop-color="#FBCC20" offset="0%"></stop>
            <stop stop-color="#F69A0A" offset="100%"></stop>
        </linearGradient>
    </defs>
    <g id="Icon-Shopping-List" stroke="none" stroke-width="1" fill="none" fill-rule="evenodd">
        <g id="Group-6" fill="url(#linearGradient-1)">
            <g id="Group-18">
                <g id="Group-24-Copy-5">
                    <path d="M12.5,0 C19.4035594,-1.26816328e-15 25,5.59644063 25,12.5 C25,19.4035594 19.4035594,25 12.5,25 C5.59644063,25 8.45442189e-16,19.4035594 0,12.5 C-8.45442189e-16,5.59644063 5.59644063,1.26816328e-15 12.5,0 Z" id="Rectangle-2-Copy-2"></path>
                </g>
            </g>
        </g>
        <g id="icon/shopping-list/inactive-3" transform="translate(5.000000, 5.000000)">
            <g id="icon/shopping-list/inactive-02">
                <g transform="translate(0.000000, 0.619048)">
                    <g id="Group">
                        <path d="M1.8812024,0.834861778 L11.0652456,0.834861778 C12.8312723,1.57340256 13.7142857,2.45529429 13.7142857,3.48053698 C13.7142857,4.50577966 13.7142857,7.41350476 13.7142857,12.2037123 C13.5635102,13.5018773 12.6804969,14.1509598 11.0652456,14.1509598 C9.44999431,14.1509598 7.28538863,14.1509598 4.57142857,14.1509598 C3.28588097,14.125934 2.64310717,13.2660902 2.64310717,11.5714286 C2.64310717,9.8767669 2.64310717,6.89931268 2.64310717,2.6390659 L1.8812024,0.834861778 Z" id="Path-3" fill="#FFFFFF"></path>
                        <path d="M1.75885655,14.6051147 C0.67438358,14.2979955 0.0400020331,13.3665204 0.00371612653,11.7526406 C-0.00625819848,11.4065083 0.000448675236,11.3613459 0.0664855857,11.2578769 C0.215068634,11.0249875 0.254621992,11.0153821 1.22488306,11.0056082 L2.08955385,10.9958342 L2.08955385,6.33214778 C2.08955385,3.29194662 2.10279563,1.59397717 2.12257231,1.4581531 C2.23143003,0.788638146 2.77606257,0.261519404 3.45930383,0.16445406 C3.76953973,0.122325005 12.0243255,0.122325005 12.3378289,0.16445406 C13.0145352,0.258317596 13.5787725,0.81121932 13.6745604,1.47433065 C13.6910696,1.6005493 13.7075788,2.50278516 13.7075788,3.51186029 L13.7142857,5.94661162 L13.0631589,5.31615509 L12.6447973,4.93565388 L12.6447973,2.88110407 C12.634823,1.48393608 12.634823,1.47416214 12.5622512,1.37389498 C12.4005983,1.15398132 12.7273435,1.16695706 7.89856635,1.16695706 C3.06978924,1.16695706 3.39653437,1.15398132 3.23488152,1.37389498 L3.1623097,1.47416214 L3.14253303,7.00469602 C3.12929125,11.2383291 3.11604947,12.577359 3.08320299,12.7098127 C2.9973894,13.0785262 2.8157879,13.3533762 2.57812381,13.476393 C2.52859612,13.5023445 2.40976408,13.5345311 2.31414814,13.5507087 C2.20855787,13.5668862 3.95784811,13.579862 6.73036652,13.5830638 C11.2091824,13.5862656 11.3280144,13.5862656 11.5326601,13.5215554 C11.9089329,13.4083125 12.1828829,13.2077782 12.3940634,12.8941695 C12.6449693,12.5124802 12.6515042,12.4705197 12.6515042,10.8598416 L12.6545997,10.0376192 L13.7142857,11.0056082 L13.7142857,11.4291555 C13.7010439,12.286229 13.6747324,12.4349628 13.6119629,12.6646504 C13.3677639,13.5766602 12.6582111,14.2721266 11.7108222,14.530799 L11.4468465,14.6051147 L6.72709907,14.6083165 C4.13257077,14.6118553 1.8550998,14.6323704 1.75885655,14.6051147 Z" id="Path" fill="#FFFFFF" fill-rule="nonzero" transform="translate(6.857143, 7.375952) scale(-1, 1) rotate(-180.000000) translate(-6.857143, -7.375952) "></path>
                        <path d="M5.33333333,7 L10.6666667,7 L10.6666667,7 L9.14285714,8.52380952 L5.33333333,8.52380952 C4.91254495,8.52380952 4.57142857,8.18269314 4.57142857,7.76190476 C4.57142857,7.34111638 4.91254495,7 5.33333333,7 Z" id="Rectangle" fill="#F59B0A"></path>
                        <path d="M5.33333333,10.047619 L8.38095238,10.047619 L8.38095238,10.047619 L7.61904762,11.5714286 L5.33333333,11.5714286 C4.91254495,11.5714286 4.57142857,11.2303122 4.57142857,10.8095238 C4.57142857,10.3887354 4.91254495,10.047619 5.33333333,10.047619 Z" id="Rectangle-Copy-10" fill="#F59B0A"></path>
                        <path d="M13.7142857,4.46805358 C13.7237003,4.46805358 14.1295491,4.959808 14.5217097,5.47619048 L14.5217097,5.47619048 L15.3341803,6.38676275 L13.2318052,8.46695942 C12.1288326,9.57087867 11.169352,10.5121837 11.1008524,10.5591104 C11.0323529,10.6060372 10.5215281,10.8530544 9.96379241,11.1095221 C8.8889014,11.6004607 8.80173492,11.6253905 8.60548858,11.5222494 C8.4808259,11.4565846 8.35924732,11.2221138 8.38424479,11.0969758 C8.40615815,10.9843841 9.3252208,8.95480211 9.41238728,8.82656824 C9.44663706,8.77328683 10.3718679,7.82888594 11.4715941,6.72187082 C12.5682361,5.61795157 13.7050334,4.46805358 13.7142857,4.46805358 Z M9.86396487,9.28003057 C9.85162846,9.28003057 9.82046278,9.32695732 9.79546532,9.3800758 C9.77371428,9.43629014 9.67404906,9.65837751 9.57746794,9.87101436 L9.57746794,9.87101436 L9.39988855,10.2619077 L9.55247048,10.4119755 L9.70196831,10.5653022 L10.1817898,10.3432148 C10.4436139,10.2244315 10.6677795,10.1181945 10.6771941,10.108744 C10.6866087,10.0992935 10.5121134,9.90865352 10.2908696,9.68656615 L10.2095242,9.60444561 C10.0241936,9.41887846 9.87504329,9.28003057 9.86396487,9.28003057 Z" id="Combined-Shape" fill="#F59B0A" fill-rule="nonzero"></path>
                    </g>
                    <rect id="Rectangle" fill="#F69B0B" transform="translate(8.000000, 4.714286) scale(-1, 1) rotate(-180.000000) translate(-8.000000, -4.714286) " x="4.57142857" y="3.95238095" width="6.85714286" height="1.52380952" rx="0.761904762"></rect>
                    <path d="" id="Path-2" stroke="#979797"></path>
                </g>
            </g>
        </g>
    </g>
</svg>