<?xml version="1.0" encoding="UTF-8"?>
<svg  viewBox="0 0 25 25" version="1.1" xmlns="http://www.w3.org/2000/svg" xmlns:xlink="http://www.w3.org/1999/xlink">
    <!-- Generator: Sketch 59.1 (86144) - https://sketch.com -->
    <title>Group 28</title>
    <desc>Created with Sketch.</desc>
    <defs>
        <linearGradient x1="50%" y1="-93.1760217%" x2="50%" y2="91.7467272%" id="linearGradient-1">
            <stop stop-color="#FBCC20" offset="0%"></stop>
            <stop stop-color="#F69A0A" offset="100%"></stop>
        </linearGradient>
    </defs>
    <g id="Page-1" stroke="none" stroke-width="1" fill="none" fill-rule="evenodd">
        <g id="Artboard" transform="translate(-1138.000000, -559.000000)">
            <g id="Group-28" transform="translate(1138.000000, 559.000000)">
                <g id="Group-10">
                    <g id="Group-17" fill="url(#linearGradient-1)">
                        <g id="Group-24-Copy-4">
                            <path d="M12.5,0 C19.4035594,-1.26816328e-15 25,5.59644063 25,12.5 C25,19.4035594 19.4035594,25 12.5,25 C5.59644063,25 8.45442189e-16,19.4035594 0,12.5 C-8.45442189e-16,5.59644063 5.59644063,1.26816328e-15 12.5,0 Z" id="Rectangle-2-Copy-2"></path>
                        </g>
                    </g>
                    <g id="Group-4" transform="translate(5.000000, 7.000000)" fill="#FFFFFF" fill-rule="nonzero" stroke="#FFFFFF" stroke-width="1.2">
                        <g id="reuse">
                            <path d="M1.72725124,6.1354309 C1.67586849,6.18272284 1.60780823,6.21439984 1.53113553,6.2216914 C1.52690229,6.22210413 1.52266905,6.22241367 1.51839932,6.22268883 C1.51818036,6.22268883 1.51792491,6.22272322 1.51766945,6.22272322 C1.51091817,6.22310156 1.50427636,6.22330792 1.49763456,6.22330792 C1.42066991,6.22330792 1.3489968,6.19795944 1.29239549,6.15513874 C1.29235899,6.15513874 1.29235899,6.15513874 1.29235899,6.15510435 C1.29210354,6.15493238 1.29188458,6.15476041 1.29166562,6.15458844 C1.29159263,6.15455404 1.29151964,6.15448525 1.29144666,6.15445086 C1.29130068,6.15434768 1.29111822,6.1542101 1.29097224,6.15407253 C1.29086276,6.15400374 1.29071679,6.15390055 1.29060731,6.15379737 C1.29049783,6.15369419 1.29038835,6.1536254 1.29027887,6.15355661 C1.29013289,6.15345343 1.28995043,6.15331585 1.28980445,6.15321267 C1.28973147,6.15317828 1.28965848,6.15310949 1.28958549,6.1530407 C1.28940303,6.15290312 1.28918406,6.15276555 1.2890016,6.15259358 C1.2873229,6.1512866 1.2856442,6.14994523 1.2839655,6.14860386 C1.28374654,6.14843189 1.28352758,6.14825992 1.28330862,6.14808795 C1.28327213,6.14805355 1.28323564,6.14801916 1.28319914,6.14801916 C1.28301667,6.14788158 1.28283421,6.14770961 1.28261525,6.14757203 C1.28257875,6.14750324 1.28246927,6.14743446 1.28239629,6.14740006 C1.28225031,6.14726249 1.28210434,6.1471593 1.28192187,6.14702173 C1.28181239,6.14695294 1.28170291,6.14684976 1.28159343,6.14678097 C1.28148395,6.14667779 1.28137447,6.1465746 1.2812285,6.14647142 C1.28108252,6.14633384 1.28090006,6.14619627 1.28071759,6.14605869 C1.28068109,6.1459899 1.28060811,6.14595551 1.28053512,6.14588672 C1.27298098,6.13959259 1.26575528,6.13298892 1.25882153,6.12611009 L0.0913965913,4.9787217 C-0.0341408199,4.85534993 -0.0298345947,4.65937214 0.101103845,4.54105631 C0.23200579,4.42274048 0.439908881,4.42679899 0.565482786,4.55017076 L1.16492392,5.13917034 C1.3067739,3.11899634 2.6283471,1.30302032 4.6362888,0.46944403 C6.06245218,-0.122547848 7.6478729,-0.15573819 9.10056701,0.376098344 C10.5531881,0.907900483 11.6991184,1.94106595 12.3272069,3.2852232 C12.4003398,3.44168213 12.3250173,3.62438378 12.1590452,3.69327524 C11.9930001,3.76216669 11.7991469,3.6911772 11.7260871,3.53475266 C11.1687229,2.34196401 10.1517969,1.4251539 8.8627393,0.953197561 C7.57371824,0.481275613 6.1667869,0.510648206 4.90108515,1.03605304 C3.11440314,1.77776259 1.94008094,3.39597232 1.81932417,5.19433854 L2.49010997,4.58790112 C2.62108491,4.46958529 2.8289515,4.4736438 2.95452541,4.59701557 C3.08009931,4.72038734 3.07575659,4.91633073 2.94485465,5.03468096 L1.72725124,6.1354309 Z M13.9071536,7.03637579 L12.715716,5.88021689 C12.6515241,5.81700047 12.5591227,5.77975162 12.460262,5.78497953 C12.4600795,5.78497953 12.459897,5.78497953 12.4596416,5.78501392 C12.454423,5.78528907 12.449241,5.7857018 12.4440224,5.78618332 C12.3665468,5.79378442 12.2978662,5.82639007 12.2464105,5.87474822 L11.0519074,6.98475019 C10.9227206,7.10478573 10.9212609,7.30076352 11.0485865,7.42251876 C11.1759851,7.544274 11.3839246,7.54564977 11.5130749,7.42561423 L12.1551404,6.82901354 C12.0269389,8.61929714 10.8544049,10.2284268 9.07491212,10.9671097 C8.3981414,11.248041 7.69144606,11.3809743 6.9954433,11.3809399 C5.00450754,11.3808711 3.10250628,10.292847 2.24991019,8.46837567 C2.17681385,8.31195113 1.98299722,8.24096163 1.8169521,8.30985309 C1.65094347,8.37874455 1.57565752,8.5614462 1.64879036,8.71790513 C2.60962597,10.774021 4.75266636,12.0001376 6.99639213,12 C7.78052653,12 8.57725117,11.8501447 9.33974497,11.5336499 C11.3479786,10.6999704 12.6701722,8.88248107 12.8112558,6.86137842 L13.4360234,7.46764387 C13.5624002,7.59025896 13.7703032,7.59314807 13.9004753,7.47404118 C14.0305014,7.35500307 14.0335304,7.15902528 13.9071536,7.03637579 Z" id="Shape"></path>
                        </g>
                    </g>
                </g>
            </g>
        </g>
    </g>
</svg>