<?xml version="1.0" encoding="UTF-8"?>
<svg width="13px" height="13px" viewBox="0 0 13 13" version="1.1" xmlns="http://www.w3.org/2000/svg" xmlns:xlink="http://www.w3.org/1999/xlink">
    <!-- Generator: Sketch 59.1 (86144) - https://sketch.com -->
    <title>noun_Time_2144324</title>
    <desc>Created with Sketch.</desc>
    <g id="Page-1" stroke="none" stroke-width="1" fill="none" fill-rule="evenodd">
        <g id="Artboard" transform="translate(-310.000000, -635.000000)" fill="#A1A1A1" fill-rule="nonzero">
            <g id="noun_Time_2144324" transform="translate(310.000000, 635.000000)">
                <g id="Group">
                    <path d="M6.5,0.0106995885 C4.76666667,0.0106995885 3.13765432,0.684773663 1.91255144,1.90987654 C0.68744856,3.13497942 0.0133744856,4.76399177 0.0133744856,6.4973251 C0.0133744856,8.23065844 0.68744856,9.85967078 1.91255144,11.0847737 C3.13765432,12.3098765 4.76666667,12.9839506 6.5,12.9839506 C8.23333333,12.9839506 9.86234568,12.3098765 11.0874486,11.0847737 C12.3125514,9.85967078 12.9866255,8.23065844 12.9866255,6.4973251 C12.9866255,4.76399177 12.3125514,3.13497942 11.0874486,1.90987654 C9.86234568,0.68744856 8.23333333,0.0106995885 6.5,0.0106995885 Z M6.5,12.0798354 C3.42386831,12.0798354 0.920164609,9.57613169 0.920164609,6.5 C0.920164609,3.42386831 3.42386831,0.920164609 6.5,0.920164609 C9.57613169,0.920164609 12.0798354,3.42386831 12.0798354,6.5 C12.0798354,9.57613169 9.57613169,12.0798354 6.5,12.0798354 Z" id="Shape"></path>
                    <path d="M9.05950285,6.77522879 C9.05950285,6.77522879 9.05950285,6.77522879 9.05950285,6.77522879 L6.88226135,6.7788389 L6.88226135,3.61999413 C6.88226135,3.28064395 6.61010616,3.00627572 6.27349317,3.00627572 C5.93688017,3.00627572 5.66472498,3.28064395 5.66472498,3.61999413 L5.66472498,7.39616742 C5.66472498,7.55862229 5.73276378,7.71385695 5.84735544,7.82938041 C5.9619471,7.94490388 6.11951063,8.00627572 6.28065514,8.00627572 C6.28065514,8.00627572 6.28065514,8.00627572 6.28065514,8.00627572 L9.05592186,8.00266561 C9.39253486,8.00266561 9.66472498,7.72829738 9.66472498,7.3889472 C9.66827103,7.04598691 9.39611585,6.77522879 9.05950285,6.77522879 Z" id="Path"></path>
                </g>
            </g>
        </g>
    </g>
</svg>