<?xml version="1.0" encoding="UTF-8"?>
<svg width="30px" height="18px" viewBox="0 0 30 18" version="1.1" xmlns="http://www.w3.org/2000/svg" xmlns:xlink="http://www.w3.org/1999/xlink">
    <!-- Generator: Sketch 59.1 (86144) - https://sketch.com -->
    <title>noun_voucher_2837731</title>
    <desc>Created with Sketch.</desc>
    <defs>
        <linearGradient x1="50%" y1="0.752217061%" x2="50%" y2="100%" id="linearGradient-1">
            <stop stop-color="#FAC91E" offset="0%"></stop>
            <stop stop-color="#FB9E0D" offset="100%"></stop>
        </linearGradient>
    </defs>
    <g id="Page-1" stroke="none" stroke-width="1" fill="none" fill-rule="evenodd">
        <g id="Artboard" transform="translate(-303.000000, -379.000000)" fill="url(#linearGradient-1)" fill-rule="nonzero">
            <g id="noun_voucher_2837731" transform="translate(303.000000, 379.000000)">
                <path d="M29.4444444,6.1875 C29.7512693,6.1875 30,5.93566017 30,5.625 L30,2.8125 C30,1.25919914 28.7563465,0 27.2222222,0 L2.77777778,0 C1.24365347,0 0,1.25919914 0,2.8125 L0,5.625 C0,5.93566017 0.248730695,6.1875 0.555555556,6.1875 C2.08967986,6.1875 3.33333333,7.44669914 3.33333333,9 C3.33333333,10.5533009 2.08967986,11.8125 0.555555556,11.8125 C0.248730695,11.8125 0,12.0643398 0,12.375 L0,15.1875 C0,15.9334214 0.29265789,16.6487918 0.813592274,17.1762378 C1.33452666,17.7036839 2.04106531,18 2.77777778,18 L27.2222222,18 C28.7563465,18 30,16.7408009 30,15.1875 L30,12.375 C30,12.0643398 29.7512693,11.8125 29.4444444,11.8125 C27.9103201,11.8125 26.6666667,10.5533009 26.6666667,9 C26.6666667,7.44669914 27.9103201,6.1875 29.4444444,6.1875 Z M12,4 C12.5522847,4 13,4.44771525 13,5 C13,5.55228475 12.5522847,6 12,6 L12,6 C11.4477153,6 11,5.55228475 11,5 C11,4.44771525 11.4477153,4 12,4 Z M18,14 L18,14 C17.4477153,14 17,13.5522847 17,13 C17,12.4477153 17.4477153,12 18,12 C18.5522847,12 19,12.4477153 19,13 C19,13.5522847 18.5522847,14 18,14 Z M19.7295441,5.85634348 L11.8563435,13.7295441 C11.4100902,14.1117056 10.7448791,14.0860114 10.3294338,13.6705662 C9.91398861,13.2551209 9.88829439,12.5899098 10.2704559,12.1436565 L18.1436565,4.27045594 C18.5899098,3.88829439 19.2551209,3.91398861 19.6705662,4.32943384 C20.0860114,4.74487907 20.1117056,5.41009016 19.7295441,5.85634348 L19.7295441,5.85634348 Z" id="Shape"></path>
            </g>
        </g>
    </g>
</svg>