<?xml version="1.0" encoding="UTF-8"?>
<svg width="26px" height="26px" viewBox="0 0 26 26" version="1.1" xmlns="http://www.w3.org/2000/svg" xmlns:xlink="http://www.w3.org/1999/xlink">
    <!-- Generator: Sketch 58 (84663) - https://sketch.com -->
    <title>Card</title>
    <desc>Created with Sketch.</desc>
    <g id="Card" stroke="none" stroke-width="1" fill="none" fill-rule="evenodd" opacity="0.5">
        <g transform="translate(1.000000, 4.000000)" fill="#000000">
            <path d="M25,3.96666667 C25,1.77593716 23.2193143,0 21.0227273,0 L3.97727273,0 C1.78068565,-1.28845083e-13 0,1.77593716 0,3.96666667 L0,13.0333333 C0,15.2240628 1.78068565,17 3.97727273,17 L21.0227273,17 C23.2193143,17 25,15.2240628 25,13.0333333 L25,3.96666667 Z M3.97727273,1.7 L21.0227273,1.7 C22.2779199,1.7 23.2954545,2.71482123 23.2954545,3.96666667 L23.2954545,5.66666667 L1.70454545,5.66666667 L1.70454545,3.96666667 C1.70454545,2.71482123 2.72208011,1.7 3.97727273,1.7 Z M21.0227273,15.3 L3.97727273,15.3 C2.72208011,15.3 1.70454545,14.2851788 1.70454545,13.0333333 L1.70454545,7.36666667 L23.2954545,7.36666667 L23.2954545,13.0333333 C23.2954545,14.2851788 22.2779199,15.3 21.0227273,15.3 Z" id="Shape"></path>
            <circle id="Oval" cx="19.5" cy="3.5" r="1"></circle>
            <circle id="Oval" cx="16.5" cy="3.5" r="1"></circle>
            <circle id="Oval" cx="13.5" cy="3.5" r="1"></circle>
        </g>
    </g>
</svg>