<?xml version="1.0" encoding="UTF-8"?>
<svg width="26px" height="26px" viewBox="0 0 26 26" version="1.1" xmlns="http://www.w3.org/2000/svg" xmlns:xlink="http://www.w3.org/1999/xlink">
    <!-- Generator: Sketch 58 (84663) - https://sketch.com -->
    <title>Delivery</title>
    <desc>Created with Sketch.</desc>
    <g id="Delivery" stroke="none" stroke-width="1" fill="none" fill-rule="evenodd" opacity="0.5">
        <g id="Bike" transform="translate(0.000000, 4.000000)" fill="#000000">
            <path d="M24.6498112,10.7202799 C24.7710834,10.3520241 24.7710834,9.95379858 24.6498112,9.58554277 C24.060689,7.79385253 22.3757995,7.05328724 21.0738394,6.7606445 C21.0443833,6.57550317 21.009036,6.40230645 20.9736886,6.24105433 C21.7862455,5.3769559 22.0130488,4.10527526 21.5504008,3.00744187 C21.0877529,1.90960849 20.0245715,1.19661836 18.8469575,1.19446016 C18.290666,0.442530042 17.4176213,0 16.4904687,0 L15.3122243,0 C14.3361347,0 13.5448577,0.802167043 13.5448577,1.79169024 L13.5448577,1.89919165 L11.8599682,1.42140759 C11.5558346,1.33499272 11.2293276,1.41962853 11.0034393,1.64343352 C10.777551,1.86723852 10.6865993,2.19621137 10.7648448,2.50643115 C10.8430902,2.81665093 11.0786455,3.06098785 11.3827793,3.14740252 L13.739268,3.81630021 C13.7910082,3.91752998 13.8521615,4.0135221 13.9218959,4.10297064 C14.852709,5.2974308 15.8895641,7.08912104 15.8895641,7.76399103 C15.8895641,8.92261738 15.1237052,10.1529113 14.7113197,10.1529113 C14.5305004,10.1293845 14.3604764,10.0525475 14.2223482,9.93193622 C13.7966598,9.58204591 13.5375458,9.06536941 13.5095104,8.51052863 C13.2929365,6.82622177 12.1505179,5.41328939 10.5638994,4.86742515 C10.3833104,4.80724526 10.1943271,4.77699511 10.0042333,4.77784063 L6.46950012,4.77784063 C2.41633939,4.77784063 0.324955586,10.1111052 0.10108915,10.7202799 C-0.0902150428,11.2688165 -0.00687427345,11.8773679 0.324596979,12.3523265 C0.656068231,12.827285 1.19439271,13.1095053 1.76830497,13.1092002 L1.81543475,13.1092002 C1.54389103,15.0261885 2.60662491,16.8812856 4.38362026,17.5921978 C6.16061562,18.30311 8.18661309,17.6837037 9.279613,16.0953506 L9.42689355,16.0953506 L18.4168983,16.0953506 C19.2887549,17.4570921 20.8594251,18.1840205 22.4454777,17.9598344 C24.0315304,17.7356482 25.3461501,16.6008884 25.8173186,15.0493124 C26.2884871,13.4977364 25.8310002,11.809925 24.6439199,10.7202799 L24.6498112,10.7202799 Z M5.89216036,16.0953506 C4.59070754,16.0953506 3.53567157,15.0257946 3.53567157,13.7064303 C3.53567157,12.3870661 4.59070754,11.31751 5.89216036,11.31751 L6.07478824,11.31751 L5.10273662,13.2883693 C4.91316016,13.7255349 5.09517369,14.2366013 5.51650415,14.4501659 C5.93783461,14.6637304 6.45034538,14.5047054 6.68158411,14.0886576 L7.65363574,12.1177983 C8.26024677,12.8224929 8.40540829,13.8212416 8.02506952,14.6733585 C7.64473075,15.5254753 6.80885763,16.0742076 5.88626914,16.0774337 L5.89216036,16.0953506 Z M9.96888598,14.3036604 C10.2261568,12.4553604 9.24359742,10.6581085 7.56119294,9.89962015 C5.87878846,9.1411318 3.90423308,9.60521021 2.72268293,11.0368119 C2.41633939,11.1144518 2.10410463,11.2040363 1.76830497,11.31751 C2.25905199,10.0637737 2.96069881,8.90588501 3.84201511,7.89538165 C3.83850027,7.94109996 3.83850027,7.98702625 3.84201511,8.03274457 C3.84201511,8.52750616 4.2376536,8.92858969 4.72569841,8.92858969 L9.438676,8.92858969 C9.92672081,8.92858969 10.3223593,8.52750616 10.3223593,8.03274457 C10.3223593,7.53798297 9.92672081,7.13689945 9.438676,7.13689945 L4.72569841,7.13689945 C5.24148989,6.76082081 5.85784798,6.55254054 6.493065,6.53966937 L10.0277982,6.53966937 C10.9578022,6.86493111 11.6365936,7.68151604 11.7951648,8.66580845 C11.872172,9.73217917 12.3979858,10.7134269 13.2385142,11.3593161 C13.6728376,11.7015992 14.2027463,11.8959951 14.7525582,11.9147401 C16.5199248,11.9147401 17.6981692,9.52581976 17.6981692,7.73412953 C17.6981692,6.39633415 16.3903179,4.39561338 15.7187186,3.46990676 L15.7187186,3.41615605 C15.8272312,3.0265042 15.6625978,2.61171045 15.3181155,2.40683722 L15.3181155,1.76182873 L16.4963599,1.76182873 C17.1470863,1.76182873 17.6746043,2.29660676 17.6746043,2.95628889 L17.6746043,2.95628889 L18.8528487,2.95628889 C19.5035751,2.95628889 20.0310931,3.49106692 20.0310931,4.15074905 C20.0310931,4.81043118 19.5035751,5.34520921 18.8528487,5.34520921 C19.2557074,6.2870348 19.4565175,7.30490405 19.4419709,8.33135961 C19.4419709,8.33135961 21.7984597,8.33135961 22.7233816,9.63332118 C21.398532,9.32602119 20.009394,9.70020435 19.0097408,10.6336407 C18.0100877,11.567077 17.5282912,12.939898 17.7217341,14.3036604 L9.96888598,14.3036604 Z M21.7984597,16.0953506 C20.8758712,16.0921245 20.0399981,15.5433922 19.6596593,14.6912754 C19.2793206,13.8391585 19.4244821,12.8404098 20.0310931,12.1357152 L21.0031448,14.1065745 C21.1343995,14.4092494 21.4194351,14.614027 21.744626,14.6392753 C22.0698169,14.6645237 22.3822887,14.5061376 22.5574787,14.2272554 C22.7326688,13.9483733 22.7420922,13.5943401 22.5819922,13.3062862 L21.6099406,11.3354269 L21.7925685,11.3354269 C23.0940213,11.3354269 24.1490573,12.404983 24.1490573,13.7243472 C24.1490573,15.0437115 23.0940213,16.1132675 21.7925685,16.1132675 L21.7984597,16.0953506 Z" id="Shape"></path>
        </g>
    </g>
</svg>