<?xml version="1.0" encoding="UTF-8"?>
<svg width="26px" height="26px" viewBox="0 0 26 26" version="1.1" xmlns="http://www.w3.org/2000/svg" xmlns:xlink="http://www.w3.org/1999/xlink">
    <!-- Generator: Sketch 58 (84663) - https://sketch.com -->
    <title>Location</title>
    <desc>Created with Sketch.</desc>
    <g id="Location" stroke="none" stroke-width="1" fill="none" fill-rule="evenodd">
        <g id="Group-9" transform="translate(7.000000, 5.000000)" fill="#FFFFFF">
            <path d="M6,0 C2.72104154,0.0843024032 0.0824290165,2.7828834 0,6.13636364 C0.0556305505,7.12786618 0.323011636,8.09485996 0.783333333,8.96931818 L0.83,9.05454545 C4.45666667,15 5.54,15 6,15 C6.72,15 7.49666667,14.4818182 9.33333333,11.8397727 C10.2966667,10.4761364 11.1233333,9.1125 11.1566667,9.05113636 L11.2033333,8.96931818 C11.6683011,8.09596306 11.94025,7.12891023 12,6.13636364 C11.917571,2.7828834 9.27895846,0.0843024032 6,0 L6,0 Z M10.3333333,8.52272727 C10.3333333,8.52272727 7,13.9772727 6,13.9772727 C5,13.9772727 1.66666667,8.52272727 1.66666667,8.52272727 C1.27914713,7.78559583 1.05174796,6.97161015 1,6.13636364 C1,3.31218026 3.23857625,1.02272727 6,1.02272727 C8.76142375,1.02272727 11,3.31218026 11,6.13636364 C10.9451596,6.97238247 10.7143371,7.78641143 10.3233333,8.52272727 L10.3333333,8.52272727 Z" id="Shape"></path>
            <path d="M5.5,3 C4.11928813,3 3,4.11928813 3,5.5 C3,6.88071187 4.11928813,8 5.5,8 C6.88071187,8 8,6.88071187 8,5.5 C8,4.11928813 6.88071187,3 5.5,3 Z M5.5,7.0625 C4.63705508,7.0625 3.9375,6.36294492 3.9375,5.5 C3.9375,4.63705508 4.63705508,3.9375 5.5,3.9375 C6.36294492,3.9375 7.0625,4.63705508 7.0625,5.5 C7.0625,6.36294492 6.36294492,7.0625 5.5,7.0625 Z" id="Shape"></path>
        </g>
    </g>
</svg>