<?xml version="1.0" encoding="UTF-8"?>
<svg width="26px" height="26px" viewBox="0 0 26 26" version="1.1" xmlns="http://www.w3.org/2000/svg" xmlns:xlink="http://www.w3.org/1999/xlink">
    <!-- Generator: Sketch 58 (84663) - https://sketch.com -->
    <title>Prize</title>
    <desc>Created with Sketch.</desc>
    <g id="Prize" stroke="none" stroke-width="1" fill="none" fill-rule="evenodd" opacity="0.5">
        <g id="Shape" transform="translate(4.000000, 4.000000)" fill="#000000">
            <path d="M16.5415385,3.71143582 C16.6789187,3.47142174 16.7517767,3.20385341 16.7538462,2.93174351 C16.7538462,1.94528197 16.0107692,0.670205049 13.8692308,0.670205049 C13.0461452,0.741872187 12.2422515,0.94438054 11.4923077,1.26897428 L11.6630769,1.04497428 C11.8203994,0.857795747 11.8547964,0.605072752 11.7526137,0.387126486 C11.650431,0.16918022 11.4281989,0.0212683666 11.1741349,0.00210617476 C10.9200709,-0.0170560171 10.6752756,0.0956313654 10.5369231,0.295435818 L8.85692308,2.4880512 L7.54615385,0.334205049 C7.35625286,0.0237360523 6.93264535,-0.0842666419 6.6,0.0929742793 C6.26735465,0.270215201 6.15163747,0.665582206 6.34153846,0.976051202 L6.65538462,1.48866659 C5.75105915,1.01331996 4.74576036,0.729483248 3.71076923,0.657281972 C2.82,0.657281972 2.28461538,1.06220505 1.73076923,1.42835889 C1.17698788,1.75129118 0.8311152,2.30976027 0.807692308,2.91882043 C0.809761757,3.19093033 0.88261975,3.45849867 1.02,3.69851274 C0.420082714,3.8513467 0.00292769356,4.35872801 1.58628666e-12,4.93912813 L1.58628666e-12,7.13174351 C1.58628666e-12,7.84546534 0.619913423,8.4240512 1.38461538,8.4240512 L1.38461538,16.1778974 C1.38461538,16.8916192 2.00452881,17.470205 2.76923077,17.470205 L14.7692308,17.470205 C15.5339327,17.470205 16.1538462,16.8916192 16.1538462,16.1778974 L16.1538462,8.4240512 C16.9185481,8.4240512 17.5384615,7.84546534 17.5384615,7.13174351 L17.5384615,4.9520512 C17.5384615,4.37769223 17.1323077,3.87225633 16.5415385,3.71143582 L16.5415385,3.71143582 Z M15.3692308,2.93174351 C15.3435537,3.11240885 15.2292547,3.27163129 15.06,3.36251274 C14.7828183,3.5543056 14.44949,3.66251651 14.1046154,3.67266659 L10.0707692,3.67266659 C11.0206949,2.62498412 12.3996898,1.99943764 13.8692308,1.94958966 C15.0646154,1.96251274 15.3692308,2.61728197 15.3692308,2.93174351 Z M1.40769231,4.97789736 L7.86923077,4.97789736 L7.86923077,7.13174351 L1.40769231,7.13174351 L1.40769231,4.97789736 Z M3.71538462,1.96251274 C5.18492558,2.01236072 6.56392045,2.63790719 7.51384615,3.68558966 L3.48461538,3.68558966 C2.61692308,3.68558966 2.22,3.22035889 2.22,2.95328197 C2.22,2.68620505 2.52,1.96251274 3.71538462,1.96251274 Z M2.79230769,8.4240512 L7.86923077,8.4240512 L7.86923077,16.1778974 L2.79230769,16.1778974 L2.79230769,8.4240512 Z M14.7923077,16.1778974 L9.25384615,16.1778974 L9.25384615,8.4240512 L14.7923077,8.4240512 L14.7923077,16.1778974 Z M16.1769231,7.13174351 L9.25384615,7.13174351 L9.25384615,4.97789736 L16.1769231,4.97789736 L16.1769231,7.13174351 Z"></path>
        </g>
    </g>
</svg>