<?xml version="1.0" encoding="UTF-8"?>
<svg width="36px" height="21px" viewBox="0 0 36 21" version="1.1" xmlns="http://www.w3.org/2000/svg" xmlns:xlink="http://www.w3.org/1999/xlink">
    <title>Group 4</title>
    <defs>
        <linearGradient x1="50%" y1="0%" x2="50%" y2="100%" id="linearGradient-1">
            <stop stop-color="#FDD631" offset="0%"></stop>
            <stop stop-color="#F9AD16" offset="100%"></stop>
        </linearGradient>
    </defs>
    <g id="Payment" stroke="none" stroke-width="1" fill="none" fill-rule="evenodd">
        <g id="Payment-Method" transform="translate(-34.000000, -566.000000)">
            <g id="Group-4" transform="translate(35.689575, 567.000000)">
                <g id="Group-7" transform="translate(1.392327, 5.312500)" fill="#F7A10D">
                    <path d="M4.587875,4.64833125 L5.35925,4.64833125 L5.35925,3.86208125 L4.587875,3.86208125 L4.587875,4.64833125 Z M3.96525,5.26139375 L5.947875,5.26139375 L5.947875,3.23945625 L3.96525,3.23945625 L3.96525,5.26139375 Z M9.01,5.26670625 L7.023125,5.26670625 L7.023125,2.24283125 L3.9684375,2.24283125 L3.9684375,0.23151875 C4.060875,0.22620625 4.1511875,0.21451875 4.2415,0.21451875 C5.633375,0.21451875 7.0263125,0.21451875 8.41925,0.21664375 C8.8623125,0.21664375 9.0216875,0.37176875 9.02275,0.81058125 C9.0238125,2.21308125 9.02275,3.61664375 9.02275,5.02020625 C9.02275,5.09139375 9.0153125,5.16258125 9.01,5.26670625 L9.01,5.26670625 Z M29.66925,3.23095625 L29.66925,8.26508125 L21.6973125,8.26508125 L21.6973125,6.29626875 L26.9705,6.29626875 L26.9705,5.27733125 L21.68775,5.27733125 L21.68775,0.23258125 L29.6533125,0.23258125 L29.6533125,2.22583125 L24.3641875,2.22583125 L24.3641875,3.23095625 L29.66925,3.23095625 Z M18.838125,8.30970625 L20.776125,8.30970625 L20.776125,0.21451875 L18.838125,0.21451875 L18.838125,8.30970625 Z M2.964375,0.20920625 L2.964375,6.35364375 L5.9701875,6.35364375 L5.9701875,8.31714375 C5.8660625,8.32351875 5.76725,8.33414375 5.667375,8.33414375 C4.294625,8.33520625 2.921875,8.33520625 1.549125,8.33520625 C1.073125,8.33414375 0.903125,8.17051875 0.904182555,7.70514375 C0.90525,5.41758125 0.9084375,3.12895625 0.91375,0.84033125 C0.91375,0.37708125 1.088,0.21133125 1.5586875,0.20920625 C2.0145,0.20814375 2.4703125,0.20920625 2.964375,0.20920625 L2.964375,0.20920625 Z M17.9636875,5.16576875 L14.596625,5.16576875 C15.7473125,6.24101875 16.8331875,7.25676875 17.986,8.33520625 C17.3750625,8.33520625 16.844875,8.28208125 16.3285,8.34583125 C15.4370625,8.45633125 14.7804375,8.16414375 14.1811875,7.49370625 C13.5118125,6.74464375 12.733,6.09439375 12.0009375,5.40164375 C11.9425,5.34639375 11.8798125,5.29539375 11.77675,5.20720625 L11.77675,8.31076875 L9.9056875,8.31076875 L9.9056875,3.30001875 L15.79725,3.30001875 L15.79725,2.10364375 L9.90675,2.10364375 L9.90675,0.23470625 L17.9636875,0.23470625 L17.9636875,5.16576875 Z M7.027375,10.3486438 L9.0089375,10.3486438 L9.0089375,6.30689375 L7.027375,6.30689375 L7.027375,10.3486438 Z" id="Fill-1"></path>
                </g>
                <polyline id="Path-2" stroke="url(#linearGradient-1)" stroke-width="2" stroke-linecap="round" stroke-linejoin="round" points="0 4.83710237 0 0 4.57982683 0"></polyline>
                <polyline id="Path-2-Copy" stroke="url(#linearGradient-1)" stroke-width="2" stroke-linecap="round" stroke-linejoin="round" transform="translate(30.977413, 16.231051) scale(-1, -1) translate(-30.977413, -16.231051) " points="28.6875 18.6496024 28.6875 13.8125 33.2673268 13.8125"></polyline>
            </g>
        </g>
    </g>
</svg>