<?xml version="1.0" encoding="UTF-8"?>
<svg width="13px" height="13px" viewBox="0 0 13 13" version="1.1" xmlns="http://www.w3.org/2000/svg" xmlns:xlink="http://www.w3.org/1999/xlink">
    <!-- Generator: sketchtool 59.1 (101010) - https://sketch.com -->
    <title>CEA1077B-0A3C-43FB-85AB-0B0AA92AE184</title>
    <desc>Created with sketchtool.</desc>
    <g id="Top-Up-&amp;-Billing" stroke="none" stroke-width="1" fill="none" fill-rule="evenodd">
        <g id="Top-Up-&amp;-Billing---Mobile-Package-Selected" transform="translate(-244.000000, -814.000000)" fill="#777777">
            <g id="Info-Symbol" transform="translate(244.000000, 814.000000)">
                <g id="noun_Information_2119887-Copy">
                    <path d="M6.48238482,0 C10.0758808,0 13,2.92411924 13,6.48238482 C13,10.0758808 10.0758808,13 6.48238482,13 C2.92411924,13 0,10.0758808 0,6.48238482 C0,2.92411924 2.92411924,0 6.48238482,0 Z M6.5,2.78571429 C7.02619048,2.78571429 7.42857143,3.21904762 7.42857143,3.71428571 C7.39761905,4.24047619 6.9952381,4.64285714 6.5,4.64285714 C5.97380952,4.64285714 5.57142857,4.20952381 5.57142857,3.71428571 C5.57142857,3.18809524 6.0047619,2.78571429 6.5,2.78571429 Z M8.35143747,10.2484718 C8.02104678,11.4388982 4.79056009,11.5471188 5.01082055,9.92381007 C5.15766085,8.84160425 5.37792131,7.79547196 5.56147169,6.74933967 C5.67160192,6.06394265 5.23108101,6.28038381 4.82727017,6.1360897 C4.57029964,6.02786912 4.57029964,5.70320738 4.90069032,5.63106032 C5.30450116,5.52283974 6.73619412,5.59498679 7.21342511,5.59498679 C7.47039564,5.59498679 7.61723595,5.7392809 7.65394602,5.99179559 C7.65394602,6.20823676 7.61723595,6.38860439 7.58052587,6.60504556 C7.39697549,7.61510432 7.14000496,8.69731014 6.99316465,9.70736891 C6.99316465,9.92381007 7.02987473,10.3206189 7.36026542,10.2845453 C7.6906561,10.2845453 7.8374964,10.1402512 8.09446694,10.0320307 C8.24130724,9.9598836 8.38814754,10.0681042 8.35143747,10.2484718 Z" id="Shape"></path>
                </g>
            </g>
        </g>
    </g>
</svg>