<?xml version="1.0" encoding="utf-8"?>
<svg width="158px" height="21px" viewBox="0 0 158 21" version="1.1" xmlns:xlink="http://www.w3.org/1999/xlink" xmlns="http://www.w3.org/2000/svg">
    <desc>Created with Lunacy</desc>
    <defs>
        <path d="M0 0L8.87701 0L8.87701 20.5809L0 20.5809L0 0Z" transform="translate(0.03780988 0.1702941)" id="path_1" />
        <clipPath id="mask_1">
            <use xlink:href="#path_1" />
        </clipPath>
    </defs>
    <g id="Group-22">
        <path d="M0 0L0 4.71839L4.70305 4.71839L4.70305 18L10.2422 18L10.2422 4.71839L15 4.71839L15 0L0 0Z" transform="translate(0 2)" id="Fill-1" fill="#DB2428" stroke="none" />
        <g id="Group-21" transform="translate(18 0)">
            <path d="M13.1378 9.01924C12.1088 8.11924 10.6779 7.53847 8.98046 7.09694C8.50827 6.98153 8.06122 6.82571 7.61015 6.63582C7.24462 6.47312 6.83825 6.29224 6.59421 5.94547C6.45264 5.72665 6.46451 5.45806 6.5689 5.22794C6.71169 4.96518 6.95765 4.85118 7.23206 4.77847C7.53143 4.70047 7.9303 4.71459 8.23578 4.77847C8.56657 4.84288 8.89213 4.94382 9.21489 5.07318C9.95136 5.37124 10.6496 5.78171 11.3056 6.237L11.8497 6.63582L14.4917 2.71588L14 2.31229C12.207 0.831353 9.97964 0 7.42529 0L7.40278 0C5.57914 0 3.95729 0.547941 2.78547 1.57024C1.60928 2.58741 0.921681 4.08088 0.921681 5.80218L0.921681 5.83659L0.921681 5.87347L0.921681 5.931C0.905622 7.79082 1.58676 9.07924 2.68911 9.963C3.77907 10.8392 5.2679 11.3282 6.93652 11.7494C7.38515 11.8572 7.84162 11.9661 8.25481 12.1768C8.66258 12.3759 9.16148 12.7338 9.16148 13.2596L9.16148 13.2889C9.16148 13.5448 9.07245 13.7257 8.82056 13.8918C8.56657 14.0704 8.11638 14.2106 7.42529 14.2106C6.26516 14.2106 4.9399 13.5085 3.51374 12.2981L2.99319 11.868L0 15.5472L0.480391 16.0039C2.60183 17.9458 5.30805 18.9002 7.98284 18.9002C9.87944 18.9002 11.5661 18.399 12.7904 17.3755C14.027 16.3555 14.7542 14.8117 14.7542 12.9409L14.7542 12.8361C14.7542 11.1766 14.1572 9.92612 13.1378 9.01924" transform="translate(54.25564 2.099788)" id="Fill-2" fill="#DB2428" stroke="none" />
            <path d="M10.3178 0L10.3178 8.12559L4.28721 0L0 0L0 18.0575L5.4744 18.0575L5.4744 9.60247L11.7565 18.0575L15.7911 18.0575L15.7911 0L10.3178 0Z" transform="translate(37.12562 2.515041)" id="Fill-4" fill="#DB2428" stroke="none" />
            <path d="M12.0386 11.5181L15.1618 18.0579L9.09218 18.0579L6.57937 12.7041C6.46992 12.7041 6.35803 12.7055 6.2402 12.7055L5.48156 12.7055L5.48156 18.0579L0 18.0579L0 0L8.11254 0C10.2998 0 12.1023 0.639353 13.3253 1.89247C14.3756 2.96241 14.9122 4.46788 14.9122 6.17788L14.9122 6.27953C14.9122 6.85429 14.8557 7.45729 14.7155 8.01247C14.3316 9.53771 13.3392 10.7684 12.0386 11.5181ZM7.28198 4.66676L5.48156 4.66676L5.48156 8.11659L7.34203 8.11659C8.119 8.09276 8.63587 7.91418 8.9541 7.63165C9.26604 7.35318 9.42733 6.95682 9.44496 6.42176C9.44496 5.78806 9.25172 5.37988 8.94101 5.11306C8.61143 4.84835 8.07815 4.69288 7.28198 4.66676Z" transform="translate(0.01473294 2.513718)" id="Fill-6" fill="#DB2428" fill-rule="evenodd" stroke="none" />
            <path d="M6.90737 2.47571C8.32743 2.47571 9.36798 3.11224 9.98122 4.20388C10.6042 5.29271 10.849 6.07306 10.849 8.13035L10.849 18.0388L13.4644 18.0388L13.4644 8.13035C13.4644 6.15088 13.6089 5.23676 14.2328 4.20865C14.8387 3.17188 15.8864 2.48506 17.5699 2.47571C18.7608 2.47571 19.8614 2.81735 20.561 3.87547C21.2278 4.72976 21.2968 5.90576 21.2968 7.46471L21.2968 18.0388L24.0061 18.0388L24.0061 6.97324C23.9904 2.58053 21.4654 0.0130588 17.7816 0C15.2898 0.00476471 13.6648 0.942529 12.6239 2.94759L12.4497 3.30159L12.2652 2.94759C11.1916 0.869824 9.6588 0.0130588 7.23467 0C3.83929 0 2.602 2.89924 2.602 2.89924L2.602 0.297353L0 0.297353L0 18.0388L2.79123 18.0388L2.79123 8.72012C2.79123 6.68788 3.08641 5.21541 3.75411 4.15871C4.43489 3.08682 5.50268 2.47571 6.90737 2.47571" transform="translate(71.47626 2.529229)" id="Fill-8" fill="#DB2428" stroke="none" />
            <path d="M0 9.01659C0 6.59559 0.84854 4.33659 2.41697 2.66771C4.1158 0.826588 6.07716 0.00317647 8.63727 0C10.9376 0.00317647 12.8623 0.826588 14.4714 2.53959L14.8223 2.91176L14.8223 0.190941L17.451 0.190941L17.451 17.9335L14.8223 17.9335L14.8223 15.2531L14.4714 15.6221C12.8885 17.2969 10.9626 18.1262 8.82859 18.1276C3.69685 18.1186 0.00576051 14.208 0 9.01659ZM2.73362 8.94724C2.75143 12.7703 5.61213 15.5167 9.02637 15.5222C12.2289 15.5167 15.1206 12.6162 15.1206 9.18194C15.1206 5.45294 12.2203 2.60947 8.95689 2.60947C5.57635 2.60947 2.75143 5.35553 2.73362 8.94724Z" transform="translate(97.57646 2.635676)" id="Fill-10" fill="#DB2428" fill-rule="evenodd" stroke="none" />
            <path d="M0 10.8261L2.58123 10.8261L6.06966 4.63006L9.55249 10.8261L12.1412 10.8261L6.06966 0L0 10.8261Z" transform="translate(20.09019 9.745464)" id="Fill-12" fill="#DB2428" stroke="none" />
            <path d="M10.4712 4.599L18.3612 18.5792L20.9323 18.5792L10.4712 0L0 18.5792L2.58158 18.5792L10.4712 4.599Z" transform="translate(15.69042 1.993482)" id="Fill-14" fill="#DB2428" stroke="none" />
            <path d="M8.77378 0L8.77378 0C6.49698 0.0107647 4.58118 0.842647 2.9836 2.53888L2.63203 2.91L2.63203 0.190235L0 0.190235L0 17.9338L2.80572 17.9338L2.80572 9.59665L2.80572 8.60082C2.80572 4.66376 5.54091 2.06082 10.1671 2.44094L10.1603 2.44094L10.1603 0L8.77378 0Z" transform="translate(118.0164 2.636365)" id="Fill-16" fill="#DB2428" stroke="none" />
            <g id="Group-20" transform="translate(130.0478 0)">
                <path d="M0 0L8.87701 0L8.87701 20.5809L0 20.5809L0 0Z" transform="translate(0.03780988 0.1702941)" id="Clip-19" fill="none" stroke="none" />
                <g clip-path="url(#mask_1)">
                    <path d="M8.7956 18.5428C7.60876 18.5428 6.62144 17.9361 5.95218 17.0721C5.2782 16.2187 4.93379 14.8204 4.93379 13.26L4.93379 4.85471L8.67218 4.85471L8.67218 2.466L4.93379 2.466L4.93379 0L2.33475 0L2.33475 2.466L0 2.466L0 4.92882L2.20907 4.92882L2.21675 13.6082C2.237 17.9975 4.75539 20.5643 8.44368 20.5809C8.59573 20.5809 8.73729 20.574 8.87712 20.5654L8.87712 18.5363C8.856 18.5363 8.82667 18.5428 8.7956 18.5428" transform="translate(0.03780988 0.1702941)" id="Fill-18" fill="#DB2428" stroke="none" />
                </g>
            </g>
        </g>
    </g>
</svg>