<?xml version="1.0" encoding="UTF-8"?>
<svg width="1879px" height="246px" viewBox="0 0 1879 246" version="1.1" xmlns="http://www.w3.org/2000/svg" xmlns:xlink="http://www.w3.org/1999/xlink">
    <!-- Generator: Sketch 59.1 (86144) - https://sketch.com -->
    <title>Group 3</title>
    <desc>Created with Sketch.</desc>
    <defs>
        <polygon id="path-1" points="0.0005 0.0008 1878.152 0.0008 1878.152 245.113657 0.0005 245.113657"></polygon>
    </defs>
    <g id="Symbols" stroke="none" stroke-width="1" fill="none" fill-rule="evenodd">
        <g id="Group-3">
            <mask id="mask-2" fill="white">
                <use xlink:href="#path-1"></use>
            </mask>
            <g id="Clip-2"></g>
            <path d="M1625.5225,135.5218 L1625.5225,30.9348 L1641.3575,30.9348 L1657.1935,30.9348 L1657.1935,46.8678 L1657.1935,62.8008 L1663.0635,57.1918 C1678.1575,42.7718 1693.3795,34.6508 1712.4075,30.8698 C1716.9005,29.9768 1724.5375,29.2968 1733.6085,28.9828 L1747.7865,28.4928 L1747.7865,42.8708 L1747.7865,57.2488 L1735.0815,57.6428 C1727.6455,57.8738 1720.0855,58.5328 1716.8525,59.2318 C1687.7975,65.5178 1669.0285,82.4508 1661.7265,108.9638 L1659.7885,116.0038 L1659.5715,178.0568 L1659.3555,240.1098 L1642.4385,240.1098 L1625.5225,240.1098 L1625.5225,135.5218 Z M1064.2865,135.5218 L1064.2865,30.9348 L1079.7385,30.9348 L1095.1905,30.9348 L1095.3895,46.1638 L1095.5885,61.3938 L1098.4575,56.7448 C1104.7315,46.5758 1115.7315,37.2518 1126.9665,32.5798 C1135.9425,28.8468 1143.1775,27.7358 1155.5745,28.1888 C1182.2535,29.1618 1198.5345,38.6538 1210.8125,60.3958 C1212.5285,63.4338 1214.0225,66.0128 1214.1335,66.1258 C1214.2465,66.2388 1215.9555,63.4218 1217.9325,59.8648 C1222.1685,52.2508 1232.9585,40.9088 1239.7565,36.9238 C1256.2195,27.2768 1284.7975,25.0998 1304.9115,31.9588 C1329.7705,40.4378 1344.9155,58.7428 1351.7295,88.5478 C1353.2535,95.2158 1353.2975,97.1288 1353.5505,167.7458 L1353.8105,240.1098 L1337.2315,240.1098 L1320.6525,240.1098 L1320.4095,165.9038 C1320.1825,97.1818 1320.0675,91.3748 1318.8485,87.3188 C1314.2325,71.9678 1304.1185,61.8888 1289.8645,58.4378 C1283.1945,56.8228 1268.8935,56.8208 1262.2345,58.4338 C1245.0465,62.5958 1232.7955,76.0988 1228.3785,95.7508 C1226.8465,102.5658 1226.7985,104.5238 1226.5175,171.4288 L1226.2275,240.1098 L1210.4685,240.1098 L1194.7095,240.1098 L1194.4565,171.0598 C1194.1695,92.8978 1194.5435,97.9558 1188.0655,84.3338 C1180.9435,69.3538 1172.7425,61.8198 1159.8505,58.4128 C1154.2335,56.9288 1141.4595,56.7748 1135.7295,58.1228 C1120.3435,61.7428 1108.3035,73.8518 1102.7105,91.3308 C1098.1705,105.5208 1097.4805,118.1208 1097.4525,187.2638 L1097.4325,240.1098 L1080.8605,240.1098 L1064.2865,240.1098 L1064.2865,135.5218 Z M649.6195,133.6808 L649.6195,27.2518 L675.2695,27.2518 L700.9195,27.2518 L702.4175,28.9088 C703.2415,29.8208 719.6225,51.2568 738.8195,76.5458 L773.7255,122.5258 L773.9145,74.8888 L774.1045,27.2518 L807.2425,27.2518 L840.3815,27.2518 L840.3815,133.6808 L840.3815,240.10993 C824.0545,240.10993 807.7285,240.0898 791.4015,240.1058 L753.8385,190.6028 L716.2755,141.1758 L716.0865,190.6408 L715.8965,240.1058 L682.7585,240.1058 L649.6195,240.1058 L649.6195,133.6808 Z M444.7925,240.1058 C444.8575,239.9378 448.5795,232.9298 453.9245,223.5658 C473.1335,189.9178 516.9745,113.4188 517.4095,112.859488 C517.4945,112.7508 533.9805,141.2538 554.0475,176.2018 L590.7455,240.1058 C580.4125,240.1178 569.3095,240.0908 559.5765,240.1058 C559.1315,239.9348 550.0325,223.4258 538.7195,203.7558 C527.4055,184.0858 517.8695,168.0718 517.5275,168.1678 C517.1855,168.2648 507.5805,184.4918 496.1825,204.2268 L475.4595,240.1098 C468.7845,240.0518 461.4315,240.2138 455.5675,240.1058 C452.6705,240.0458 449.1865,240.1828 444.7925,240.1058 L444.7925,240.1058 Z M391.6365,240.1058 C391.7305,239.8628 393.3225,236.7918 395.4025,233.1338 C415.3345,198.0818 516.9655,22.6778 517.4755,22.5837352 C517.8345,22.5188 546.3555,71.3518 580.8545,131.1028 L643.7815,240.1058 C632.7985,239.8988 623.0995,240.3448 612.8855,240.1058 C612.4105,239.5908 590.5655,201.9758 564.9575,157.6178 C539.3475,113.2608 518.1605,76.7228 517.8745,76.4228 C517.5885,76.1238 495.9935,112.8308 469.8855,157.9938 L422.4165,240.1098 C412.0965,240.0958 400.8425,240.1048 391.6365,240.1058 L391.6365,240.1058 Z M303.4915,121.2568 C311.4075,118.3248 315.9515,111.6958 315.964554,103.0618 C315.9755,96.2868 314.3185,91.9458 310.4165,88.5098 C305.0765,83.8098 301.6475,83.0588 283.7485,82.6678 L268.0975,82.3268 L268.0975,102.7358 L268.0975,123.1448 L284.1165,122.8218 C296.7275,122.5678 300.8505,122.2348 303.4915,121.2558 L303.4915,121.2568 Z M202.5455,133.6808 L202.5455,27.2518 L250.6045,27.2518 C300.3625,27.2558 313.9615,27.7868 324.7385,30.1498 C357.9425,37.4308 377.7775,58.8068 381.5655,91.3958 C383.7315,110.0218 379.6455,128.6438 370.4065,142.2508 C366.4545,148.0738 358.9025,155.5838 353.1275,159.4338 C350.7185,161.0408 348.4735,162.5738 348.1385,162.8408 C347.6385,163.2408 366.5645,202.8558 381.6235,232.9278 L385.2185,240.1098 L348.5165,240.1098 L311.8145,240.1098 L296.8785,208.9908 C288.6645,191.8758 281.7275,177.8868 281.4645,177.6558 C276.9795,177.6588 272.1775,177.6668 268.0975,177.6558 L268.0975,208.8818 L268.0975,240.1098 L235.3215,240.1098 L202.5455,240.1098 L202.5455,133.6808 Z M55.9765,161.6678 L55.9765,83.2288 L27.9885,83.2288 L0.0005,83.2288 L0.0005,55.2398 L0.0005,27.2518 L89.4885,27.2518 L178.9775,27.2518 L178.9775,55.2398 L178.9775,83.2288 L150.6205,83.2288 L122.2635,83.2288 L122.2635,161.6678 L122.2635,240.1088 L89.1205,240.1088 L55.9765,240.1088 L55.9765,161.6678 Z M1859.9595,241.1718 C1839.6385,238.2088 1822.9505,228.0788 1812.1035,212.1218 C1806.8585,204.4048 1802.7715,194.4148 1799.9015,182.2918 C1798.3815,175.8728 1798.3235,173.8038 1798.0645,116.9248 L1797.7965,58.1868 L1784.5765,58.1868 L1771.3555,58.1868 L1771.3555,43.4558 L1771.3555,28.7248 L1785.3495,28.7248 L1799.3435,28.7248 L1799.3435,14.3628 L1799.3435,0.0008 L1814.8105,0.0008 L1830.2775,0.0008 L1830.2775,14.3518 L1830.2775,28.7038 L1852.9255,28.8978 L1875.5745,29.0928 L1875.7845,41.6138 C1875.9005,48.5008 1875.8125,54.8808 1875.5855,55.7928 L1875.1775,57.4498 L1852.7185,57.4498 L1830.2595,57.4498 L1830.3535,110.2958 C1830.4545,166.2468 1830.7535,172.2408 1833.9945,182.9658 C1834.8615,185.8358 1836.9405,190.8348 1838.6145,194.0758 C1845.6305,207.6568 1861.2105,218.0128 1874.6245,218.0128 L1878.1525,218.0128 L1878.1525,230.1668 L1878.1525,242.3188 L1872.4445,242.2398 C1869.3045,242.1968 1863.6865,241.7158 1859.9595,241.1718 L1859.9595,241.1718 Z M1505.8355,209.2598 C1517.3085,205.7978 1528.3125,199.4088 1537.0595,191.1298 C1544.5575,184.0338 1549.1045,177.8178 1553.7615,168.2968 C1565.7315,143.8298 1563.3335,115.5268 1547.3215,92.3028 C1531.4035,69.2138 1504.0825,56.7488 1477.3275,60.3668 C1441.1135,65.2658 1414.1325,94.2458 1412.1575,130.3668 C1410.0675,168.5708 1434.9425,201.8948 1471.5865,209.9838 C1480.3255,211.9128 1498.3055,211.5328 1505.8355,209.2598 L1505.8355,209.2598 Z M1470.8505,241.5668 C1425.2195,235.2428 1392.1465,205.2758 1381.8565,160.9318 C1372.5055,120.6348 1386.0215,78.3538 1416.5325,52.4498 C1435.5615,36.2938 1455.7795,29.2298 1483.0035,29.2298 C1510.2745,29.2298 1531.1705,37.6868 1551.6855,57.0288 L1557.7615,62.7588 L1557.7615,46.8468 L1557.7615,30.9348 L1573.5965,30.9348 L1589.4325,30.9348 L1589.4325,135.5218 L1589.4325,240.1088 L1573.5965,240.1088 L1557.7615,240.1088 L1557.7615,224.5808 L1557.7615,209.0518 L1550.9485,215.4328 C1537.0345,228.4628 1522.8765,236.1768 1505.4675,240.2098 C1498.2555,241.8808 1478.6625,242.6488 1470.8505,241.5668 L1470.8505,241.5668 Z M939.0765,244.4618 C912.2295,241.8808 885.0065,230.3508 864.2155,212.7538 C860.9185,209.9638 857.8305,207.2098 857.3535,206.6358 C856.6485,205.7878 859.8265,201.5848 874.3335,184.1828 C884.1495,172.4078 892.3745,162.7738 892.6115,162.7748 C892.8495,162.7748 895.5285,164.8098 898.5665,167.2968 C910.8705,177.3698 921.8465,184.0028 932.0795,187.5498 C937.2505,189.3428 939.0525,189.5928 946.8095,189.5898 C954.3945,189.5878 956.1685,189.3528 959.3215,187.9288 C964.0805,185.7808 966.1975,183.7368 966.7575,180.7488 C967.8025,175.1758 963.4415,169.5838 955.0015,165.6768 C952.5215,164.5288 945.3545,162.2718 939.0765,160.6608 C916.5345,154.8788 904.4065,150.2458 893.9125,143.4058 C879.7465,134.1708 872.0895,122.8428 868.7005,106.1028 C866.9865,97.6348 867.5415,80.8668 869.7965,73.0448 C875.8875,51.9098 890.5465,36.4628 911.9475,28.6298 C922.2815,24.8468 929.5195,23.5278 942.3905,23.0818 C966.2605,22.2548 988.0725,27.3308 1007.9405,38.3368 C1015.5035,42.5278 1030.8675,53.8178 1030.6295,55.0118 C1030.5495,55.4118 1023.4885,65.8708 1014.9365,78.2528 L999.3875,100.7678 L991.3245,95.3178 C967.6475,79.3168 946.5035,74.0688 937.8115,82.0348 C935.8075,83.8718 935.1725,85.1008 934.9005,87.6728 C934.5965,90.5488 934.8445,91.3088 936.8745,93.7308 C940.8745,98.5038 948.5055,101.6208 975.1655,109.3708 C1004.6295,117.9358 1022.4845,131.1668 1030.0575,150.0468 C1035.8995,164.6128 1035.4315,187.1888 1028.9655,202.7208 C1016.4755,232.7238 982.2575,248.6138 939.0765,244.4618 L939.0765,244.4618 Z" id="Fill-1" fill="#FFFFFF" mask="url(#mask-2)"></path>
        </g>
    </g>
</svg>