<?xml version="1.0" encoding="utf-8"?>
<svg xmlns="http://www.w3.org/2000/svg"
  role="img"
  width="1175"
  height="380"
  aria-labelledby="loading-aria"
  viewBox="0 0 1175 380"
  preserveAspectRatio="none"
>
  <title id="loading-aria">Loading...</title>
  <rect
    x="0"
    y="0"
    width="100%"
    height="100%"
    clip-path="url(#clip-path)"
    style='fill: url("#fill");'
  ></rect>
    <rect
        x="1018"
        y="343"
        width="113"
        height="15"
        clip-path="url(#clip-path)"
        style='fill: url("#fill1");'
    ></rect>
    <rect
        x="1004"
        y="317"
        width="143"
        height="15"
        clip-path="url(#clip-path)"
        style='fill: url("#fill2");'
    ></rect>

    <rect
        x="771"
        y="343"
        width="113"
        height="15"
        clip-path="url(#clip-path)"
        style='fill: url("#fill1");'
    ></rect>
    <rect
        x="757"
        y="317"
        width="143"
        height="15"
        clip-path="url(#clip-path)"
        style='fill: url("#fill2");'
    ></rect>

    <rect
        x="527"
        y="343"
        width="113"
        height="15"
        clip-path="url(#clip-path)"
        style='fill: url("#fill1");'
    ></rect>
    <rect
        x="513"
        y="317"
        width="143"
        height="15"
        clip-path="url(#clip-path)"
        style='fill: url("#fill2");'
    ></rect>

    <rect
        x="34"
        y="343"
        width="113"
        height="15"
        clip-path="url(#clip-path)"
        style='fill: url("#fill1");'
    ></rect>
    <rect
        x="20"
        y="317"
        width="143"
        height="15"
        clip-path="url(#clip-path)"
        style='fill: url("#fill2");'
    ></rect>

    <rect
        x="278"
        y="343"
        width="113"
        height="15"
        clip-path="url(#clip-path)"
        style='fill: url("#fill1");'
    ></rect>
    <rect
        x="264"
        y="317"
        width="143"
        height="15"
        clip-path="url(#clip-path)"
        style='fill: url("#fill2");'
    ></rect>
  <defs>
    <clipPath id="clip-path">
        <rect x="0" y="0" rx="8" ry="8" width="429" height="27" />
        <rect x="1080" y="0" rx="8" ry="8" width="91" height="27" />
        <rect x="0" y="59" rx="8" ry="8" width="187" height="199" />
        <rect x="0" y="283" rx="8" ry="8" width="187" height="20" />
        <rect x="20" y="317" rx="8" ry="8" width="143" height="15" />
        <rect x="34" y="343" rx="8" ry="8" width="113" height="15" />
        <rect x="244" y="59" rx="8" ry="8" width="187" height="199" />
        <rect x="244" y="283" rx="8" ry="8" width="187" height="20" />
        <rect x="264" y="317" rx="8" ry="8" width="143" height="15" />
        <rect x="278" y="343" rx="8" ry="8" width="113" height="15" />
        <rect x="493" y="59" rx="8" ry="8" width="187" height="199" />
        <rect x="493" y="283" rx="8" ry="8" width="187" height="20" />
        <rect x="513" y="317" rx="8" ry="8" width="143" height="15" />
        <rect x="527" y="343" rx="8" ry="8" width="113" height="15" />
        <rect x="737" y="59" rx="8" ry="8" width="187" height="199" />
        <rect x="737" y="283" rx="8" ry="8" width="187" height="20" />
        <rect x="757" y="317" rx="8" ry="8" width="143" height="15" />
        <rect x="771" y="343" rx="8" ry="8" width="113" height="15" />
        <rect x="984" y="59" rx="8" ry="8" width="187" height="199" />
        <rect x="984" y="283" rx="8" ry="8" width="187" height="20" />
        <rect x="1004" y="317" rx="8" ry="8" width="143" height="15" />
        <rect x="1018" y="343" rx="8" ry="8" width="113" height="15" />
    </clipPath>
    <linearGradient id="fill">
      <stop
        offset="0.599964"
        stop-color="#e4e3e3"
        stop-opacity="1"
      >
        <animate
          attributeName="offset"
          values="-2; -2; 1"
          keyTimes="0; 0.25; 1"
          dur="2s"
          repeatCount="indefinite"
        ></animate>
      </stop>
      <stop
        offset="1.59996"
        stop-color="#fbfbfb"
        stop-opacity="1"
      >
        <animate
          attributeName="offset"
          values="-1; -1; 2"
          keyTimes="0; 0.25; 1"
          dur="2s"
          repeatCount="indefinite"
        ></animate>
      </stop>
      <stop
        offset="2.59996"
        stop-color="#e4e3e3"
        stop-opacity="1"
      >
        <animate
          attributeName="offset"
          values="0; 0; 3"
          keyTimes="0; 0.25; 1"
          dur="2s"
          repeatCount="indefinite"
        ></animate>
      </stop>
    </linearGradient>
      <linearGradient id="fill1">
          <stop
              offset="0.599964"
              stop-color="#ffc2c2"
              stop-opacity="1"
          >
              <animate
                  attributeName="offset"
                  values="-2; -2; 1"
                  keyTimes="0; 0.25; 1"
                  dur="2s"
                  repeatCount="indefinite"
              ></animate>
          </stop>
          <stop
              offset="1.59996"
              stop-color="#fbfbfb"
              stop-opacity="1"
          >
              <animate
                  attributeName="offset"
                  values="-1; -1; 2"
                  keyTimes="0; 0.25; 1"
                  dur="2s"
                  repeatCount="indefinite"
              ></animate>
          </stop>
          <stop
              offset="2.59996"
              stop-color="#e4e3e3"
              stop-opacity="1"
          >
              <animate
                  attributeName="offset"
                  values="0; 0; 3"
                  keyTimes="0; 0.25; 1"
                  dur="2s"
                  repeatCount="indefinite"
              ></animate>
          </stop>
      </linearGradient>
      <linearGradient id="fill2">
          <stop
              offset="0.599964"
              stop-color="#ffca77"
              stop-opacity="1"
          >
              <animate
                  attributeName="offset"
                  values="-2; -2; 1"
                  keyTimes="0; 0.25; 1"
                  dur="2s"
                  repeatCount="indefinite"
              ></animate>
          </stop>
          <stop
              offset="1.59996"
              stop-color="#fbfbfb"
              stop-opacity="1"
          >
              <animate
                  attributeName="offset"
                  values="-1; -1; 2"
                  keyTimes="0; 0.25; 1"
                  dur="2s"
                  repeatCount="indefinite"
              ></animate>
          </stop>
          <stop
              offset="2.59996"
              stop-color="#e4e3e3"
              stop-opacity="1"
          >
              <animate
                  attributeName="offset"
                  values="0; 0; 3"
                  keyTimes="0; 0.25; 1"
                  dur="2s"
                  repeatCount="indefinite"
              ></animate>
          </stop>
      </linearGradient>

  </defs>
</svg>
